<?xml version="1.0" standalone="no"?><!DOCTYPE svg PUBLIC "-//W3C//DTD SVG 1.1//EN" "http://www.w3.org/Graphics/SVG/1.1/DTD/svg11.dtd"><svg t="1734701040327" class="icon" viewBox="0 0 1024 1024" version="1.1" xmlns="http://www.w3.org/2000/svg" p-id="9985" xmlns:xlink="http://www.w3.org/1999/xlink" width="40" height="40"><path d="M960 256h-64V160c0-17.68-14.32-32-32-32h-192c-17.68 0-32 14.32-32 32v96H384V160c0-17.68-14.32-32-32-32H160c-17.68 0-32 14.32-32 32v96H64c-35.34 0-64 28.66-64 64v512c0 35.34 28.66 64 64 64h896c35.34 0 64-28.66 64-64V320c0-35.34-28.66-64-64-64zM384 528c0 8.84-7.16 16-16 16H144c-8.84 0-16-7.16-16-16v-32c0-8.84 7.16-16 16-16h224c8.84 0 16 7.16 16 16v32z m512 0c0 8.84-7.16 16-16 16h-80v80c0 8.84-7.16 16-16 16h-32c-8.84 0-16-7.16-16-16v-80h-80c-8.84 0-16-7.16-16-16v-32c0-8.84 7.16-16 16-16h80v-80c0-8.84 7.16-16 16-16h32c8.84 0 16 7.16 16 16v80h80c8.84 0 16 7.16 16 16v32z" p-id="9986" fill="#000000"></path></svg>