<svg width="355" height="99" viewBox="0 0 355 99" fill="none" xmlns="http://www.w3.org/2000/svg">
<rect x="4.36133" y="5" width="345.518" height="89.3385" rx="44.6693" fill="white"/>
<rect x="4.36133" y="5" width="345.518" height="89.3385" rx="44.6693" stroke="black" stroke-width="8.71595"/>
<path d="M66.6304 34.7929L92.3973 49.6694L66.6304 64.5459L66.6304 34.7929Z" fill="black"/>
<path d="M105.641 68.6689V30.0184H121.116C123.96 30.0184 126.331 30.4399 128.231 31.2828C130.131 32.1258 131.559 33.2959 132.515 34.7931C133.472 36.2777 133.95 37.9888 133.95 39.9264C133.95 41.4362 133.648 42.7635 133.044 43.9084C132.44 45.0408 131.609 45.9718 130.553 46.7015C129.508 47.4187 128.313 47.9282 126.967 48.2302V48.6076C128.439 48.6705 129.817 49.0857 131.1 49.8532C132.396 50.6207 133.446 51.6964 134.252 53.0804C135.057 54.4518 135.459 56.0874 135.459 57.9872C135.459 60.038 134.95 61.8686 133.931 63.4791C132.924 65.0769 131.433 66.3414 129.458 67.2724C127.483 68.2034 125.048 68.6689 122.154 68.6689H105.641ZM113.813 61.9881H120.475C122.752 61.9881 124.413 61.5541 125.457 60.6859C126.501 59.8052 127.023 58.6351 127.023 57.1757C127.023 56.1063 126.766 55.1626 126.25 54.3448C125.734 53.527 124.998 52.8854 124.042 52.4199C123.098 51.9543 121.972 51.7216 120.663 51.7216H113.813V61.9881ZM113.813 46.192H119.871C120.991 46.192 121.985 45.997 122.853 45.6069C123.733 45.2043 124.425 44.6382 124.929 43.9084C125.444 43.1787 125.702 42.3043 125.702 41.2852C125.702 39.8886 125.205 38.7626 124.211 37.907C123.23 37.0515 121.834 36.6237 120.022 36.6237H113.813V46.192ZM147.439 68.6689H138.682L152.025 30.0184H162.555L175.879 68.6689H167.122L157.441 38.8506H157.139L147.439 68.6689ZM146.891 53.4767H167.575V59.8556H146.891V53.4767ZM212.817 43.5499H204.551C204.4 42.4804 204.092 41.5305 203.626 40.7001C203.161 39.8572 202.563 39.14 201.833 38.5487C201.104 37.9573 200.261 37.5044 199.305 37.1899C198.361 36.8753 197.336 36.7181 196.228 36.7181C194.228 36.7181 192.485 37.215 191.001 38.209C189.516 39.1903 188.365 40.6246 187.547 42.5119C186.729 44.3865 186.32 46.6638 186.32 49.3437C186.32 52.099 186.729 54.414 187.547 56.2887C188.377 58.1633 189.535 59.5788 191.02 60.535C192.504 61.4912 194.222 61.9693 196.172 61.9693C197.266 61.9693 198.279 61.8246 199.21 61.5352C200.154 61.2458 200.99 60.8243 201.72 60.2708C202.45 59.7046 203.054 59.0189 203.532 58.2137C204.023 57.4084 204.362 56.49 204.551 55.4583L212.817 55.496C212.603 57.27 212.069 58.9811 211.213 60.6293C210.37 62.2649 209.231 63.7307 207.797 65.0266C206.375 66.3099 204.677 67.329 202.702 68.0839C200.739 68.8262 198.518 69.1974 196.04 69.1974C192.592 69.1974 189.51 68.4173 186.792 66.8572C184.087 65.2971 181.948 63.0387 180.376 60.082C178.815 57.1254 178.035 53.5459 178.035 49.3437C178.035 45.1288 178.828 41.5431 180.413 38.5864C181.999 35.6298 184.15 33.3777 186.868 31.8301C189.585 30.27 192.643 29.49 196.04 29.49C198.279 29.49 200.355 29.8045 202.268 30.4336C204.192 31.0627 205.897 31.9811 207.382 33.1889C208.867 34.3842 210.074 35.8499 211.005 37.5862C211.949 39.3224 212.553 41.3103 212.817 43.5499ZM218.677 68.6689V30.0184H226.849V47.0601H227.358L241.267 30.0184H251.062L236.719 47.3243L251.232 68.6689H241.456L230.869 52.7784L226.849 57.6852V68.6689H218.677Z" fill="black"/>
<path d="M287.611 34.7929L261.844 49.6694L287.611 64.5459L287.611 34.7929Z" fill="black"/>
</svg>
