<svg width="35" height="40" viewBox="0 0 35 40" fill="none" xmlns="http://www.w3.org/2000/svg">
<path d="M12.3346 0.752413C12.9462 0.217206 13.8637 0.217206 14.4754 0.752413C16.5398 2.74032 18.5277 4.88115 20.3627 7.17489C21.2037 6.10448 22.1977 4.88115 23.1916 3.88719C23.8033 3.35199 24.7208 3.35199 25.3324 3.88719C28.0085 6.41031 30.2258 9.77446 31.8314 12.9092C33.3605 16.044 34.4309 19.2553 34.4309 21.4725C34.4309 31.2592 26.7851 39.4402 17.3043 39.4402C7.67062 39.4402 0.177734 31.2592 0.177734 21.4725C0.177734 18.5671 1.47752 14.9736 3.61835 11.3801C5.75917 7.78655 8.74104 4.04011 12.3346 0.752413ZM17.3808 32.1002C19.3687 32.1002 21.0508 31.565 22.6564 30.4946C25.8676 28.2773 26.7087 23.7663 24.7972 20.2492C24.4914 19.5611 23.5739 19.4846 23.1152 20.0963L21.1272 22.3136C20.6685 22.9252 19.751 22.9252 19.2922 22.3136C17.9925 20.708 15.7752 17.8026 14.4754 16.1969C14.0166 15.5853 13.0991 15.5853 12.5639 16.1969C9.96437 19.4082 8.66458 21.4725 8.66458 23.7663C8.74104 29.0419 12.5639 32.1002 17.3808 32.1002Z" fill="black"/>
</svg>
