<svg width="45" height="40" viewBox="0 0 45 40" fill="none" xmlns="http://www.w3.org/2000/svg">
<path d="M40.5476 5.25477L43.6824 17.0293C44.5999 20.317 42.6884 23.6812 39.4007 24.5222L38.1774 24.828C36.8776 25.2103 35.5778 24.4457 35.1955 23.146L33.2841 15.9589L7.51771 22.6107V34.7676H10.6525L14.7048 23.2224L20.4391 21.6932L18.3748 27.4276H23.4974L21.3566 21.4639L26.1735 20.2405L31.2197 34.7676H41.7709C43.0707 34.7676 44.2176 35.9144 44.2176 37.2142C44.2176 38.5905 43.0707 39.6609 41.7709 39.6609H2.62439C1.24815 39.6609 0.177734 38.5905 0.177734 37.2142C0.177734 35.9144 1.24815 34.7676 2.62439 34.7676H3.84772V14.5827C3.84772 13.5887 4.6123 12.7477 5.68271 12.7477C6.67667 12.7477 7.51771 13.5887 7.51771 14.5827V17.5645L17.6102 14.9649L18.6041 11.9831C18.9864 10.9891 19.9039 10.301 20.9743 10.301C21.9683 10.301 22.8858 10.9891 23.2681 11.9831L23.7268 13.3593L31.9843 11.2185L30.1493 4.18435C29.767 2.88457 30.5316 1.58478 31.8314 1.20249L33.0547 0.896658C36.3424 0.0556192 39.6301 1.96707 40.5476 5.25477ZM15.8516 34.7676H26.0206L25.1795 32.3209H16.6927L15.8516 34.7676Z" fill="black"/>
</svg>
