<svg width="40" height="40" viewBox="0 0 40 40" fill="none" xmlns="http://www.w3.org/2000/svg">
<path d="M2.62439 5.29733C2.62439 2.6213 4.76522 0.404016 7.51771 0.404016H19.751C22.427 0.404016 24.6443 2.6213 24.6443 5.29733V19.9773H25.256C28.926 19.9773 31.9843 23.0356 31.9843 26.7056V29.1522C31.9843 30.2227 32.7489 30.9872 33.8193 30.9872C34.8132 30.9872 35.6543 30.2227 35.6543 29.1522V17.3777C33.5134 16.8425 31.9843 14.931 31.9843 12.6373V7.74399L29.5376 5.29733C28.8495 4.68567 28.8495 3.5388 29.5376 2.85067C30.1493 2.23901 31.2962 2.23901 31.9843 2.85067L37.8716 8.8144C38.7891 9.7319 39.3243 10.9552 39.3243 12.255V13.249V15.084V17.5306V29.1522C39.3243 32.2106 36.8011 34.6572 33.8193 34.6572C30.761 34.6572 28.3143 32.2106 28.3143 29.1522V26.7056C28.3143 25.0235 26.9381 23.6473 25.256 23.6473H24.6443V34.6572C25.9441 34.6572 27.091 35.8041 27.091 37.1039C27.091 38.4801 25.9441 39.5505 24.6443 39.5505H2.62439C1.24815 39.5505 0.177734 38.4801 0.177734 37.1039C0.177734 35.8041 1.24815 34.6572 2.62439 34.6572V5.29733ZM7.51771 6.52066V13.8606C7.51771 14.5488 8.05291 15.084 8.74104 15.084H18.5277C19.1393 15.084 19.751 14.5488 19.751 13.8606V6.52066C19.751 5.909 19.1393 5.29733 18.5277 5.29733H8.74104C8.05291 5.29733 7.51771 5.909 7.51771 6.52066Z" fill="black"/>
</svg>
