<svg width="46" height="31" viewBox="0 0 46 31" fill="none" xmlns="http://www.w3.org/2000/svg">
<path d="M21.745 1.19749C22.586 0.585822 23.7329 0.585822 24.5739 1.19749C26.3324 2.42082 28.3968 3.1854 30.5376 3.1854C32.5255 3.1854 34.7428 2.42082 36.4249 1.19749C37.3424 0.585822 38.5657 0.66228 39.4068 1.3504C40.5536 2.2679 41.9299 2.95602 43.3061 3.26185C44.6059 3.56769 45.447 4.86747 45.1411 6.24372C44.8353 7.54351 43.459 8.38454 42.1593 8.07871C40.3243 7.61996 38.7186 6.77892 37.7247 6.16726C35.5074 7.31413 33.0607 8.07871 30.5376 8.07871C28.091 8.07871 25.8737 7.39059 24.3445 6.70247C23.8858 6.47309 23.5035 6.24372 23.1977 6.0908C22.8154 6.24372 22.4331 6.47309 21.9743 6.70247C20.4452 7.39059 18.2279 8.07871 15.8577 8.07871C13.3346 8.07871 10.8114 7.31413 8.59417 6.16726C7.60021 6.77892 5.99459 7.61996 4.1596 8.07871C2.85981 8.38454 1.48357 7.54351 1.17773 6.24372C0.871902 4.94393 1.71294 3.56769 3.01273 3.26185C4.38897 2.95602 5.84168 2.2679 6.91209 1.3504C7.75313 0.66228 8.97646 0.585822 9.89395 1.19749C11.576 2.42082 13.7933 3.1854 15.8577 3.1854C17.922 3.1854 20.0629 2.42082 21.745 1.19749ZM24.5739 23.2174C26.3324 24.4407 28.3968 25.2053 30.5376 25.2053C32.5255 25.2053 34.7428 24.4407 36.4249 23.2174C37.3424 22.6057 38.5657 22.6822 39.4068 23.3703C40.5536 24.2878 41.9299 24.9759 43.3061 25.2818C44.6059 25.5876 45.447 26.8874 45.1411 28.2636C44.8353 29.5634 43.459 30.4045 42.1593 30.0986C40.3243 29.6399 38.7186 28.7988 37.7247 28.1872C35.5074 29.3341 33.0607 30.0986 30.5376 30.0986C28.091 30.0986 25.8737 29.4105 24.3445 28.7224C23.8858 28.493 23.5035 28.2636 23.1977 28.1107C22.8154 28.2636 22.4331 28.493 21.9743 28.7224C20.4452 29.4105 18.2279 30.0986 15.8577 30.0986C13.3346 30.0986 10.8114 29.3341 8.59417 28.1872C7.60021 28.7988 5.99459 29.6399 4.1596 30.0986C2.85981 30.4045 1.48357 29.5634 1.17773 28.2636C0.871902 26.9639 1.71294 25.5876 3.01273 25.2818C4.38897 24.9759 5.84168 24.2878 6.91209 23.3703C7.75313 22.6822 8.97646 22.6057 9.89395 23.2174C11.576 24.4407 13.7933 25.2053 15.8577 25.2053C17.922 25.2053 20.0629 24.4407 21.745 23.2174C22.586 22.6057 23.7329 22.6057 24.5739 23.2174ZM24.5739 12.2074C26.3324 13.4308 28.3968 14.1954 30.5376 14.1954C32.5255 14.1954 34.7428 13.4308 36.4249 12.2074C37.3424 11.5958 38.5657 11.6722 39.4068 12.3604C40.5536 13.2779 41.9299 13.966 43.3061 14.2718C44.6059 14.5776 45.447 15.8774 45.1411 17.2537C44.8353 18.5535 43.459 19.3945 42.1593 19.0887C40.3243 18.6299 38.7186 17.7889 37.7247 17.1772C35.5074 18.3241 33.0607 19.0887 30.5376 19.0887C28.091 19.0887 25.8737 18.4005 24.3445 17.7124C23.8858 17.4831 23.5035 17.2537 23.1977 17.1008C22.8154 17.2537 22.4331 17.4831 21.9743 17.7124C20.4452 18.4005 18.2279 19.0887 15.8577 19.0887C13.3346 19.0887 10.8114 18.3241 8.59417 17.1772C7.60021 17.7889 5.99459 18.6299 4.1596 19.0887C2.85981 19.3945 1.48357 18.5535 1.17773 17.2537C0.871902 15.9539 1.71294 14.5776 3.01273 14.2718C4.38897 13.966 5.84168 13.2779 6.91209 12.3604C7.75313 11.6722 8.97646 11.5958 9.89395 12.2074C11.576 13.4308 13.7933 14.1954 15.8577 14.1954C17.922 14.1954 20.0629 13.4308 21.745 12.2074C22.586 11.5958 23.7329 11.5958 24.5739 12.2074Z" fill="black"/>
</svg>
