<svg width="40" height="40" viewBox="0 0 40 40" fill="none" xmlns="http://www.w3.org/2000/svg">
<path d="M22.1977 3.18173C22.1977 1.88194 23.2681 0.735071 24.6443 0.735071H27.091C31.1432 0.735071 34.4309 4.02277 34.4309 8.07504C34.4309 12.1273 31.1432 15.415 27.091 15.415H2.62439C1.24815 15.415 0.177734 14.3446 0.177734 12.9684C0.177734 11.6686 1.24815 10.5217 2.62439 10.5217H27.091C28.3908 10.5217 29.5376 9.45129 29.5376 8.07504C29.5376 6.77526 28.3908 5.62839 27.091 5.62839H24.6443C23.2681 5.62839 22.1977 4.55797 22.1977 3.18173ZM27.091 30.095C27.091 28.7952 28.1614 27.6483 29.5376 27.6483H31.9843C33.2841 27.6483 34.4309 26.5779 34.4309 25.2016C34.4309 23.9019 33.2841 22.755 31.9843 22.755H2.62439C1.24815 22.755 0.177734 21.6846 0.177734 20.3083C0.177734 19.0085 1.24815 17.8617 2.62439 17.8617H31.9843C36.0366 17.8617 39.3243 21.1494 39.3243 25.2016C39.3243 29.2539 36.0366 32.5416 31.9843 32.5416H29.5376C28.1614 32.5416 27.091 31.4712 27.091 30.095ZM9.96437 39.8816C8.58812 39.8816 7.51771 38.8112 7.51771 37.4349C7.51771 36.1352 8.58812 34.9883 9.96437 34.9883H12.411C13.7108 34.9883 14.8577 33.9179 14.8577 32.5416C14.8577 31.2418 13.7108 30.095 12.411 30.095H2.62439C1.24815 30.095 0.177734 29.0246 0.177734 27.6483C0.177734 26.3485 1.24815 25.2016 2.62439 25.2016H12.411C16.4633 25.2016 19.751 28.4893 19.751 32.5416C19.751 36.5939 16.4633 39.8816 12.411 39.8816H9.96437Z" fill="black"/>
</svg>
