<svg width="132" height="109" viewBox="0 0 132 109" fill="none" xmlns="http://www.w3.org/2000/svg">
<path d="M83.7998 96.3693L85.7568 93.8791C84.6599 93.0171 83.1281 92.9743 81.9848 93.7738L83.7998 96.3693ZM104.943 47.2047L101.811 47.6716C102.017 49.0525 103.102 50.1357 104.484 50.3383L104.943 47.2047ZM79.9698 95.1081L77.2857 96.7892L80.6479 102.158L83.3321 100.476L79.9698 95.1081ZM73.5207 105.309L76.4897 104.207L74.2844 98.2687L71.3153 99.3714L73.5207 105.309ZM66.7084 100.819L63.6422 101.612L65.2292 107.745L68.2953 106.951L66.7084 100.819ZM57.4854 108.599L60.6487 108.441L60.3322 102.115L57.169 102.273L57.4854 108.599ZM51.632 102.233L48.4715 102.029L48.063 108.35L51.2236 108.554L51.632 102.233ZM37.4132 105.819L40.4124 106.837L42.4481 100.838L39.449 99.8205L37.4132 105.819ZM33.702 97.4374L30.8625 96.0344L28.0566 101.713L30.8961 103.116L33.702 97.4374ZM19.1988 95.2873L21.5792 97.3765L25.7576 92.6157L23.3772 90.5265L19.1988 95.2873ZM18.9739 86.1232L16.8847 83.7428L12.1239 87.9212L14.2131 90.3016L18.9739 86.1232ZM6.38403 78.6043L7.78697 81.4437L13.466 78.6379L12.063 75.7984L6.38403 78.6043ZM9.67991 70.0514L8.66205 67.0523L2.66375 69.088L3.6816 72.0871L9.67991 70.0514ZM0.946437 58.2768L1.15068 61.4374L7.47184 61.0289L7.26759 57.8683L0.946437 58.2768ZM7.26759 51.632L7.47184 48.4715L1.15068 48.063L0.946437 51.2236L7.26759 51.632ZM3.6816 37.4132L2.66375 40.4124L8.66205 42.4481L9.67991 39.449L3.6816 37.4132ZM12.063 33.702L13.466 30.8625L7.78697 28.0566L6.38403 30.8961L12.063 33.702ZM14.2131 19.1988L12.1239 21.5792L16.8847 25.7576L18.9739 23.3772L14.2131 19.1988ZM23.3772 18.9739L25.7576 16.8847L21.5792 12.1239L19.1988 14.2131L23.3772 18.9739ZM30.8961 6.38403L28.0566 7.78697L30.8625 13.466L33.702 12.063L30.8961 6.38403ZM39.449 9.67991L42.4481 8.66205L40.4124 2.66375L37.4132 3.6816L39.449 9.67991ZM51.2236 0.946437L48.063 1.15068L48.4715 7.47184L51.632 7.26759L51.2236 0.946437ZM57.5724 7.24939L60.7342 7.43413L61.1037 1.11058L57.9419 0.925832L57.5724 7.24939ZM70.4908 3.16758L67.4612 2.2442L65.6145 8.30335L68.644 9.22673L70.4908 3.16758ZM73.9227 11.1867L76.8208 12.4642L79.3757 6.66796L76.4776 5.39051L73.9227 11.1867ZM87.4504 11.8776L84.9335 9.95506L81.0885 14.9889L83.6055 16.9114L87.4504 11.8776ZM87.8752 20.5906L90.1487 22.7957L94.5588 18.2487L92.2854 16.0437L87.8752 20.5906ZM100.326 25.9297L98.631 23.2543L93.2803 26.6446L94.9754 29.32L100.326 25.9297ZM97.7032 34.2488L99.0696 37.1061L104.784 34.3733L103.418 31.5161L97.7032 34.2488ZM107.511 43.592L106.859 40.4927L100.66 41.7975L101.312 44.8967L107.511 43.592ZM107.329 50.9306L110.386 51.7601L112.045 45.6468L108.988 44.8174L107.329 50.9306ZM121.697 51.8151L119.359 49.6785L115.086 54.3543L117.424 56.4909L121.697 51.8151ZM121.22 60.8871L122.993 63.5114L128.242 59.9652L126.469 57.3409L121.22 60.8871ZM131.526 70.9419L131.155 67.7966L124.864 68.5389L125.235 71.6843L131.526 70.9419ZM125.198 77.7979L124.789 80.9385L131.07 81.7578L131.479 78.6173L125.198 77.7979ZM125.365 93.3742L127.295 90.8629L122.272 87.0032L120.342 89.5146L125.365 93.3742ZM115.813 94.0436L113.302 95.9734L117.162 100.996L119.673 99.0662L115.813 94.0436ZM104.916 105.181L108.057 104.771L107.237 98.4898L104.097 98.8995L104.916 105.181ZM98.1731 98.9582L95.025 98.6115L94.3316 104.908L97.4797 105.254L98.1731 98.9582ZM84.6436 100.82L87.3346 102.491L90.6749 97.1085L87.9839 95.4384L84.6436 100.82ZM81.9848 93.7738C81.3251 94.2351 80.6533 94.68 79.9698 95.1081L83.3321 100.476C84.1065 99.9914 84.8676 99.4873 85.6148 98.9648L81.9848 93.7738ZM71.3153 99.3714C69.814 99.929 68.2769 100.413 66.7084 100.819L68.2953 106.951C70.0744 106.491 71.8179 105.942 73.5207 105.309L71.3153 99.3714ZM57.169 102.273C56.3681 102.313 55.5616 102.333 54.7502 102.333V108.668C55.6672 108.668 56.5791 108.645 57.4854 108.599L57.169 102.273ZM54.7502 102.333C53.7021 102.333 52.6624 102.299 51.632 102.233L51.2236 108.554C52.3898 108.629 53.5658 108.668 54.7502 108.668V102.333ZM39.449 99.8205C37.4719 99.1495 35.5531 98.352 33.702 97.4374L30.8961 103.116C32.9947 104.153 35.1707 105.058 37.4132 105.819L39.449 99.8205ZM23.3772 90.5265C21.8156 89.1559 20.3445 87.6848 18.9739 86.1232L14.2131 90.3016C15.765 92.0697 17.4307 93.7354 19.1988 95.2873L23.3772 90.5265ZM12.063 75.7984C11.1484 73.9473 10.3509 72.0285 9.67991 70.0514L3.6816 72.0871C4.44267 74.3297 5.34716 76.5057 6.38403 78.6043L12.063 75.7984ZM7.26759 57.8683C7.20101 56.838 7.16717 55.7983 7.16717 54.7502H0.83283C0.83283 55.9346 0.87107 57.1106 0.946437 58.2768L7.26759 57.8683ZM7.16717 54.7502C7.16717 53.7021 7.20101 52.6624 7.26759 51.632L0.946437 51.2236C0.87107 52.3898 0.83283 53.5658 0.83283 54.7502H7.16717ZM9.67991 39.449C10.3509 37.4719 11.1484 35.5531 12.063 33.702L6.38403 30.8961C5.34716 32.9947 4.44267 35.1707 3.6816 37.4132L9.67991 39.449ZM18.9739 23.3772C20.3445 21.8156 21.8156 20.3445 23.3772 18.9739L19.1988 14.2131C17.4307 15.765 15.765 17.4307 14.2131 19.1988L18.9739 23.3772ZM33.702 12.063C35.5531 11.1484 37.4719 10.3509 39.449 9.67991L37.4132 3.6816C35.1707 4.44267 32.9947 5.34716 30.8961 6.38403L33.702 12.063ZM51.632 7.26759C52.6624 7.20101 53.7021 7.16717 54.7502 7.16717V0.83283C53.5658 0.83283 52.3898 0.87107 51.2236 0.946437L51.632 7.26759ZM54.7502 7.16717C55.698 7.16717 56.639 7.19484 57.5724 7.24939L57.9419 0.925832C56.8856 0.864105 55.8213 0.83283 54.7502 0.83283V7.16717ZM68.644 9.22673C70.4515 9.77763 72.2134 10.4333 73.9227 11.1867L76.4776 5.39051C74.5393 4.53613 72.541 3.79246 70.4908 3.16758L68.644 9.22673ZM83.6055 16.9114C85.1008 18.0536 86.5266 19.2825 87.8752 20.5906L92.2854 16.0437C90.7584 14.5626 89.1439 13.1711 87.4504 11.8776L83.6055 16.9114ZM94.9754 29.32C95.9781 30.9024 96.8898 32.5478 97.7032 34.2488L103.418 31.5161C102.495 29.5875 101.462 27.7227 100.326 25.9297L94.9754 29.32ZM101.312 44.8967C101.505 45.8121 101.671 46.7374 101.811 47.6716L108.076 46.7377C107.918 45.6789 107.729 44.63 107.511 43.592L101.312 44.8967ZM104.484 50.3383C105.452 50.4804 106.402 50.679 107.329 50.9306L108.988 44.8174C107.819 44.5001 106.622 44.2499 105.403 44.071L104.484 50.3383ZM117.424 56.4909C118.855 57.7995 120.131 59.2754 121.22 60.8871L126.469 57.3409C125.099 55.314 123.496 53.4593 121.697 51.8151L117.424 56.4909ZM125.235 71.6843C125.348 72.6367 125.406 73.607 125.406 74.5921H131.74C131.74 73.3583 131.667 72.1402 131.526 70.9419L125.235 71.6843ZM125.406 74.5921C125.406 75.6801 125.335 76.7501 125.198 77.7979L131.479 78.6173C131.651 77.2985 131.74 75.9548 131.74 74.5921H125.406ZM120.342 89.5146C119.036 91.214 117.513 92.7377 115.813 94.0436L119.673 99.0662C121.809 97.4248 123.724 95.5102 125.365 93.3742L120.342 89.5146ZM104.097 98.8995C103.049 99.0361 101.979 99.1068 100.891 99.1068V105.441C102.254 105.441 103.597 105.353 104.916 105.181L104.097 98.8995ZM100.891 99.1068C99.9712 99.1068 99.0644 99.0563 98.1731 98.9582L97.4797 105.254C98.6009 105.378 99.7391 105.441 100.891 105.441V99.1068ZM87.9839 95.4384C87.2121 94.9594 86.4687 94.4386 85.7568 93.8791L81.8427 98.8595C82.7376 99.5628 83.6725 100.218 84.6436 100.82L87.9839 95.4384Z" fill="black"/>
</svg>
