<svg width="589" height="153" viewBox="0 0 589 153" fill="none" xmlns="http://www.w3.org/2000/svg">
<path d="M497.917 95.7283C534.03 89.8202 547.639 111.595 553.083 119.76C558.527 127.925 561.248 136.091 569.414 136.091C577.579 136.091 583.023 136.091 583.023 121.884C583.023 107.677 575.056 82.3185 569.746 71.6968C564.435 61.0752 556.469 61.0752 556.469 61.0752H160.812" stroke="#AAAAAA" stroke-width="10.8872"/>
<mask id="path-2-inside-1_460_712" fill="white">
<path fill-rule="evenodd" clip-rule="evenodd" d="M198.918 16.3308C198.918 7.31153 206.23 0 215.249 0H362.555H469.371H482.314C489.83 0 495.923 6.09295 495.923 13.609C495.923 19.9554 491.579 25.2871 485.702 26.7929V31.7312V42.0883V58.2853H471.471C470.784 58.3736 470.083 58.419 469.371 58.419H215.249C214.537 58.419 213.837 58.3736 213.149 58.2853H198.918V42.0883V31.7312V16.3308Z"/>
</mask>
<path fill-rule="evenodd" clip-rule="evenodd" d="M198.918 16.3308C198.918 7.31153 206.23 0 215.249 0H362.555H469.371H482.314C489.83 0 495.923 6.09295 495.923 13.609C495.923 19.9554 491.579 25.2871 485.702 26.7929V31.7312V42.0883V58.2853H471.471C470.784 58.3736 470.083 58.419 469.371 58.419H215.249C214.537 58.419 213.837 58.3736 213.149 58.2853H198.918V42.0883V31.7312V16.3308Z" fill="black"/>
<path d="M485.702 26.7929L483 16.2464L474.815 18.3435V26.7929H485.702ZM485.702 58.2853V69.1725H496.589V58.2853H485.702ZM471.471 58.2853V47.3982H470.775L470.085 47.4867L471.471 58.2853ZM213.149 58.2853L214.535 47.4867L213.845 47.3982H213.149V58.2853ZM198.918 58.2853H188.031V69.1725H198.918V58.2853ZM215.249 -10.8872C200.217 -10.8872 188.031 1.29869 188.031 16.3308H209.805C209.805 13.3244 212.242 10.8872 215.249 10.8872V-10.8872ZM362.555 -10.8872H215.249V10.8872H362.555V-10.8872ZM362.555 10.8872H469.371V-10.8872H362.555V10.8872ZM469.371 10.8872H482.314V-10.8872H469.371V10.8872ZM482.314 10.8872C483.818 10.8872 485.036 12.1058 485.036 13.609H506.81C506.81 0.0801339 495.843 -10.8872 482.314 -10.8872V10.8872ZM485.036 13.609C485.036 14.8634 484.178 15.9447 483 16.2464L488.404 37.3394C498.981 34.6296 506.81 25.0473 506.81 13.609H485.036ZM496.589 31.7312V26.7929H474.815V31.7312H496.589ZM496.589 42.0883V31.7312H474.815V42.0883H496.589ZM496.589 58.2853V42.0883H474.815V58.2853H496.589ZM471.471 69.1725H485.702V47.3982H471.471V69.1725ZM469.371 69.3062C470.547 69.3062 471.711 69.231 472.857 69.084L470.085 47.4867C469.856 47.5161 469.618 47.5318 469.371 47.5318V69.3062ZM215.249 69.3062H469.371V47.5318H215.249V69.3062ZM211.764 69.084C212.909 69.231 214.073 69.3062 215.249 69.3062V47.5318C215.002 47.5318 214.764 47.5161 214.535 47.4867L211.764 69.084ZM198.918 69.1725H213.149V47.3982H198.918V69.1725ZM188.031 42.0883V58.2853H209.805V42.0883H188.031ZM188.031 31.7312V42.0883H209.805V31.7312H188.031ZM188.031 16.3308V31.7312H209.805V16.3308H188.031Z" fill="#AAAAAA" mask="url(#path-2-inside-1_460_712)"/>
<mask id="path-4-inside-2_460_712" fill="white">
<path fill-rule="evenodd" clip-rule="evenodd" d="M22.3301 16.3308C22.3301 7.31154 29.6416 0 38.6609 0H206.455H338.058H354.391C360.404 0 365.278 4.87436 365.278 10.8872C365.278 16.9 360.404 21.7744 354.391 21.7744H354.389V70.7667C354.389 79.7859 347.078 87.0975 338.058 87.0975H38.6609C29.6416 87.0975 22.3301 79.7859 22.3301 70.7667V63.7289V37.1748V16.3308Z"/>
</mask>
<path fill-rule="evenodd" clip-rule="evenodd" d="M22.3301 16.3308C22.3301 7.31154 29.6416 0 38.6609 0H206.455H338.058H354.391C360.404 0 365.278 4.87436 365.278 10.8872C365.278 16.9 360.404 21.7744 354.391 21.7744H354.389V70.7667C354.389 79.7859 347.078 87.0975 338.058 87.0975H38.6609C29.6416 87.0975 22.3301 79.7859 22.3301 70.7667V63.7289V37.1748V16.3308Z" fill="black"/>
<path d="M354.389 21.7744V10.8872H343.502V21.7744H354.389ZM38.6609 -10.8872C23.6288 -10.8872 11.4429 1.29872 11.4429 16.3308H33.2173C33.2173 13.3244 35.6544 10.8872 38.6609 10.8872V-10.8872ZM206.455 -10.8872H38.6609V10.8872H206.455V-10.8872ZM206.455 10.8872H338.058V-10.8872H206.455V10.8872ZM338.058 10.8872H354.391V-10.8872H338.058V10.8872ZM354.391 10.8872H354.391H376.165C376.165 -1.13846 366.416 -10.8872 354.391 -10.8872V10.8872ZM354.391 10.8872H354.391V32.6615C366.416 32.6615 376.165 22.9128 376.165 10.8872H354.391ZM354.391 10.8872H354.389V32.6615H354.391V10.8872ZM365.276 70.7667V21.7744H343.502V70.7667H365.276ZM338.058 97.9846C353.09 97.9846 365.276 85.7987 365.276 70.7667H343.502C343.502 73.7731 341.065 76.2103 338.058 76.2103V97.9846ZM38.6609 97.9846H338.058V76.2103H38.6609V97.9846ZM11.4429 70.7667C11.4429 85.7988 23.6288 97.9846 38.6609 97.9846V76.2103C35.6544 76.2103 33.2173 73.7731 33.2173 70.7667H11.4429ZM11.4429 63.7289V70.7667H33.2173V63.7289H11.4429ZM11.4429 37.1748V63.7289H33.2173V37.1748H11.4429ZM11.4429 16.3308V37.1748H33.2173V16.3308H11.4429Z" fill="#AAAAAA" mask="url(#path-4-inside-2_460_712)"/>
<line x1="354.391" y1="19.0526" x2="485.037" y2="19.0526" stroke="#AAAAAA" stroke-width="5.44359"/>
<mask id="path-7-inside-3_460_712" fill="white">
<path fill-rule="evenodd" clip-rule="evenodd" d="M438.441 70.4996C440.413 74.4425 442.75 80.4161 444.91 87.0963H444.909C448.568 98.4117 451.718 111.754 451.718 120.687C451.718 125.393 451.12 128.54 450.025 130.645H560.267C562.487 133.226 565.066 134.893 568.755 134.893C576.921 134.893 582.364 134.893 582.364 120.687C582.364 106.48 574.398 81.1212 569.087 70.4996C563.776 59.8779 555.81 59.8779 555.81 59.8779H425.164C425.164 59.8779 433.13 59.8779 438.441 70.4996Z"/>
</mask>
<path fill-rule="evenodd" clip-rule="evenodd" d="M438.441 70.4996C440.413 74.4425 442.75 80.4161 444.91 87.0963H444.909C448.568 98.4117 451.718 111.754 451.718 120.687C451.718 125.393 451.12 128.54 450.025 130.645H560.267C562.487 133.226 565.066 134.893 568.755 134.893C576.921 134.893 582.364 134.893 582.364 120.687C582.364 106.48 574.398 81.1212 569.087 70.4996C563.776 59.8779 555.81 59.8779 555.81 59.8779H425.164C425.164 59.8779 433.13 59.8779 438.441 70.4996Z" fill="#AAAAAA"/>
<path d="M444.91 87.0963V92.5399H452.391L450.089 85.4215L444.91 87.0963ZM438.441 70.4996L443.31 68.0651L443.31 68.0651L438.441 70.4996ZM444.909 87.0963V81.6527H437.428L439.73 88.771L444.909 87.0963ZM450.025 130.645L445.196 128.131L441.053 136.089H450.025V130.645ZM560.267 130.645L564.394 127.095L562.765 125.201H560.267V130.645ZM450.089 85.4215C447.885 78.6048 445.451 72.3472 443.31 68.0651L433.572 72.934C435.374 76.5377 437.614 82.2274 439.73 88.771L450.089 85.4215ZM444.909 92.5399H444.91V81.6527H444.909V92.5399ZM457.161 120.687C457.161 110.863 453.784 96.848 450.089 85.4215L439.73 88.771C443.353 99.9753 446.274 112.645 446.274 120.687H457.161ZM454.853 133.159C456.552 129.895 457.161 125.7 457.161 120.687H446.274C446.274 125.087 445.689 127.186 445.196 128.131L454.853 133.159ZM560.267 125.201H450.025V136.089H560.267V125.201ZM568.755 129.45C567.104 129.45 565.917 128.866 564.394 127.095L556.14 134.195C559.058 137.587 563.027 140.337 568.755 140.337V129.45ZM576.921 120.687C576.921 127.529 575.518 128.642 575.368 128.754C575.201 128.878 574.77 129.12 573.604 129.276C572.377 129.44 570.896 129.45 568.755 129.45V140.337C570.698 140.337 572.959 140.347 575.049 140.067C577.2 139.779 579.661 139.133 581.876 137.482C586.489 134.042 587.808 128.051 587.808 120.687H576.921ZM564.218 72.934C566.664 77.8256 569.874 86.464 572.477 95.7224C575.098 105.043 576.921 114.351 576.921 120.687H587.808C587.808 112.816 585.648 102.341 582.958 92.7753C580.25 83.1471 576.821 73.7951 573.956 68.0651L564.218 72.934ZM555.81 59.8779C555.81 65.3215 555.807 65.3215 555.803 65.3215C555.802 65.3215 555.799 65.3215 555.796 65.3215C555.792 65.3215 555.787 65.3215 555.783 65.3215C555.775 65.3214 555.766 65.3213 555.759 65.3213C555.743 65.3211 555.73 65.3209 555.717 65.3206C555.693 65.3201 555.676 65.3195 555.665 65.319C555.642 65.318 555.645 65.3176 555.67 65.3199C555.721 65.3245 555.86 65.3398 556.07 65.3818C556.491 65.4659 557.183 65.6548 558.023 66.0745C559.625 66.8755 562.09 68.6767 564.218 72.934L573.956 68.0651C570.774 61.7008 566.601 58.1912 562.892 56.3367C561.076 55.4287 559.445 54.9539 558.206 54.706C557.586 54.5821 557.061 54.5143 556.656 54.4774C556.453 54.459 556.279 54.4482 556.137 54.4421C556.067 54.439 556.004 54.4371 555.949 54.4359C555.922 54.4353 555.896 54.4349 555.873 54.4347C555.862 54.4346 555.851 54.4345 555.84 54.4344C555.835 54.4344 555.83 54.4344 555.825 54.4344C555.822 54.4344 555.819 54.4343 555.817 54.4343C555.814 54.4343 555.81 54.4343 555.81 59.8779ZM425.164 65.3215H555.81V54.4343H425.164V65.3215ZM443.31 68.0651C440.128 61.7008 435.954 58.1912 432.245 56.3367C430.429 55.4287 428.799 54.9539 427.559 54.706C426.94 54.5821 426.415 54.5143 426.01 54.4774C425.807 54.459 425.633 54.4482 425.491 54.4421C425.42 54.439 425.357 54.4371 425.303 54.4359C425.276 54.4353 425.25 54.4349 425.227 54.4347C425.216 54.4346 425.205 54.4345 425.194 54.4344C425.189 54.4344 425.184 54.4344 425.179 54.4344C425.176 54.4344 425.172 54.4343 425.171 54.4343C425.168 54.4343 425.164 54.4343 425.164 59.8779C425.164 65.3215 425.161 65.3215 425.157 65.3215C425.156 65.3215 425.152 65.3215 425.15 65.3215C425.146 65.3215 425.141 65.3215 425.137 65.3215C425.128 65.3214 425.12 65.3213 425.113 65.3213C425.097 65.3211 425.083 65.3209 425.071 65.3206C425.047 65.3201 425.03 65.3195 425.018 65.319C424.996 65.318 424.999 65.3176 425.024 65.3199C425.075 65.3245 425.214 65.3398 425.424 65.3818C425.845 65.4659 426.537 65.6548 427.377 66.0745C428.978 66.8755 431.444 68.6767 433.572 72.934L443.31 68.0651Z" fill="#AAAAAA" mask="url(#path-7-inside-3_460_712)"/>
<line x1="452.375" y1="130.646" x2="561.247" y2="130.646" stroke="#AAAAAA" stroke-width="10.8872"/>
<path d="M457.818 126.085C457.818 110.343 452.24 89.4516 446.662 77.3874C441.084 65.3232 427.139 65.3232 427.139 65.3232H19.6049C19.6049 65.3232 6 65.3232 6 80.0356V129.322C6 129.322 6 146.977 22.3259 146.977H261.636C326.735 146.977 325.238 102.325 365.033 97.102C404.827 91.8791 421.561 114.684 427.139 123.732C432.717 132.78 435.506 141.828 443.873 141.828C452.24 141.828 457.818 141.828 457.818 126.085Z" fill="#AAAAAA" stroke="black" stroke-width="10.8872"/>
<rect x="147.533" y="21.7745" width="32.6615" height="32.6615" rx="8.16539" fill="black" stroke="#AAAAAA" stroke-width="5.44359"/>
<rect x="49.548" y="21.7745" width="32.6615" height="32.6615" rx="8.16539" fill="black" stroke="#AAAAAA" stroke-width="5.44359"/>
<rect x="98.5402" y="21.7745" width="32.6615" height="32.6615" rx="8.16539" fill="black" stroke="#AAAAAA" stroke-width="5.44359"/>
<rect x="196.525" y="21.7745" width="32.6615" height="32.6615" rx="8.16539" fill="black" stroke="#AAAAAA" stroke-width="5.44359"/>
<rect x="294.509" y="21.7745" width="32.6615" height="32.6615" rx="8.16539" fill="black" stroke="#AAAAAA" stroke-width="5.44359"/>
<rect x="245.517" y="21.7745" width="32.6615" height="32.6615" rx="8.16539" fill="black" stroke="#AAAAAA" stroke-width="5.44359"/>
</svg>
