<svg width="713" height="176" viewBox="0 0 713 176" fill="none" xmlns="http://www.w3.org/2000/svg">
<mask id="path-1-inside-1_804_6228" fill="white">
<path fill-rule="evenodd" clip-rule="evenodd" d="M76.3993 156.467C69.1267 160.333 60.8276 162.524 52.0168 162.524C23.2887 162.524 0 139.235 0 110.507C0 81.7789 23.2887 58.4902 52.0168 58.4902C78.8261 58.4902 100.898 78.7719 103.727 104.829C120.076 106.142 132.934 119.826 132.934 136.514C132.934 154.07 118.702 168.302 101.146 168.302C91.1472 168.302 82.2265 163.685 76.3993 156.467Z"/>
</mask>
<path fill-rule="evenodd" clip-rule="evenodd" d="M76.3993 156.467C69.1267 160.333 60.8276 162.524 52.0168 162.524C23.2887 162.524 0 139.235 0 110.507C0 81.7789 23.2887 58.4902 52.0168 58.4902C78.8261 58.4902 100.898 78.7719 103.727 104.829C120.076 106.142 132.934 119.826 132.934 136.514C132.934 154.07 118.702 168.302 101.146 168.302C91.1472 168.302 82.2265 163.685 76.3993 156.467Z" fill="black"/>
<path d="M76.3993 156.467L84.6739 149.787L79.1591 142.956L71.4073 147.077L76.3993 156.467ZM103.727 104.829L93.1548 105.977L94.1045 114.724L102.875 115.429L103.727 104.829ZM71.4073 147.077C65.6344 150.146 59.0449 151.889 52.0168 151.889V173.158C62.6102 173.158 72.619 170.521 81.3912 165.857L71.4073 147.077ZM52.0168 151.889C29.162 151.889 10.6345 133.362 10.6345 110.507H-10.6345C-10.6345 145.108 17.4154 173.158 52.0168 173.158V151.889ZM10.6345 110.507C10.6345 87.6522 29.162 69.1248 52.0168 69.1248V47.8557C17.4154 47.8557 -10.6345 75.9056 -10.6345 110.507H10.6345ZM52.0168 69.1248C73.3381 69.1248 90.9055 85.2582 93.1548 105.977L114.3 103.681C110.891 72.2856 84.3141 47.8557 52.0168 47.8557V69.1248ZM102.875 115.429C113.744 116.303 122.3 125.414 122.3 136.514H143.569C143.569 114.239 126.408 95.9825 104.579 94.2285L102.875 115.429ZM122.3 136.514C122.3 148.196 112.829 157.667 101.146 157.667V178.936C124.576 178.936 143.569 159.943 143.569 136.514H122.3ZM101.146 157.667C94.4969 157.667 88.5689 154.611 84.6739 149.787L68.1247 163.147C75.884 172.758 87.7975 178.936 101.146 178.936V157.667Z" fill="#AAAAAA" mask="url(#path-1-inside-1_804_6228)"/>
<circle cx="640.73" cy="140.908" r="29.245" fill="black" stroke="#AAAAAA" stroke-width="10.6345"/>
<circle cx="513.117" cy="140.908" r="29.245" fill="black" stroke="#AAAAAA" stroke-width="10.6345"/>
<circle cx="420.064" cy="140.908" r="29.245" fill="black" stroke="#AAAAAA" stroke-width="10.6345"/>
<circle cx="276.498" cy="140.908" r="29.245" fill="black" stroke="#AAAAAA" stroke-width="10.6345"/>
<path d="M624.069 93.5013C659.344 87.7303 672.638 108.999 677.955 116.975C683.272 124.951 685.931 132.927 693.907 132.927C701.883 132.927 707.2 132.927 707.2 119.05C707.2 105.173 699.418 80.4027 694.231 70.0275C689.043 59.6523 681.262 59.6523 681.262 59.6523H294.787" stroke="#AAAAAA" stroke-width="10.6345"/>
<circle cx="627.437" cy="140.908" r="29.245" fill="black" stroke="#AAAAAA" stroke-width="10.6345"/>
<mask id="path-9-inside-2_804_6228" fill="white">
<path fill-rule="evenodd" clip-rule="evenodd" d="M332.008 15.9518C332.008 7.14188 339.15 0 347.96 0H491.848H596.185H608.828C616.169 0 622.121 5.95156 622.121 13.2932C622.121 19.4923 617.878 24.7003 612.137 26.1711V36.3174V41.1116V62.2553H332.008V41.1116V36.3174V15.9518Z"/>
</mask>
<path fill-rule="evenodd" clip-rule="evenodd" d="M332.008 15.9518C332.008 7.14188 339.15 0 347.96 0H491.848H596.185H608.828C616.169 0 622.121 5.95156 622.121 13.2932C622.121 19.4923 617.878 24.7003 612.137 26.1711V36.3174V41.1116V62.2553H332.008V41.1116V36.3174V15.9518Z" fill="black"/>
<path d="M612.137 26.1711L609.498 15.8694L601.503 17.9179V26.1711H612.137ZM612.137 62.2553V72.8898H622.772V62.2553H612.137ZM332.008 62.2553H321.373V72.8898H332.008V62.2553ZM347.96 -10.6345C333.276 -10.6345 321.373 1.26859 321.373 15.9518H342.642C342.642 13.0152 345.023 10.6345 347.96 10.6345V-10.6345ZM491.848 -10.6345H347.96V10.6345H491.848V-10.6345ZM491.848 10.6345H596.185V-10.6345H491.848V10.6345ZM596.185 10.6345H608.828V-10.6345H596.185V10.6345ZM608.828 10.6345C610.296 10.6345 611.486 11.8248 611.486 13.2932H632.756C632.756 0.078282 622.043 -10.6345 608.828 -10.6345V10.6345ZM611.486 13.2932C611.486 14.5185 610.648 15.5747 609.498 15.8694L614.777 36.4729C625.108 33.8259 632.756 24.4661 632.756 13.2932H611.486ZM622.772 36.3174V26.1711H601.503V36.3174H622.772ZM622.772 41.1116V36.3174H601.503V41.1116H622.772ZM622.772 62.2553V41.1116H601.503V62.2553H622.772ZM332.008 72.8898H612.137V51.6207H332.008V72.8898ZM321.373 41.1116V62.2553H342.642V41.1116H321.373ZM321.373 36.3174V41.1116H342.642V36.3174H321.373ZM321.373 15.9518V36.3174H342.642V15.9518H321.373Z" fill="#AAAAAA" mask="url(#path-9-inside-2_804_6228)"/>
<circle cx="406.771" cy="140.908" r="29.245" fill="black" stroke="#AAAAAA" stroke-width="10.6345"/>
<path d="M579.583 119.05C579.583 105.173 571.801 80.4027 566.614 70.0275C561.426 59.6523 553.645 59.6523 553.645 59.6523H167.17C167.17 59.6523 154.201 59.6523 154.201 72.6213V121.903C154.201 121.903 154.201 137.466 169.764 137.466H397.888C459.944 137.466 461.176 99.2723 496.452 93.5013C531.727 87.7303 545.021 108.999 550.338 116.975C555.655 124.951 558.314 132.927 566.29 132.927C574.266 132.927 579.583 132.927 579.583 119.05Z" fill="black" stroke="#AAAAAA" stroke-width="10.6345"/>
<mask id="path-13-inside-3_804_6228" fill="white">
<path fill-rule="evenodd" clip-rule="evenodd" d="M159.518 15.9518C159.518 7.14188 166.659 0 175.469 0H339.37H467.023H483.873C489.746 0 494.507 4.76125 494.507 10.6345C494.507 16.5078 489.746 21.2691 483.873 21.2691H482.975V36.3174V41.1116V62.2553H159.518V41.1116V36.3174V15.9518Z"/>
</mask>
<path fill-rule="evenodd" clip-rule="evenodd" d="M159.518 15.9518C159.518 7.14188 166.659 0 175.469 0H339.37H467.023H483.873C489.746 0 494.507 4.76125 494.507 10.6345C494.507 16.5078 489.746 21.2691 483.873 21.2691H482.975V36.3174V41.1116V62.2553H159.518V41.1116V36.3174V15.9518Z" fill="#AAAAAA"/>
<path d="M482.975 21.2691V15.9518H477.657V21.2691H482.975ZM482.975 62.2553V67.5725H488.292V62.2553H482.975ZM159.518 62.2553H154.2V67.5725H159.518V62.2553ZM175.469 -5.31727C163.723 -5.31727 154.2 4.20523 154.2 15.9518H164.835C164.835 10.0785 169.596 5.31727 175.469 5.31727V-5.31727ZM339.37 -5.31727H175.469V5.31727H339.37V-5.31727ZM339.37 5.31727H467.023V-5.31727H339.37V5.31727ZM467.023 5.31727H483.873V-5.31727H467.023V5.31727ZM483.873 5.31727C486.809 5.31727 489.19 7.6979 489.19 10.6345H499.825C499.825 1.82459 492.683 -5.31727 483.873 -5.31727V5.31727ZM489.19 10.6345C489.19 13.5712 486.809 15.9518 483.873 15.9518V26.5864C492.683 26.5864 499.825 19.4445 499.825 10.6345H489.19ZM483.873 15.9518H482.975V26.5864H483.873V15.9518ZM488.292 36.3174V21.2691H477.657V36.3174H488.292ZM488.292 41.1116V36.3174H477.657V41.1116H488.292ZM488.292 62.2553V41.1116H477.657V62.2553H488.292ZM159.518 67.5725H482.975V56.938H159.518V67.5725ZM154.2 41.1116V62.2553H164.835V41.1116H154.2ZM154.2 36.3174V41.1116H164.835V36.3174H154.2ZM154.2 15.9518V36.3174H164.835V15.9518H154.2Z" fill="#AAAAAA" mask="url(#path-13-inside-3_804_6228)"/>
<rect x="284.474" y="18.6098" width="31.9036" height="31.9036" rx="7.97591" fill="black" stroke="black" stroke-width="5.31727"/>
<rect x="183.446" y="18.6098" width="31.9036" height="31.9036" rx="7.97591" fill="black" stroke="black" stroke-width="5.31727"/>
<rect x="233.959" y="18.6098" width="31.9036" height="31.9036" rx="7.97591" fill="black" stroke="black" stroke-width="5.31727"/>
<rect x="334.989" y="18.6098" width="31.9036" height="31.9036" rx="7.97591" fill="black" stroke="black" stroke-width="5.31727"/>
<rect x="436.016" y="18.6098" width="31.9036" height="31.9036" rx="7.97591" fill="black" stroke="black" stroke-width="5.31727"/>
<rect x="385.502" y="18.6098" width="31.9036" height="31.9036" rx="7.97591" fill="black" stroke="black" stroke-width="5.31727"/>
<circle cx="499.824" cy="140.908" r="29.245" fill="black" stroke="#AAAAAA" stroke-width="10.6345"/>
<circle cx="263.205" cy="140.908" r="29.245" fill="black" stroke="#AAAAAA" stroke-width="10.6345"/>
<line x1="483.871" y1="18.6109" x2="611.486" y2="18.6109" stroke="#AAAAAA" stroke-width="5.31727"/>
<mask id="path-24-inside-4_804_6228" fill="white">
<path fill-rule="evenodd" clip-rule="evenodd" d="M555.986 59.1232C558.726 60.0993 562.822 62.5765 565.966 68.8637C571.153 79.2389 578.935 104.009 578.935 117.886C578.935 122.483 578.351 125.557 577.281 127.613H684.964C687.133 130.134 689.651 131.763 693.255 131.763C701.231 131.763 706.548 131.763 706.548 117.886C706.548 104.009 698.767 79.2386 693.579 68.8634C688.392 58.4883 680.611 58.4883 680.611 58.4883H552.996C552.996 58.4883 554.204 58.4883 555.986 59.1232Z"/>
</mask>
<path fill-rule="evenodd" clip-rule="evenodd" d="M555.986 59.1232C558.726 60.0993 562.822 62.5765 565.966 68.8637C571.153 79.2389 578.935 104.009 578.935 117.886C578.935 122.483 578.351 125.557 577.281 127.613H684.964C687.133 130.134 689.651 131.763 693.255 131.763C701.231 131.763 706.548 131.763 706.548 117.886C706.548 104.009 698.767 79.2386 693.579 68.8634C688.392 58.4883 680.611 58.4883 680.611 58.4883H552.996C552.996 58.4883 554.204 58.4883 555.986 59.1232Z" fill="black"/>
<path d="M565.966 68.8637L570.722 66.4857L565.966 68.8637ZM555.986 59.1232L554.202 64.132L554.202 64.1321L555.986 59.1232ZM577.281 127.613L572.565 125.158L568.518 132.93H577.281V127.613ZM684.964 127.613L688.995 124.146L687.404 122.296H684.964V127.613ZM570.722 66.4857C566.931 58.9046 561.732 55.5255 557.771 54.1143L554.202 64.1321C555.72 64.6731 558.713 66.2485 561.21 71.2417L570.722 66.4857ZM584.252 117.886C584.252 110.198 582.142 99.9666 579.514 90.6225C576.87 81.2177 573.52 72.0828 570.722 66.4857L561.21 71.2417C563.599 76.0198 566.734 84.4577 569.277 93.5012C571.837 102.605 573.617 111.698 573.617 117.886H584.252ZM581.997 130.069C583.657 126.88 584.252 122.783 584.252 117.886H573.617C573.617 122.184 573.045 124.234 572.565 125.158L581.997 130.069ZM684.964 122.296H577.281V132.93H684.964V122.296ZM693.255 126.446C691.642 126.446 690.483 125.875 688.995 124.146L680.933 131.08C683.783 134.394 687.66 137.08 693.255 137.08V126.446ZM701.231 117.886C701.231 124.57 699.861 125.656 699.714 125.766C699.551 125.887 699.131 126.124 697.992 126.276C696.793 126.436 695.346 126.446 693.255 126.446V137.08C695.153 137.08 697.361 137.09 699.402 136.816C701.504 136.535 703.908 135.904 706.071 134.291C710.577 130.931 711.866 125.079 711.866 117.886H701.231ZM688.824 71.2414C691.213 76.0195 694.348 84.4574 696.891 93.501C699.451 102.605 701.231 111.697 701.231 117.886H711.866C711.866 110.198 709.756 99.9663 707.128 90.6222C704.483 81.2175 701.134 72.0825 698.335 66.4855L688.824 71.2414ZM680.611 58.4883C680.611 63.8056 680.607 63.8056 680.604 63.8055C680.603 63.8055 680.599 63.8055 680.597 63.8055C680.593 63.8055 680.588 63.8055 680.584 63.8055C680.576 63.8054 680.568 63.8054 680.56 63.8053C680.545 63.8051 680.532 63.8049 680.52 63.8047C680.496 63.8042 680.479 63.8035 680.468 63.8031C680.446 63.8021 680.449 63.8017 680.474 63.804C680.523 63.8085 680.659 63.8234 680.865 63.8644C681.275 63.9465 681.952 64.1311 682.772 64.5411C684.336 65.3235 686.744 67.0828 688.824 71.2414L698.335 66.4855C695.227 60.2689 691.15 56.8407 687.528 55.0293C685.754 54.1423 684.161 53.6785 682.95 53.4364C682.345 53.3153 681.832 53.2491 681.436 53.2131C681.238 53.1951 681.069 53.1846 680.93 53.1786C680.861 53.1756 680.8 53.1737 680.746 53.1725C680.719 53.172 680.695 53.1716 680.672 53.1713C680.661 53.1712 680.65 53.1711 680.64 53.1711C680.635 53.1711 680.63 53.171 680.625 53.171C680.622 53.171 680.619 53.171 680.618 53.171C680.614 53.171 680.611 53.171 680.611 58.4883ZM552.996 63.8056H680.611V53.171H552.996V63.8056ZM557.771 54.1144C556.523 53.6696 555.44 53.4344 554.618 53.3101C554.207 53.248 553.859 53.2132 553.586 53.194C553.449 53.1844 553.331 53.1787 553.232 53.1753C553.183 53.1736 553.138 53.1726 553.099 53.1719C553.079 53.1716 553.061 53.1714 553.044 53.1712C553.035 53.1711 553.027 53.1711 553.019 53.1711C553.015 53.171 553.011 53.171 553.007 53.171C553.005 53.171 553.003 53.171 553.002 53.171C553.001 53.171 552.999 53.171 552.999 53.171C552.997 53.171 552.996 53.171 552.996 58.4883C552.996 63.8056 552.995 63.8056 552.993 63.8056C552.993 63.8056 552.992 63.8055 552.991 63.8055C552.989 63.8055 552.987 63.8055 552.985 63.8055C552.982 63.8055 552.978 63.8055 552.975 63.8055C552.968 63.8055 552.962 63.8054 552.956 63.8054C552.943 63.8053 552.932 63.8051 552.921 63.805C552.901 63.8046 552.884 63.8042 552.871 63.8037C552.845 63.8029 552.835 63.8021 552.84 63.8024C552.849 63.803 552.914 63.808 553.028 63.8251C553.256 63.8596 553.668 63.9419 554.202 64.132L557.771 54.1144Z" fill="#AAAAAA" mask="url(#path-24-inside-4_804_6228)"/>
<line x1="579.582" y1="127.614" x2="685.927" y2="127.614" stroke="#AAAAAA" stroke-width="10.6345"/>
</svg>
