<svg width="565" height="143" viewBox="0 0 565 143" fill="none" xmlns="http://www.w3.org/2000/svg">
<path d="M475.868 93.5013C511.143 87.7303 524.436 108.999 529.754 116.975C535.071 124.951 537.73 132.927 545.705 132.927C553.681 132.927 558.999 132.927 558.999 119.05C558.999 105.173 551.217 80.4027 546.03 70.0275C540.842 59.6523 533.061 59.6523 533.061 59.6523H146.586" stroke="#AAAAAA" stroke-width="10.6345"/>
<mask id="path-2-inside-1_907_4995" fill="white">
<path fill-rule="evenodd" clip-rule="evenodd" d="M183.807 15.9518C183.807 7.14188 190.949 0 199.758 0H343.647H447.984H460.627C467.968 0 473.92 5.95156 473.92 13.2932C473.92 19.4923 469.677 24.7003 463.936 26.1711V36.3174V41.1116V62.2553H183.807V41.1116V36.3174V15.9518Z"/>
</mask>
<path fill-rule="evenodd" clip-rule="evenodd" d="M183.807 15.9518C183.807 7.14188 190.949 0 199.758 0H343.647H447.984H460.627C467.968 0 473.92 5.95156 473.92 13.2932C473.92 19.4923 469.677 24.7003 463.936 26.1711V36.3174V41.1116V62.2553H183.807V41.1116V36.3174V15.9518Z" fill="black"/>
<path d="M463.936 26.1711L461.296 15.8694L453.301 17.9179V26.1711H463.936ZM463.936 62.2553V72.8898H474.571V62.2553H463.936ZM183.807 62.2553H173.172V72.8898H183.807V62.2553ZM199.758 -10.6345C185.075 -10.6345 173.172 1.26859 173.172 15.9518H194.441C194.441 13.0152 196.822 10.6345 199.758 10.6345V-10.6345ZM343.647 -10.6345H199.758V10.6345H343.647V-10.6345ZM343.647 10.6345H447.984V-10.6345H343.647V10.6345ZM447.984 10.6345H460.627V-10.6345H447.984V10.6345ZM460.627 10.6345C462.095 10.6345 463.285 11.8248 463.285 13.2932H484.554C484.554 0.078282 473.842 -10.6345 460.627 -10.6345V10.6345ZM463.285 13.2932C463.285 14.5185 462.447 15.5747 461.296 15.8694L466.576 36.4729C476.906 33.8259 484.554 24.4661 484.554 13.2932H463.285ZM474.571 36.3174V26.1711H453.301V36.3174H474.571ZM474.571 41.1116V36.3174H453.301V41.1116H474.571ZM474.571 62.2553V41.1116H453.301V62.2553H474.571ZM183.807 72.8898H463.936V51.6207H183.807V72.8898ZM173.172 41.1116V62.2553H194.441V41.1116H173.172ZM173.172 36.3174V41.1116H194.441V36.3174H173.172ZM173.172 15.9518V36.3174H194.441V15.9518H173.172Z" fill="#AAAAAA" mask="url(#path-2-inside-1_907_4995)"/>
<path d="M431.382 119.05C431.382 105.173 423.6 80.4027 418.413 70.0275C413.225 59.6523 405.444 59.6523 405.444 59.6523H18.969C18.969 59.6523 6 59.6523 6 72.6213V121.903C6 121.903 6 137.466 21.5627 137.466H249.687C311.743 137.466 312.975 99.2723 348.251 93.5013C383.526 87.7303 396.819 108.999 402.137 116.975C407.454 124.951 410.113 132.927 418.088 132.927C426.064 132.927 431.382 132.927 431.382 119.05Z" fill="black" stroke="#AAAAAA" stroke-width="10.6345"/>
<mask id="path-5-inside-2_907_4995" fill="white">
<path fill-rule="evenodd" clip-rule="evenodd" d="M11.3164 15.9518C11.3164 7.14188 18.4583 0 27.2682 0H191.169H318.822H335.672C341.545 0 346.306 4.76125 346.306 10.6345C346.306 16.5078 341.545 21.2691 335.672 21.2691H334.773V36.3174V41.1116V62.2553H11.3164V41.1116V36.3174V15.9518Z"/>
</mask>
<path fill-rule="evenodd" clip-rule="evenodd" d="M11.3164 15.9518C11.3164 7.14188 18.4583 0 27.2682 0H191.169H318.822H335.672C341.545 0 346.306 4.76125 346.306 10.6345C346.306 16.5078 341.545 21.2691 335.672 21.2691H334.773V36.3174V41.1116V62.2553H11.3164V41.1116V36.3174V15.9518Z" fill="#AAAAAA"/>
<path d="M334.773 21.2691V15.9518H329.456V21.2691H334.773ZM334.773 62.2553V67.5725H340.091V62.2553H334.773ZM11.3164 62.2553H5.99914V67.5725H11.3164V62.2553ZM27.2682 -5.31727C15.5216 -5.31727 5.99914 4.20523 5.99914 15.9518H16.6337C16.6337 10.0785 21.3949 5.31727 27.2682 5.31727V-5.31727ZM191.169 -5.31727H27.2682V5.31727H191.169V-5.31727ZM191.169 5.31727H318.822V-5.31727H191.169V5.31727ZM318.822 5.31727H335.672V-5.31727H318.822V5.31727ZM335.672 5.31727C338.608 5.31727 340.989 7.6979 340.989 10.6345H351.623C351.623 1.82459 344.481 -5.31727 335.672 -5.31727V5.31727ZM340.989 10.6345C340.989 13.5712 338.608 15.9518 335.672 15.9518V26.5864C344.481 26.5864 351.623 19.4445 351.623 10.6345H340.989ZM335.672 15.9518H334.773V26.5864H335.672V15.9518ZM340.091 36.3174V21.2691H329.456V36.3174H340.091ZM340.091 41.1116V36.3174H329.456V41.1116H340.091ZM340.091 62.2553V41.1116H329.456V62.2553H340.091ZM11.3164 67.5725H334.773V56.938H11.3164V67.5725ZM5.99914 41.1116V62.2553H16.6337V41.1116H5.99914ZM5.99914 36.3174V41.1116H16.6337V36.3174H5.99914ZM5.99914 15.9518V36.3174H16.6337V15.9518H5.99914Z" fill="#AAAAAA" mask="url(#path-5-inside-2_907_4995)"/>
<rect x="136.272" y="18.6098" width="31.9036" height="31.9036" rx="7.97591" fill="black" stroke="black" stroke-width="5.31727"/>
<rect x="35.2446" y="18.6098" width="31.9036" height="31.9036" rx="7.97591" fill="black" stroke="black" stroke-width="5.31727"/>
<rect x="85.7582" y="18.6098" width="31.9036" height="31.9036" rx="7.97591" fill="black" stroke="black" stroke-width="5.31727"/>
<rect x="186.788" y="18.6098" width="31.9036" height="31.9036" rx="7.97591" fill="black" stroke="black" stroke-width="5.31727"/>
<rect x="287.815" y="18.6098" width="31.9036" height="31.9036" rx="7.97591" fill="black" stroke="black" stroke-width="5.31727"/>
<rect x="237.301" y="18.6098" width="31.9036" height="31.9036" rx="7.97591" fill="black" stroke="black" stroke-width="5.31727"/>
<line x1="335.67" y1="18.6109" x2="463.284" y2="18.6109" stroke="#AAAAAA" stroke-width="5.31727"/>
<mask id="path-14-inside-3_907_4995" fill="white">
<path fill-rule="evenodd" clip-rule="evenodd" d="M407.785 59.1232C410.525 60.0993 414.621 62.5765 417.765 68.8637C422.952 79.2389 430.734 104.009 430.734 117.886C430.734 122.483 430.15 125.557 429.08 127.613H536.763C538.932 130.134 541.45 131.763 545.054 131.763C553.03 131.763 558.347 131.763 558.347 117.886C558.347 104.009 550.566 79.2386 545.378 68.8634C540.191 58.4883 532.409 58.4883 532.409 58.4883H404.795C404.795 58.4883 406.003 58.4883 407.785 59.1232Z"/>
</mask>
<path fill-rule="evenodd" clip-rule="evenodd" d="M407.785 59.1232C410.525 60.0993 414.621 62.5765 417.765 68.8637C422.952 79.2389 430.734 104.009 430.734 117.886C430.734 122.483 430.15 125.557 429.08 127.613H536.763C538.932 130.134 541.45 131.763 545.054 131.763C553.03 131.763 558.347 131.763 558.347 117.886C558.347 104.009 550.566 79.2386 545.378 68.8634C540.191 58.4883 532.409 58.4883 532.409 58.4883H404.795C404.795 58.4883 406.003 58.4883 407.785 59.1232Z" fill="black"/>
<path d="M417.765 68.8637L422.52 66.4857L417.765 68.8637ZM407.785 59.1232L406 64.132L406.001 64.1321L407.785 59.1232ZM429.08 127.613L424.363 125.158L420.317 132.93H429.08V127.613ZM536.763 127.613L540.794 124.146L539.203 122.296H536.763V127.613ZM422.52 66.4857C418.73 58.9046 413.531 55.5255 409.57 54.1143L406.001 64.1321C407.519 64.6731 410.512 66.2485 413.009 71.2417L422.52 66.4857ZM436.051 117.886C436.051 110.198 433.941 99.9666 431.313 90.6225C428.669 81.2177 425.319 72.0828 422.52 66.4857L413.009 71.2417C415.398 76.0198 418.533 84.4577 421.076 93.5012C423.636 102.605 425.416 111.698 425.416 117.886H436.051ZM433.796 130.069C435.456 126.88 436.051 122.783 436.051 117.886H425.416C425.416 122.184 424.844 124.234 424.363 125.158L433.796 130.069ZM536.763 122.296H429.08V132.93H536.763V122.296ZM545.054 126.446C543.441 126.446 542.282 125.875 540.794 124.146L532.732 131.08C535.581 134.394 539.459 137.08 545.054 137.08V126.446ZM553.03 117.886C553.03 124.57 551.66 125.656 551.513 125.766C551.35 125.887 550.929 126.124 549.791 126.276C548.592 126.436 547.145 126.446 545.054 126.446V137.08C546.951 137.08 549.16 137.09 551.201 136.816C553.303 136.535 555.707 135.904 557.87 134.291C562.376 130.931 563.665 125.079 563.665 117.886H553.03ZM540.622 71.2414C543.011 76.0195 546.146 84.4574 548.689 93.501C551.249 102.605 553.03 111.697 553.03 117.886H563.665C563.665 110.198 561.554 99.9663 558.927 90.6222C556.282 81.2175 552.933 72.0825 550.134 66.4855L540.622 71.2414ZM532.409 58.4883C532.409 63.8056 532.406 63.8056 532.403 63.8055C532.401 63.8055 532.398 63.8055 532.396 63.8055C532.391 63.8055 532.387 63.8055 532.383 63.8055C532.375 63.8054 532.367 63.8054 532.359 63.8053C532.344 63.8051 532.331 63.8049 532.319 63.8047C532.295 63.8042 532.278 63.8035 532.267 63.8031C532.245 63.8021 532.248 63.8017 532.272 63.804C532.322 63.8085 532.458 63.8234 532.663 63.8644C533.074 63.9465 533.751 64.1311 534.571 64.5411C536.135 65.3235 538.543 67.0828 540.622 71.2414L550.134 66.4855C547.026 60.2689 542.949 56.8407 539.326 55.0293C537.553 54.1423 535.96 53.6785 534.749 53.4364C534.144 53.3153 533.631 53.2491 533.235 53.2131C533.037 53.1951 532.867 53.1846 532.729 53.1786C532.66 53.1756 532.598 53.1737 532.545 53.1725C532.518 53.172 532.494 53.1716 532.471 53.1713C532.46 53.1712 532.449 53.1711 532.439 53.1711C532.434 53.1711 532.429 53.171 532.424 53.171C532.421 53.171 532.418 53.171 532.416 53.171C532.413 53.171 532.409 53.171 532.409 58.4883ZM404.795 63.8056H532.409V53.171H404.795V63.8056ZM409.57 54.1144C408.322 53.6696 407.239 53.4344 406.417 53.3101C406.006 53.248 405.658 53.2132 405.384 53.194C405.248 53.1844 405.129 53.1787 405.031 53.1753C404.981 53.1736 404.937 53.1726 404.898 53.1719C404.878 53.1716 404.86 53.1714 404.842 53.1712C404.834 53.1711 404.826 53.1711 404.818 53.1711C404.814 53.171 404.81 53.171 404.806 53.171C404.804 53.171 404.802 53.171 404.8 53.171C404.8 53.171 404.798 53.171 404.798 53.171C404.796 53.171 404.795 53.171 404.795 58.4883C404.795 63.8056 404.794 63.8056 404.792 63.8056C404.792 63.8056 404.79 63.8055 404.79 63.8055C404.788 63.8055 404.786 63.8055 404.784 63.8055C404.781 63.8055 404.777 63.8055 404.774 63.8055C404.767 63.8055 404.761 63.8054 404.754 63.8054C404.742 63.8053 404.731 63.8051 404.72 63.805C404.699 63.8046 404.683 63.8042 404.67 63.8037C404.644 63.8029 404.634 63.8021 404.639 63.8024C404.648 63.803 404.713 63.808 404.827 63.8251C405.055 63.8596 405.467 63.9419 406 64.132L409.57 54.1144Z" fill="#AAAAAA" mask="url(#path-14-inside-3_907_4995)"/>
<line x1="431.381" y1="127.614" x2="537.726" y2="127.614" stroke="#AAAAAA" stroke-width="10.6345"/>
</svg>
