<svg width="1052" height="259" viewBox="0 0 1052 259" fill="none" xmlns="http://www.w3.org/2000/svg">
<mask id="path-1-inside-1_928_12573" fill="white">
<path fill-rule="evenodd" clip-rule="evenodd" d="M112.768 230.951C102.034 236.658 89.7837 239.891 76.7787 239.891C34.375 239.891 0 205.516 0 163.113C0 120.709 34.375 86.334 76.7787 86.334C116.35 86.334 148.93 116.27 153.105 154.731C177.237 156.67 196.216 176.868 196.216 201.499C196.216 227.413 175.209 248.42 149.296 248.42C134.537 248.42 121.369 241.605 112.768 230.951Z"/>
</mask>
<path fill-rule="evenodd" clip-rule="evenodd" d="M112.768 230.951C102.034 236.658 89.7837 239.891 76.7787 239.891C34.375 239.891 0 205.516 0 163.113C0 120.709 34.375 86.334 76.7787 86.334C116.35 86.334 148.93 116.27 153.105 154.731C177.237 156.67 196.216 176.868 196.216 201.499C196.216 227.413 175.209 248.42 149.296 248.42C134.537 248.42 121.369 241.605 112.768 230.951Z" fill="#006FFF"/>
<path d="M112.768 230.951L124.982 221.091L116.842 211.008L105.4 217.091L112.768 230.951ZM153.105 154.731L137.5 156.426L138.902 169.338L151.848 170.378L153.105 154.731ZM105.4 217.091C96.8787 221.621 87.1524 224.194 76.7787 224.194V255.588C92.415 255.588 107.188 251.695 120.136 244.811L105.4 217.091ZM76.7787 224.194C43.0442 224.194 15.697 196.847 15.697 163.113H-15.697C-15.697 214.186 25.7058 255.588 76.7787 255.588V224.194ZM15.697 163.113C15.697 129.378 43.0442 102.031 76.7787 102.031V70.637C25.7058 70.637 -15.697 112.04 -15.697 163.113H15.697ZM76.7787 102.031C108.25 102.031 134.18 125.844 137.5 156.426L168.71 153.037C163.679 106.696 124.451 70.637 76.7787 70.637V102.031ZM151.848 170.378C167.89 171.667 180.519 185.116 180.519 201.499H211.913C211.913 168.621 186.583 141.674 154.362 139.085L151.848 170.378ZM180.519 201.499C180.519 218.743 166.54 232.723 149.296 232.723V264.117C183.878 264.117 211.913 236.082 211.913 201.499H180.519ZM149.296 232.723C139.481 232.723 130.731 228.212 124.982 221.091L100.555 240.811C112.008 254.998 129.592 264.117 149.296 264.117V232.723Z" fill="#AAAAAA" mask="url(#path-1-inside-1_928_12573)"/>
<circle cx="937.894" cy="207.985" r="43.1667" fill="#006FFF" stroke="#AAAAAA" stroke-width="15.697"/>
<circle cx="749.531" cy="207.985" r="43.1667" fill="#006FFF" stroke="#AAAAAA" stroke-width="15.697"/>
<circle cx="580.788" cy="207.985" r="43.1667" fill="#006FFF" stroke="#AAAAAA" stroke-width="15.697"/>
<circle cx="368.878" cy="207.985" r="43.1667" fill="#006FFF" stroke="#AAAAAA" stroke-width="15.697"/>
<path d="M921.147 138.02C973.215 129.502 992.836 160.896 1000.68 172.668C1008.53 184.441 1012.46 196.214 1024.23 196.214C1036 196.214 1043.85 196.214 1043.85 175.731C1043.85 155.248 1032.37 118.686 1024.71 103.372C1017.05 88.0576 1005.57 88.0576 1005.57 88.0576H435.115" stroke="#AAAAAA" stroke-width="15.697"/>
<circle cx="926.122" cy="207.985" r="43.1667" fill="#AAAAAA" stroke="#006FFF" stroke-width="15.697"/>
<mask id="path-9-inside-2_928_12573" fill="white">
<path fill-rule="evenodd" clip-rule="evenodd" d="M490.056 23.5455C490.056 10.5417 500.597 0 513.601 0H725.985H879.991H898.652C909.489 0 918.273 8.78471 918.273 19.6212C918.273 28.7713 912.01 36.4585 903.537 38.6296V45.7496V60.6822V84.0349H883.018C882.027 84.1621 881.017 84.2276 879.991 84.2276H513.601C512.576 84.2276 511.565 84.1621 510.574 84.0349H490.056V60.6822V45.7496V23.5455Z"/>
</mask>
<path fill-rule="evenodd" clip-rule="evenodd" d="M490.056 23.5455C490.056 10.5417 500.597 0 513.601 0H725.985H879.991H898.652C909.489 0 918.273 8.78471 918.273 19.6212C918.273 28.7713 912.01 36.4585 903.537 38.6296V45.7496V60.6822V84.0349H883.018C882.027 84.1621 881.017 84.2276 879.991 84.2276H513.601C512.576 84.2276 511.565 84.1621 510.574 84.0349H490.056V60.6822V45.7496V23.5455Z" fill="#006FFF"/>
<path d="M903.537 38.6296L899.641 23.4238L887.84 26.4474V38.6296H903.537ZM903.537 84.0349V99.7319H919.234V84.0349H903.537ZM883.018 84.0349V68.3379H882.015L881.02 68.4656L883.018 84.0349ZM510.574 84.0349L512.572 68.4656L511.577 68.3379H510.574V84.0349ZM490.056 84.0349H474.359V99.7319H490.056V84.0349ZM513.601 -15.697C491.928 -15.697 474.359 1.87251 474.359 23.5455H505.753C505.753 19.2109 509.267 15.697 513.601 15.697V-15.697ZM725.985 -15.697H513.601V15.697H725.985V-15.697ZM725.985 15.697H879.991V-15.697H725.985V15.697ZM879.991 15.697H898.652V-15.697H879.991V15.697ZM898.652 15.697C900.819 15.697 902.576 17.4539 902.576 19.6212H933.97C933.97 0.115509 918.158 -15.697 898.652 -15.697V15.697ZM902.576 19.6212C902.576 21.4298 901.339 22.9888 899.641 23.4238L907.433 53.8353C922.681 49.9283 933.97 36.1129 933.97 19.6212H902.576ZM919.234 45.7496V38.6296H887.84V45.7496H919.234ZM919.234 60.6822V45.7496H887.84V60.6822H919.234ZM919.234 84.0349V60.6822H887.84V84.0349H919.234ZM883.018 99.7319H903.537V68.3379H883.018V99.7319ZM879.991 99.9246C881.687 99.9246 883.364 99.8162 885.016 99.6042L881.02 68.4656C880.69 68.508 880.347 68.5307 879.991 68.5307V99.9246ZM513.601 99.9246H879.991V68.5307H513.601V99.9246ZM508.576 99.6042C510.228 99.8162 511.906 99.9246 513.601 99.9246V68.5307C513.245 68.5307 512.902 68.508 512.572 68.4656L508.576 99.6042ZM490.056 99.7319H510.574V68.3379H490.056V99.7319ZM474.359 60.6822V84.0349H505.753V60.6822H474.359ZM474.359 45.7496V60.6822H505.753V45.7496H474.359ZM474.359 23.5455V45.7496H505.753V23.5455H474.359Z" fill="#AAAAAA" mask="url(#path-9-inside-2_928_12573)"/>
<circle cx="569.015" cy="207.985" r="43.1667" fill="#AAAAAA" stroke="#006FFF" stroke-width="15.697"/>
<mask id="path-12-inside-3_928_12573" fill="white">
<path fill-rule="evenodd" clip-rule="evenodd" d="M235.455 23.5455C235.455 10.5417 245.997 0 259.001 0H500.924H690.667H714.215C722.884 0 729.912 7.02777 729.912 15.697C729.912 24.3662 722.884 31.3939 714.215 31.3939H714.213V102.03C714.213 115.034 703.671 125.576 690.667 125.576H259.001C245.997 125.576 235.455 115.034 235.455 102.03V91.8834V53.5981V23.5455Z"/>
</mask>
<path fill-rule="evenodd" clip-rule="evenodd" d="M235.455 23.5455C235.455 10.5417 245.997 0 259.001 0H500.924H690.667H714.215C722.884 0 729.912 7.02777 729.912 15.697C729.912 24.3662 722.884 31.3939 714.215 31.3939H714.213V102.03C714.213 115.034 703.671 125.576 690.667 125.576H259.001C245.997 125.576 235.455 115.034 235.455 102.03V91.8834V53.5981V23.5455Z" fill="#006FFF"/>
<path d="M714.213 31.3939V15.697H698.516V31.3939H714.213ZM259.001 -15.697C237.328 -15.697 219.758 1.87249 219.758 23.5455H251.152C251.152 19.2109 254.666 15.697 259.001 15.697V-15.697ZM500.924 -15.697H259.001V15.697H500.924V-15.697ZM500.924 15.697H690.667V-15.697H500.924V15.697ZM690.667 15.697H714.215V-15.697H690.667V15.697ZM714.215 15.697H714.215H745.609C745.609 -1.64141 731.553 -15.697 714.215 -15.697V15.697ZM714.215 15.697H714.215V47.0909C731.553 47.0909 745.609 33.0354 745.609 15.697H714.215ZM714.215 15.697H714.213V47.0909H714.215V15.697ZM729.91 102.03V31.3939H698.516V102.03H729.91ZM690.667 141.273C712.34 141.273 729.91 123.703 729.91 102.03H698.516C698.516 106.365 695.002 109.879 690.667 109.879V141.273ZM259.001 141.273H690.667V109.879H259.001V141.273ZM219.758 102.03C219.758 123.703 237.327 141.273 259.001 141.273V109.879C254.666 109.879 251.152 106.365 251.152 102.03H219.758ZM219.758 91.8834V102.03H251.152V91.8834H219.758ZM219.758 53.5981V91.8834H251.152V53.5981H219.758ZM219.758 23.5455V53.5981H251.152V23.5455H219.758Z" fill="#AAAAAA" mask="url(#path-12-inside-3_928_12573)"/>
<circle cx="737.757" cy="207.985" r="43.1667" fill="#AAAAAA" stroke="#006FFF" stroke-width="15.697"/>
<line x1="714.212" y1="27.4693" x2="902.576" y2="27.4693" stroke="#AAAAAA" stroke-width="7.84848"/>
<mask id="path-16-inside-4_928_12573" fill="white">
<path fill-rule="evenodd" clip-rule="evenodd" d="M823.665 88.6267C819.698 86.4528 816.581 86.3399 816.268 86.334H1004.61C1004.61 86.334 1016.09 86.334 1023.75 101.648C1031.41 116.962 1042.89 153.524 1042.89 174.007C1042.89 194.49 1035.04 194.49 1023.27 194.49C1017.95 194.49 1014.23 192.086 1011.03 188.364H852.086C853.666 185.33 854.527 180.792 854.527 174.007C854.527 161.127 849.986 141.89 844.711 125.576H844.711C841.597 115.945 838.227 107.333 835.385 101.648C831.794 94.4657 827.36 90.6519 823.665 88.6267Z"/>
</mask>
<path fill-rule="evenodd" clip-rule="evenodd" d="M823.665 88.6267C819.698 86.4528 816.581 86.3399 816.268 86.334H1004.61C1004.61 86.334 1016.09 86.334 1023.75 101.648C1031.41 116.962 1042.89 153.524 1042.89 174.007C1042.89 194.49 1035.04 194.49 1023.27 194.49C1017.95 194.49 1014.23 192.086 1011.03 188.364H852.086C853.666 185.33 854.527 180.792 854.527 174.007C854.527 161.127 849.986 141.89 844.711 125.576H844.711C841.597 115.945 838.227 107.333 835.385 101.648C831.794 94.4657 827.36 90.6519 823.665 88.6267Z" fill="#AAAAAA"/>
<path d="M823.665 88.6267L819.893 95.5095L819.893 95.5096L823.665 88.6267ZM816.268 86.334V78.4855L816.121 94.1811L816.268 86.334ZM1023.75 101.648L1030.77 98.1382L1023.75 101.648ZM1011.03 188.364L1016.98 183.246L1014.63 180.515H1011.03V188.364ZM852.086 188.364L845.124 184.74L839.151 196.212H852.086V188.364ZM844.711 125.576V117.728H833.924L837.243 127.991L844.711 125.576ZM844.711 125.576V133.425H855.497L852.179 123.161L844.711 125.576ZM835.385 101.648L828.365 105.158L828.365 105.158L835.385 101.648ZM827.437 81.744C822.049 78.7917 817.591 78.5089 816.415 78.4869L816.121 94.1811C815.57 94.1708 817.346 94.114 819.893 95.5095L827.437 81.744ZM816.268 94.1825H1004.61V78.4855H816.268V94.1825ZM1004.61 86.334C1004.61 94.1825 1004.6 94.1825 1004.6 94.1825C1004.59 94.1825 1004.59 94.1825 1004.59 94.1824C1004.58 94.1824 1004.57 94.1824 1004.57 94.1824C1004.55 94.1823 1004.54 94.1822 1004.53 94.1821C1004.51 94.1819 1004.49 94.1815 1004.47 94.1812C1004.44 94.1804 1004.41 94.1795 1004.4 94.1788C1004.36 94.1774 1004.37 94.1768 1004.4 94.1801C1004.48 94.1868 1004.68 94.2088 1004.98 94.2693C1005.59 94.3906 1006.59 94.663 1007.8 95.2681C1010.11 96.423 1013.66 99.0199 1016.73 105.158L1030.77 98.1382C1026.18 88.9622 1020.16 83.9021 1014.82 81.2284C1012.2 79.9192 1009.85 79.2345 1008.06 78.8772C1007.17 78.6985 1006.41 78.6008 1005.82 78.5476C1005.53 78.521 1005.28 78.5055 1005.08 78.4966C1004.98 78.4922 1004.88 78.4894 1004.81 78.4877C1004.77 78.4869 1004.73 78.4863 1004.7 78.486C1004.68 78.4858 1004.66 78.4857 1004.65 78.4856C1004.64 78.4856 1004.63 78.4855 1004.63 78.4855C1004.62 78.4855 1004.62 78.4855 1004.62 78.4855C1004.61 78.4855 1004.61 78.4855 1004.61 86.334ZM1016.73 105.158C1020.25 112.211 1024.88 124.665 1028.64 138.014C1032.41 151.452 1035.04 164.872 1035.04 174.007H1050.74C1050.74 162.659 1047.62 147.557 1043.75 133.765C1039.84 119.883 1034.9 106.4 1030.77 98.1382L1016.73 105.158ZM1035.04 174.007C1035.04 183.873 1033.02 185.477 1032.8 185.638C1032.56 185.818 1031.94 186.166 1030.26 186.391C1028.49 186.628 1026.36 186.642 1023.27 186.642V202.339C1026.07 202.339 1029.33 202.352 1032.34 201.949C1035.45 201.534 1038.99 200.602 1042.19 198.222C1048.84 193.262 1050.74 184.625 1050.74 174.007H1035.04ZM1023.27 186.642C1020.89 186.642 1019.18 185.799 1016.98 183.246L1005.08 193.482C1009.29 198.373 1015.01 202.339 1023.27 202.339V186.642ZM1011.03 180.515H852.086V196.212H1011.03V180.515ZM859.047 191.988C861.497 187.283 862.375 181.234 862.375 174.007H846.678C846.678 180.35 845.834 183.376 845.124 184.74L859.047 191.988ZM862.375 174.007C862.375 159.843 857.505 139.636 852.178 123.161L837.243 127.991C842.466 144.145 846.678 162.412 846.678 174.007H862.375ZM844.711 133.425H844.711V117.728H844.711V133.425ZM852.179 123.161C849.001 113.334 845.492 104.312 842.405 98.1382L828.365 105.158C830.963 110.354 834.193 118.557 837.243 127.991L852.179 123.161ZM842.405 98.1382C838.108 89.5452 832.55 84.5463 827.436 81.7439L819.893 95.5096C822.17 96.7575 825.479 99.3862 828.365 105.158L842.405 98.1382Z" fill="#AAAAAA" mask="url(#path-16-inside-4_928_12573)"/>
<line x1="855.484" y1="188.364" x2="1012.45" y2="188.364" stroke="#AAAAAA" stroke-width="15.697"/>
<path d="M863.333 181.788C863.333 159.09 855.291 128.97 847.249 111.576C839.207 94.1816 819.101 94.1816 819.101 94.1816H231.524C231.524 94.1816 211.909 94.1816 211.909 115.394V186.454C211.909 186.454 211.909 211.909 235.448 211.909H580.481C674.34 211.909 672.182 147.53 729.557 140C786.932 132.47 811.059 165.349 819.101 178.394C827.143 191.439 831.164 204.485 843.228 204.485C855.291 204.485 863.333 204.485 863.333 181.788Z" fill="#AAAAAA" stroke="#006FFF" stroke-width="15.697"/>
<rect x="415.97" y="31.394" width="47.0909" height="47.0909" rx="11.7727" fill="#006FFF" stroke="#AAAAAA" stroke-width="7.84848"/>
<rect x="274.698" y="31.394" width="47.0909" height="47.0909" rx="11.7727" fill="#006FFF" stroke="#AAAAAA" stroke-width="7.84848"/>
<rect x="345.334" y="31.394" width="47.0909" height="47.0909" rx="11.7727" fill="#006FFF" stroke="#AAAAAA" stroke-width="7.84848"/>
<rect x="486.607" y="31.394" width="47.0909" height="47.0909" rx="11.7727" fill="#006FFF" stroke="#AAAAAA" stroke-width="7.84848"/>
<rect x="627.879" y="31.394" width="47.0909" height="47.0909" rx="11.7727" fill="#006FFF" stroke="#AAAAAA" stroke-width="7.84848"/>
<rect x="557.244" y="31.394" width="47.0909" height="47.0909" rx="11.7727" fill="#006FFF" stroke="#AAAAAA" stroke-width="7.84848"/>
<circle cx="357.106" cy="207.985" r="43.1667" fill="#AAAAAA" stroke="#006FFF" stroke-width="15.697"/>
</svg>
