<svg width="1105" height="471" viewBox="0 0 1105 471" fill="none" xmlns="http://www.w3.org/2000/svg">
<path fill-rule="evenodd" clip-rule="evenodd" d="M470.129 166.261C436.543 192.911 436.543 231.218 436.543 231.218V238.734H765.682H769.04H1098.18V231.218C1098.18 231.218 1098.18 192.911 1064.59 166.261C1031.18 139.751 981.156 122.954 769.04 122.779V122.777C768.479 122.777 767.92 122.777 767.361 122.778C766.802 122.777 766.242 122.777 765.682 122.777V122.779C553.566 122.954 503.538 139.751 470.129 166.261Z" fill="black"/>
<path d="M470.129 166.261L465.889 160.918L470.129 166.261ZM436.543 238.734H429.722V245.555H436.543V238.734ZM1098.18 238.734V245.555H1105V238.734H1098.18ZM1064.59 166.261L1068.83 160.918V160.918L1064.59 166.261ZM769.04 122.779H762.219V129.594L769.035 129.6L769.04 122.779ZM769.04 122.777H775.861V115.956H769.04V122.777ZM767.361 122.778L767.358 129.599L767.364 129.599L767.361 122.778ZM765.682 122.777V115.956H758.861V122.777H765.682ZM765.682 122.779L765.687 129.6L772.503 129.594V122.779H765.682ZM436.543 231.218C443.364 231.218 443.364 231.221 443.364 231.224C443.364 231.224 443.364 231.227 443.364 231.228C443.364 231.231 443.364 231.233 443.364 231.235C443.364 231.238 443.364 231.239 443.364 231.238C443.364 231.235 443.364 231.223 443.364 231.203C443.365 231.162 443.366 231.086 443.369 230.976C443.376 230.757 443.389 230.403 443.417 229.926C443.474 228.973 443.591 227.533 443.831 225.702C444.311 222.034 445.28 216.831 447.228 210.843C451.121 198.871 458.874 183.899 474.368 171.604L465.889 160.918C447.797 175.273 438.757 192.779 434.255 206.624C432.004 213.543 430.874 219.584 430.304 223.931C430.019 226.107 429.874 227.868 429.8 229.114C429.763 229.737 429.743 230.232 429.733 230.587C429.728 230.764 429.725 230.907 429.724 231.012C429.723 231.065 429.723 231.109 429.722 231.143C429.722 231.161 429.722 231.175 429.722 231.188C429.722 231.194 429.722 231.2 429.722 231.205C429.722 231.207 429.722 231.211 429.722 231.212C429.722 231.215 429.722 231.218 436.543 231.218ZM443.364 238.734V231.218H429.722V238.734H443.364ZM765.682 231.913H436.543V245.555H765.682V231.913ZM765.682 245.555H769.04V231.913H765.682V245.555ZM769.04 245.555H1098.18V231.913H769.04V245.555ZM1105 238.734V231.218H1091.36V238.734H1105ZM1098.18 231.218C1105 231.218 1105 231.215 1105 231.212C1105 231.211 1105 231.207 1105 231.205C1105 231.2 1105 231.194 1105 231.188C1105 231.175 1105 231.161 1105 231.143C1105 231.109 1105 231.065 1105 231.012C1105 230.907 1104.99 230.764 1104.99 230.587C1104.98 230.232 1104.96 229.737 1104.92 229.114C1104.85 227.868 1104.7 226.107 1104.42 223.931C1103.85 219.584 1102.72 213.543 1100.47 206.624C1095.96 192.779 1086.92 175.273 1068.83 160.918L1060.35 171.604C1075.85 183.899 1083.6 198.871 1087.49 210.843C1089.44 216.831 1090.41 222.034 1090.89 225.702C1091.13 227.533 1091.25 228.973 1091.3 229.926C1091.33 230.403 1091.35 230.757 1091.35 230.976C1091.36 231.086 1091.36 231.162 1091.36 231.203C1091.36 231.223 1091.36 231.235 1091.36 231.238C1091.36 231.239 1091.36 231.238 1091.36 231.235C1091.36 231.233 1091.36 231.231 1091.36 231.228C1091.36 231.227 1091.36 231.224 1091.36 231.224C1091.36 231.221 1091.36 231.218 1098.18 231.218ZM1068.83 160.918C1033.28 132.708 980.768 116.132 769.046 115.958L769.035 129.6C981.543 129.775 1029.09 146.794 1060.35 171.604L1068.83 160.918ZM762.219 122.777V122.779H775.861V122.777H762.219ZM767.364 129.599C767.921 129.598 768.48 129.598 769.04 129.598V115.956C768.478 115.956 767.918 115.956 767.358 115.957L767.364 129.599ZM767.364 115.957C766.804 115.956 766.243 115.956 765.682 115.956V129.598C766.242 129.598 766.8 129.598 767.358 129.599L767.364 115.957ZM758.861 122.777V122.779H772.503V122.777H758.861ZM474.368 171.604C505.636 146.794 553.179 129.775 765.687 129.6L765.676 115.958C553.954 116.132 501.44 132.708 465.889 160.918L474.368 171.604Z" fill="#DDDDDD"/>
<circle cx="991.633" cy="412.67" r="51.1574" fill="black" stroke="#DDDDDD" stroke-width="13.642"/>
<circle cx="978.813" cy="412.67" r="51.1574" fill="black" stroke="#DDDDDD" stroke-width="13.642"/>
<mask id="path-5-inside-1_934_8646" fill="white">
<path fill-rule="evenodd" clip-rule="evenodd" d="M409.258 245.557V388.805C409.258 407.641 424.527 422.91 443.363 422.91H1070.89C1089.73 422.91 1105 407.641 1105 388.805V245.557H409.258Z"/>
</mask>
<path fill-rule="evenodd" clip-rule="evenodd" d="M409.258 245.557V388.805C409.258 407.641 424.527 422.91 443.363 422.91H1070.89C1089.73 422.91 1105 407.641 1105 388.805V245.557H409.258Z" fill="#DDDDDD"/>
<path d="M409.258 245.557V231.915H395.616V245.557H409.258ZM1105 245.557H1118.64V231.915H1105V245.557ZM422.9 388.805V245.557H395.616V388.805H422.9ZM443.363 409.268C432.061 409.268 422.9 400.107 422.9 388.805H395.616C395.616 415.175 416.993 436.552 443.363 436.552V409.268ZM1070.89 409.268H443.363V436.552H1070.89V409.268ZM1091.36 388.805C1091.36 400.107 1082.2 409.268 1070.89 409.268V436.552C1097.26 436.552 1118.64 415.175 1118.64 388.805H1091.36ZM1091.36 245.557V388.805H1118.64V245.557H1091.36ZM1105 231.915H409.258V259.199H1105V231.915Z" fill="#DDDDDD" mask="url(#path-5-inside-1_934_8646)"/>
<circle cx="616.479" cy="412.67" r="51.1574" fill="black" stroke="#DDDDDD" stroke-width="13.642"/>
<circle cx="603.659" cy="412.67" r="51.1574" fill="black" stroke="#DDDDDD" stroke-width="13.642"/>
<rect x="323.996" y="153.473" width="75.0309" height="231.914" rx="10.2315" fill="black" stroke="#DDDDDD" stroke-width="6.82099"/>
<path d="M904.604 221.261L901.22 221.682C904.604 221.261 904.604 221.261 904.604 221.26L904.604 221.259L904.603 221.256L904.602 221.248L904.599 221.225L904.589 221.149C904.581 221.085 904.568 220.996 904.552 220.881C904.519 220.651 904.469 220.321 904.398 219.897C904.257 219.05 904.035 217.826 903.704 216.279C903.043 213.187 901.946 208.801 900.196 203.551C900.02 203.023 899.839 202.489 899.656 201.948C898.92 199.774 898.151 197.503 897.541 195.182C896.776 192.276 896.354 189.619 896.524 187.413C896.687 185.287 897.369 183.833 898.619 182.827C899.961 181.747 902.483 180.756 907.192 180.756H1036.79C1050.83 180.756 1057.86 189.519 1064.65 199.7C1067.92 204.605 1071.9 212.657 1072.92 219.223C1073.44 222.543 1073.1 224.85 1072.24 226.215C1071.55 227.319 1070.08 228.503 1066.29 228.503H914.013C907.653 228.503 905.814 226.345 905.179 225.173C904.78 224.437 904.626 223.666 904.582 223.044C904.561 222.74 904.568 222.495 904.578 222.344C904.583 222.273 904.588 222.225 904.59 222.204L904.665 221.753L904.604 221.261Z" stroke="#DDDDDD" stroke-width="6.82099"/>
<mask id="path-11-inside-2_934_8646" fill="white">
<path fill-rule="evenodd" clip-rule="evenodd" d="M98.0049 405.345C88.6756 410.304 78.0295 413.114 66.7271 413.114C29.8747 413.114 0 383.24 0 346.387C0 309.535 29.8747 279.66 66.7271 279.66C101.118 279.66 129.432 305.677 133.061 339.103C154.034 340.788 170.528 358.342 170.528 379.748C170.528 402.269 152.271 420.526 129.75 420.526C116.924 420.526 105.48 414.604 98.0049 405.345Z"/>
</mask>
<path fill-rule="evenodd" clip-rule="evenodd" d="M98.0049 405.345C88.6756 410.304 78.0295 413.114 66.7271 413.114C29.8747 413.114 0 383.24 0 346.387C0 309.535 29.8747 279.66 66.7271 279.66C101.118 279.66 129.432 305.677 133.061 339.103C154.034 340.788 170.528 358.342 170.528 379.748C170.528 402.269 152.271 420.526 129.75 420.526C116.924 420.526 105.48 414.604 98.0049 405.345Z" fill="black"/>
<path d="M98.0049 405.345L108.62 396.775L101.545 388.013L91.6012 393.299L98.0049 405.345ZM133.061 339.103L119.499 340.576L120.717 351.797L131.968 352.701L133.061 339.103ZM91.6012 393.299C84.1957 397.236 75.7427 399.472 66.7271 399.472V426.756C80.3163 426.756 93.1556 423.372 104.409 417.39L91.6012 393.299ZM66.7271 399.472C37.409 399.472 13.642 375.705 13.642 346.387H-13.642C-13.642 390.774 22.3405 426.756 66.7271 426.756V399.472ZM13.642 346.387C13.642 317.069 37.409 293.302 66.7271 293.302V266.018C22.3405 266.018 -13.642 302.001 -13.642 346.387H13.642ZM66.7271 293.302C94.078 293.302 116.613 313.998 119.499 340.576L146.623 337.631C142.251 297.357 108.158 266.018 66.7271 266.018V293.302ZM131.968 352.701C145.911 353.822 156.886 365.51 156.886 379.748H184.17C184.17 351.174 162.157 327.755 134.154 325.505L131.968 352.701ZM156.886 379.748C156.886 394.735 144.737 406.884 129.75 406.884V434.168C159.805 434.168 184.17 409.804 184.17 379.748H156.886ZM129.75 406.884C121.22 406.884 113.616 402.964 108.62 396.775L87.3903 413.914C97.3439 426.243 112.627 434.168 129.75 434.168V406.884Z" fill="#DDDDDD" mask="url(#path-11-inside-2_934_8646)"/>
<path fill-rule="evenodd" clip-rule="evenodd" d="M251.857 166.261C218.271 192.911 218.271 231.218 218.271 231.218V238.734H547.41H550.769H879.907V231.218C879.907 231.218 879.907 192.911 846.322 166.261C812.912 139.751 762.884 122.954 550.769 122.779V122.777C550.208 122.777 549.648 122.777 549.089 122.778C548.531 122.777 547.971 122.777 547.41 122.777V122.779C335.295 122.954 285.267 139.751 251.857 166.261Z" fill="black"/>
<path d="M251.857 166.261L247.617 160.918L251.857 166.261ZM218.271 238.734H211.45V245.555H218.271V238.734ZM879.907 238.734V245.555H886.728V238.734H879.907ZM846.322 166.261L850.561 160.918V160.918L846.322 166.261ZM550.769 122.779H543.948V129.594L550.763 129.6L550.769 122.779ZM550.769 122.777H557.59V115.956H550.769V122.777ZM549.089 122.778L549.087 129.599L549.092 129.599L549.089 122.778ZM547.41 122.777V115.956H540.589V122.777H547.41ZM547.41 122.779L547.416 129.6L554.231 129.594V122.779H547.41ZM218.271 231.218C225.092 231.218 225.092 231.221 225.092 231.224C225.092 231.224 225.092 231.227 225.092 231.228C225.092 231.231 225.092 231.233 225.092 231.235C225.092 231.238 225.092 231.239 225.092 231.238C225.092 231.235 225.093 231.223 225.093 231.203C225.093 231.162 225.095 231.086 225.098 230.976C225.104 230.757 225.118 230.403 225.146 229.926C225.203 228.973 225.32 227.533 225.56 225.702C226.04 222.034 227.009 216.831 228.956 210.843C232.85 198.871 240.603 183.899 256.097 171.604L247.617 160.918C229.526 175.273 220.486 192.779 215.983 206.624C213.733 213.543 212.602 219.584 212.033 223.931C211.748 226.107 211.603 227.868 211.528 229.114C211.491 229.737 211.472 230.232 211.461 230.587C211.456 230.764 211.454 230.907 211.452 231.012C211.451 231.065 211.451 231.109 211.451 231.143C211.451 231.161 211.451 231.175 211.451 231.188C211.451 231.194 211.451 231.2 211.451 231.205C211.451 231.207 211.451 231.211 211.45 231.212C211.45 231.215 211.45 231.218 218.271 231.218ZM225.092 238.734V231.218H211.45V238.734H225.092ZM547.41 231.913H218.271V245.555H547.41V231.913ZM547.41 245.555H550.769V231.913H547.41V245.555ZM550.769 245.555H879.907V231.913H550.769V245.555ZM886.728 238.734V231.218H873.086V238.734H886.728ZM879.907 231.218C886.728 231.218 886.728 231.215 886.728 231.212C886.728 231.211 886.728 231.207 886.728 231.205C886.728 231.2 886.728 231.194 886.728 231.188C886.728 231.175 886.728 231.161 886.728 231.143C886.728 231.109 886.727 231.065 886.727 231.012C886.725 230.907 886.722 230.764 886.717 230.587C886.707 230.232 886.688 229.737 886.651 229.114C886.576 227.868 886.431 226.107 886.146 223.931C885.577 219.584 884.446 213.543 882.196 206.624C877.693 192.779 868.653 175.273 850.561 160.918L842.082 171.604C857.576 183.899 865.329 198.871 869.223 210.843C871.17 216.831 872.139 222.034 872.619 225.702C872.859 227.533 872.976 228.973 873.033 229.926C873.061 230.403 873.075 230.757 873.081 230.976C873.084 231.086 873.085 231.162 873.086 231.203C873.086 231.223 873.086 231.235 873.086 231.238C873.086 231.239 873.086 231.238 873.086 231.235C873.086 231.233 873.086 231.231 873.086 231.228C873.086 231.227 873.086 231.224 873.086 231.224C873.086 231.221 873.086 231.218 879.907 231.218ZM850.561 160.918C815.01 132.708 762.497 116.132 550.774 115.958L550.763 129.6C763.272 129.775 810.814 146.794 842.082 171.604L850.561 160.918ZM543.948 122.777V122.779H557.59V122.777H543.948ZM549.092 129.599C549.65 129.598 550.209 129.598 550.769 129.598V115.956C550.207 115.956 549.646 115.956 549.087 115.957L549.092 129.599ZM549.092 115.957C548.533 115.956 547.972 115.956 547.41 115.956V129.598C547.97 129.598 548.529 129.598 549.087 129.599L549.092 115.957ZM540.589 122.777V122.779H554.231V122.777H540.589ZM256.097 171.604C287.365 146.794 334.907 129.775 547.416 129.6L547.404 115.958C335.682 116.132 283.169 132.708 247.617 160.918L256.097 171.604Z" fill="#DDDDDD"/>
<mask id="path-15-inside-3_934_8646" fill="white">
<path fill-rule="evenodd" clip-rule="evenodd" d="M197.809 231.912V388.807C197.809 407.643 213.078 422.912 231.914 422.912H852.623C871.459 422.912 886.728 407.643 886.728 388.807V231.912H197.809Z"/>
</mask>
<path fill-rule="evenodd" clip-rule="evenodd" d="M197.809 231.912V388.807C197.809 407.643 213.078 422.912 231.914 422.912H852.623C871.459 422.912 886.728 407.643 886.728 388.807V231.912H197.809Z" fill="#DDDDDD"/>
<path d="M197.809 231.912V218.27H184.167V231.912H197.809ZM886.728 231.912H900.37V218.27H886.728V231.912ZM211.451 388.807V231.912H184.167V388.807H211.451ZM231.914 409.27C220.612 409.27 211.451 400.109 211.451 388.807H184.167C184.167 415.177 205.544 436.554 231.914 436.554V409.27ZM852.623 409.27H231.914V436.554H852.623V409.27ZM873.086 388.807C873.086 400.109 863.925 409.27 852.623 409.27V436.554C878.993 436.554 900.37 415.177 900.37 388.807H873.086ZM873.086 231.912V388.807H900.37V231.912H873.086ZM886.728 218.27H197.809V245.554H886.728V218.27Z" fill="black" mask="url(#path-15-inside-3_934_8646)"/>
<rect x="879.908" y="231.914" width="211.451" height="13.642" fill="black"/>
<line x1="532.037" y1="119.367" x2="798.056" y2="119.367" stroke="#DDDDDD" stroke-width="6.82099"/>
<path d="M783.728 217.173C783.728 217.153 783.727 217.139 783.727 217.131V183.943C783.727 179.376 784.141 175.241 786.093 172.247C787.831 169.579 791.292 167.114 799.251 167.114C806.849 167.114 816.653 171.627 825.396 178.822C834.096 185.983 841.035 195.22 843.379 203.773C845.92 213.05 845.544 218.985 843.089 222.56C840.714 226.018 835.501 228.503 824.967 228.503H799.252C790.835 228.503 787.236 225.314 785.554 222.692C784.646 221.276 784.181 219.84 783.947 218.746C783.832 218.204 783.776 217.763 783.75 217.476C783.737 217.333 783.731 217.229 783.728 217.173Z" stroke="#DDDDDD" stroke-width="6.82099"/>
<path d="M310.354 217.173C310.354 217.153 310.355 217.139 310.355 217.131V183.943C310.355 179.376 309.941 175.241 307.989 172.247C306.251 169.579 302.79 167.114 294.831 167.114C287.233 167.114 277.429 171.627 268.687 178.822C259.986 185.983 253.047 195.22 250.703 203.773C248.162 213.05 248.538 218.985 250.993 222.56C253.368 226.018 258.581 228.503 269.115 228.503H294.83C303.247 228.503 306.846 225.314 308.528 222.692C309.436 221.276 309.901 219.84 310.135 218.746C310.25 218.204 310.306 217.763 310.332 217.476C310.345 217.333 310.351 217.229 310.354 217.173Z" stroke="#DDDDDD" stroke-width="6.82099"/>
<rect x="401.758" y="167.114" width="61.3889" height="61.3889" rx="10.2315" fill="black" stroke="#DDDDDD" stroke-width="6.82099"/>
<rect x="325.362" y="167.114" width="61.3889" height="61.3889" rx="10.2315" fill="black" stroke="#DDDDDD" stroke-width="6.82099"/>
<rect x="478.149" y="167.114" width="61.3889" height="61.3889" rx="10.2315" fill="black" stroke="#DDDDDD" stroke-width="6.82099"/>
<rect x="554.545" y="167.114" width="61.3889" height="61.3889" rx="10.2315" fill="black" stroke="#DDDDDD" stroke-width="6.82099"/>
<rect x="630.942" y="167.114" width="61.3889" height="61.3889" rx="10.2315" fill="black" stroke="#DDDDDD" stroke-width="6.82099"/>
<rect x="707.33" y="167.114" width="61.3889" height="61.3889" rx="10.2315" fill="black" stroke="#DDDDDD" stroke-width="6.82099"/>
<path fill-rule="evenodd" clip-rule="evenodd" d="M225.092 385.382C225.092 379.731 229.673 375.15 235.323 375.15H259.197H306.943H310.354H320.586H533.368H667.269H849.209C854.86 375.15 859.441 379.731 859.441 385.382C859.441 391.033 854.86 395.613 849.209 395.613H667.269H533.368H320.586H310.354H306.943H259.197H235.323C229.673 395.613 225.092 391.033 225.092 385.382Z" fill="black"/>
<path fill-rule="evenodd" clip-rule="evenodd" d="M900.369 385.384C900.369 379.733 904.95 375.152 910.601 375.152H934.474H985.632H1006.09H1036.79H1081.13C1086.78 375.152 1091.36 379.733 1091.36 385.384C1091.36 391.035 1086.78 395.615 1081.13 395.615H1036.79H1006.09H985.631H934.474H910.601C904.95 395.615 900.369 391.035 900.369 385.384Z" fill="black"/>
<circle cx="459.596" cy="412.67" r="51.1574" fill="black" stroke="#DDDDDD" stroke-width="13.642"/>
<circle cx="446.776" cy="412.67" r="51.1574" fill="black" stroke="#DDDDDD" stroke-width="13.642"/>
<circle cx="787.004" cy="412.67" r="51.1574" fill="black" stroke="#DDDDDD" stroke-width="13.642"/>
<circle cx="774.182" cy="412.67" r="51.1574" fill="black" stroke="#DDDDDD" stroke-width="13.642"/>
<rect x="484.29" y="6.82099" width="484.29" height="109.136" rx="47.7469" fill="black" stroke="#DDDDDD" stroke-width="13.642"/>
<rect x="306.944" y="6.82099" width="484.29" height="109.136" rx="47.7469" fill="#DDDDDD" stroke="#DDDDDD" stroke-width="13.642"/>
</svg>
