<svg width="834" height="433" viewBox="0 0 834 433" fill="none" xmlns="http://www.w3.org/2000/svg">
<circle cx="729.862" cy="379.078" r="46.9907" fill="white" stroke="black" stroke-width="12.5309"/>
<circle cx="718.091" cy="379.078" r="46.9907" fill="white" stroke="black" stroke-width="12.5309"/>
<circle cx="385.264" cy="379.078" r="46.9907" fill="white" stroke="black" stroke-width="12.5309"/>
<circle cx="373.491" cy="379.078" r="46.9907" fill="white" stroke="black" stroke-width="12.5309"/>
<path fill-rule="evenodd" clip-rule="evenodd" d="M250.838 152.739C219.988 177.218 219.988 212.406 219.988 212.406V219.309H522.319H525.404H827.735V212.406C827.735 212.406 827.735 177.218 796.885 152.739C766.196 128.388 720.243 112.959 525.404 112.798V112.797C524.889 112.797 524.375 112.797 523.862 112.797C523.349 112.797 522.834 112.797 522.319 112.797V112.798C327.48 112.959 281.527 128.388 250.838 152.739Z" fill="white"/>
<path d="M250.838 152.739L246.944 147.831L246.944 147.831L250.838 152.739ZM219.988 219.309H213.723V225.575H219.988V219.309ZM827.735 219.309V225.575H834.001V219.309H827.735ZM796.885 152.739L800.78 147.831L800.78 147.831L796.885 152.739ZM525.404 112.798H519.139V119.058L525.399 119.064L525.404 112.798ZM525.404 112.797H531.67V106.531L525.404 106.531L525.404 112.797ZM523.862 112.797L523.859 119.063L523.864 119.063L523.862 112.797ZM522.319 112.797L522.319 106.531L516.054 106.531V112.797H522.319ZM522.319 112.798L522.324 119.064L528.585 119.058V112.798H522.319ZM219.988 212.406C226.254 212.406 226.254 212.408 226.254 212.411C226.254 212.411 226.254 212.414 226.254 212.415C226.254 212.417 226.254 212.419 226.254 212.421C226.254 212.424 226.254 212.425 226.254 212.423C226.254 212.421 226.254 212.41 226.254 212.392C226.255 212.354 226.256 212.284 226.259 212.183C226.264 211.982 226.277 211.657 226.303 211.219C226.355 210.343 226.462 209.021 226.683 207.339C227.124 203.969 228.014 199.19 229.803 193.69C233.379 182.693 240.501 168.94 254.733 157.647L246.944 147.831C230.326 161.017 222.022 177.097 217.886 189.814C215.819 196.17 214.781 201.718 214.258 205.712C213.996 207.711 213.862 209.328 213.794 210.473C213.76 211.045 213.742 211.5 213.733 211.826C213.728 211.988 213.726 212.119 213.724 212.216C213.724 212.265 213.723 212.305 213.723 212.337C213.723 212.352 213.723 212.366 213.723 212.378C213.723 212.383 213.723 212.389 213.723 212.393C213.723 212.396 213.723 212.399 213.723 212.4C213.723 212.403 213.723 212.406 219.988 212.406ZM226.254 219.309V212.406H213.723V219.309H226.254ZM522.319 213.044H219.988V225.575H522.319V213.044ZM522.319 225.575H525.404V213.044H522.319V225.575ZM525.404 225.575H827.735V213.044H525.404V225.575ZM834.001 219.309V212.406H821.47V219.309H834.001ZM827.735 212.406C834.001 212.406 834.001 212.403 834.001 212.4C834.001 212.399 834.001 212.396 834.001 212.393C834.001 212.389 834.001 212.383 834.001 212.378C834.001 212.366 834.001 212.352 834 212.337C834 212.305 834 212.265 833.999 212.216C833.998 212.119 833.995 211.988 833.991 211.826C833.981 211.5 833.963 211.045 833.929 210.473C833.861 209.328 833.727 207.711 833.466 205.712C832.943 201.718 831.904 196.17 829.837 189.814C825.701 177.097 817.397 161.017 800.78 147.831L792.991 157.647C807.223 168.94 814.344 182.693 817.921 193.69C819.71 199.19 820.6 203.969 821.041 207.339C821.261 209.021 821.368 210.343 821.421 211.219C821.447 211.657 821.459 211.982 821.465 212.183C821.468 212.284 821.469 212.354 821.469 212.392C821.47 212.41 821.47 212.421 821.47 212.423C821.47 212.425 821.47 212.424 821.47 212.421C821.47 212.419 821.47 212.417 821.47 212.415C821.47 212.414 821.47 212.411 821.47 212.411C821.47 212.408 821.47 212.406 827.735 212.406ZM800.78 147.831C768.123 121.919 719.887 106.693 525.409 106.533L525.399 119.064C720.599 119.225 764.269 134.857 792.991 157.647L800.78 147.831ZM519.139 112.797V112.798H531.67V112.797H519.139ZM523.864 119.063C524.377 119.062 524.89 119.062 525.404 119.062L525.404 106.531C524.888 106.531 524.373 106.532 523.859 106.532L523.864 119.063ZM523.864 106.532C523.35 106.532 522.835 106.531 522.319 106.531L522.319 119.062C522.834 119.062 523.347 119.062 523.859 119.063L523.864 106.532ZM516.054 112.797V112.798H528.585V112.797H516.054ZM254.733 157.647C283.454 134.857 327.124 119.225 522.324 119.064L522.314 106.533C327.836 106.693 279.6 121.919 246.944 147.831L254.733 157.647Z" fill="black"/>
<mask id="path-7-inside-1_1093_6731" fill="white">
<path fill-rule="evenodd" clip-rule="evenodd" d="M194.928 225.574V357.149C194.928 374.451 208.953 388.477 226.255 388.477H802.675C819.976 388.477 834.002 374.451 834.002 357.149V225.574H194.928Z"/>
</mask>
<path fill-rule="evenodd" clip-rule="evenodd" d="M194.928 225.574V357.149C194.928 374.451 208.953 388.477 226.255 388.477H802.675C819.976 388.477 834.002 374.451 834.002 357.149V225.574H194.928Z" fill="black"/>
<path d="M194.928 225.574V213.043H182.397V225.574H194.928ZM834.002 225.574H846.533V213.043H834.002V225.574ZM207.459 357.149V225.574H182.397V357.149H207.459ZM226.255 375.946C215.874 375.946 207.459 367.53 207.459 357.149H182.397C182.397 381.371 202.033 401.007 226.255 401.007V375.946ZM802.675 375.946H226.255V401.007H802.675V375.946ZM821.471 357.149C821.471 367.53 813.056 375.946 802.675 375.946V401.007C826.897 401.007 846.533 381.371 846.533 357.149H821.471ZM821.471 225.574V357.149H846.533V225.574H821.471ZM834.002 213.043H194.928V238.105H834.002V213.043Z" fill="black" mask="url(#path-7-inside-1_1093_6731)"/>
<rect x="116.609" y="140.991" width="68.9198" height="213.025" rx="9.39815" fill="white" stroke="black" stroke-width="6.26543"/>
<path d="M649.921 203.259L646.812 203.645C649.921 203.259 649.921 203.258 649.921 203.258L649.921 203.256L649.92 203.254L649.919 203.246L649.917 203.225L649.908 203.156C649.9 203.097 649.888 203.015 649.873 202.909C649.843 202.699 649.797 202.395 649.732 202.006C649.602 201.227 649.398 200.103 649.094 198.682C648.487 195.842 647.479 191.813 645.872 186.991C645.71 186.506 645.544 186.015 645.376 185.518C644.7 183.521 643.994 181.435 643.433 179.304C642.73 176.634 642.343 174.194 642.499 172.167C642.649 170.214 643.275 168.879 644.424 167.955C645.656 166.962 647.973 166.053 652.298 166.053H771.341C784.237 166.053 790.694 174.102 796.929 183.454C799.932 187.959 803.587 195.355 804.527 201.387C805.002 204.436 804.692 206.555 803.907 207.809C803.273 208.823 801.918 209.911 798.441 209.911H658.564C652.722 209.911 651.032 207.928 650.449 206.852C650.082 206.176 649.941 205.467 649.901 204.896C649.881 204.617 649.888 204.392 649.897 204.253C649.901 204.188 649.906 204.144 649.908 204.125L649.977 203.71L649.921 203.259Z" stroke="black" stroke-width="6.26543"/>
<path fill-rule="evenodd" clip-rule="evenodd" d="M50.3442 152.739C19.4941 177.218 19.4941 212.406 19.4941 212.406V219.309H321.825H324.91H627.241V212.406C627.241 212.406 627.241 177.218 596.391 152.739C565.702 128.388 519.749 112.959 324.91 112.798V112.797C324.395 112.797 323.881 112.797 323.368 112.797C322.854 112.797 322.34 112.797 321.825 112.797V112.798C126.986 112.959 81.033 128.388 50.3442 152.739Z" fill="white"/>
<path d="M50.3442 152.739L46.4498 147.831L46.4498 147.831L50.3442 152.739ZM19.4941 219.309H13.2287V225.575H19.4941V219.309ZM627.241 219.309V225.575H633.507V219.309H627.241ZM596.391 152.739L600.285 147.831L600.285 147.831L596.391 152.739ZM324.91 112.798H318.645V119.058L324.905 119.064L324.91 112.798ZM324.91 112.797H331.176V106.531L324.91 106.531L324.91 112.797ZM323.368 112.797L323.365 119.063L323.37 119.063L323.368 112.797ZM321.825 112.797L321.825 106.531L315.56 106.531V112.797H321.825ZM321.825 112.798L321.83 119.064L328.091 119.058V112.798H321.825ZM19.4941 212.406C25.7596 212.406 25.7596 212.408 25.7596 212.411C25.7596 212.411 25.7596 212.414 25.7596 212.415C25.7596 212.417 25.7596 212.419 25.7596 212.421C25.7595 212.424 25.7595 212.425 25.7595 212.423C25.7596 212.421 25.7596 212.41 25.7599 212.392C25.7604 212.354 25.7617 212.284 25.7646 212.183C25.7703 211.982 25.7826 211.657 25.8087 211.219C25.861 210.343 25.9683 209.021 26.1886 207.339C26.6298 203.969 27.5196 199.19 29.3086 193.69C32.8851 182.693 40.0064 168.94 54.2387 157.647L46.4498 147.831C29.832 161.017 21.5283 177.097 17.3922 189.814C15.325 196.17 14.2866 201.718 13.7638 205.712C13.502 207.711 13.3683 209.328 13.3001 210.473C13.2659 211.045 13.2481 211.5 13.2388 211.826C13.2341 211.988 13.2316 212.119 13.2303 212.216C13.2296 212.265 13.2292 212.305 13.229 212.337C13.2289 212.352 13.2288 212.366 13.2288 212.378C13.2287 212.383 13.2287 212.389 13.2287 212.393C13.2287 212.396 13.2287 212.399 13.2287 212.4C13.2287 212.403 13.2287 212.406 19.4941 212.406ZM25.7596 219.309V212.406H13.2287V219.309H25.7596ZM321.825 213.044H19.4941V225.575H321.825V213.044ZM321.825 225.575H324.91V213.044H321.825V225.575ZM324.91 225.575H627.241V213.044H324.91V225.575ZM633.507 219.309V212.406H620.976V219.309H633.507ZM627.241 212.406C633.507 212.406 633.507 212.403 633.507 212.4C633.507 212.399 633.507 212.396 633.507 212.393C633.507 212.389 633.506 212.383 633.506 212.378C633.506 212.366 633.506 212.352 633.506 212.337C633.506 212.305 633.506 212.265 633.505 212.216C633.504 212.119 633.501 211.988 633.496 211.826C633.487 211.5 633.469 211.045 633.435 210.473C633.367 209.328 633.233 207.711 632.971 205.712C632.449 201.718 631.41 196.17 629.343 189.814C625.207 177.097 616.903 161.017 600.285 147.831L592.497 157.647C606.729 168.94 613.85 182.693 617.427 193.69C619.216 199.19 620.105 203.969 620.547 207.339C620.767 209.021 620.874 210.343 620.927 211.219C620.953 211.657 620.965 211.982 620.971 212.183C620.974 212.284 620.975 212.354 620.975 212.392C620.976 212.41 620.976 212.421 620.976 212.423C620.976 212.425 620.976 212.424 620.976 212.421C620.976 212.419 620.976 212.417 620.976 212.415C620.976 212.414 620.976 212.411 620.976 212.411C620.976 212.408 620.976 212.406 627.241 212.406ZM600.285 147.831C567.629 121.919 519.393 106.693 324.915 106.533L324.905 119.064C520.105 119.225 563.775 134.857 592.497 157.647L600.285 147.831ZM318.645 112.797V112.798H331.176V112.797H318.645ZM323.37 119.063C323.882 119.062 324.396 119.062 324.91 119.062L324.91 106.531C324.394 106.531 323.879 106.532 323.365 106.532L323.37 119.063ZM323.37 106.532C322.856 106.532 322.341 106.531 321.825 106.531L321.825 119.062C322.339 119.062 322.853 119.062 323.365 119.063L323.37 106.532ZM315.56 112.797V112.798H328.091V112.797H315.56ZM54.2387 157.647C82.9601 134.857 126.63 119.225 321.83 119.064L321.82 106.533C127.342 106.693 79.1059 121.919 46.4498 147.831L54.2387 157.647Z" fill="black"/>
<mask id="path-13-inside-2_1093_6731" fill="white">
<path fill-rule="evenodd" clip-rule="evenodd" d="M0.699219 213.043V357.147C0.699219 374.449 14.7249 388.474 32.0264 388.474H602.181C619.482 388.474 633.508 374.449 633.508 357.147V213.043H0.699219Z"/>
</mask>
<path fill-rule="evenodd" clip-rule="evenodd" d="M0.699219 213.043V357.147C0.699219 374.449 14.7249 388.474 32.0264 388.474H602.181C619.482 388.474 633.508 374.449 633.508 357.147V213.043H0.699219Z" fill="black"/>
<path d="M0.699219 213.043V200.512H-11.8316V213.043H0.699219ZM633.508 213.043H646.039V200.512H633.508V213.043ZM13.2301 357.147V213.043H-11.8316V357.147H13.2301ZM32.0264 375.943C21.6455 375.943 13.2301 367.528 13.2301 357.147H-11.8316C-11.8316 381.369 7.80425 401.005 32.0264 401.005V375.943ZM602.181 375.943H32.0264V401.005H602.181V375.943ZM620.977 357.147C620.977 367.528 612.562 375.943 602.181 375.943V401.005C626.403 401.005 646.039 381.369 646.039 357.147H620.977ZM620.977 213.043V357.147H646.039V213.043H620.977ZM633.508 200.512H0.699219V225.574H633.508V200.512Z" fill="white" mask="url(#path-13-inside-2_1093_6731)"/>
<rect x="627.242" y="213.043" width="194.228" height="12.5309" fill="white"/>
<line x1="307.705" y1="109.663" x2="552.057" y2="109.663" stroke="black" stroke-width="6.26543"/>
<path d="M538.891 168.98C538.891 164.785 539.271 160.987 541.064 158.236C542.66 155.786 545.839 153.521 553.15 153.521C560.13 153.521 569.135 157.667 577.165 164.277C585.157 170.854 591.531 179.338 593.684 187.195C596.019 195.717 595.673 201.168 593.418 204.452C591.236 207.628 586.448 209.91 576.771 209.91H553.151C545.42 209.91 542.114 206.982 540.569 204.573C539.735 203.272 539.308 201.953 539.093 200.948C538.987 200.451 538.936 200.046 538.911 199.782C538.899 199.65 538.894 199.555 538.892 199.503C538.891 199.485 538.891 199.472 538.891 199.465V168.98Z" stroke="black" stroke-width="6.26543"/>
<path d="M104.078 168.98C104.078 164.785 103.698 160.987 101.905 158.236C100.308 155.786 97.1293 153.521 89.8187 153.521C82.8392 153.521 73.8342 157.667 65.8034 164.277C57.8118 170.854 51.4375 179.338 49.2849 187.195C46.9502 195.717 47.2959 201.168 49.5511 204.452C51.7325 207.628 56.5212 209.91 66.1974 209.91H89.8176C97.549 209.91 100.855 206.982 102.4 204.573C103.234 203.272 103.661 201.953 103.876 200.948C103.982 200.451 104.033 200.046 104.057 199.782C104.069 199.65 104.075 199.555 104.077 199.503C104.078 199.485 104.078 199.472 104.078 199.465V168.98Z" stroke="black" stroke-width="6.26543"/>
<rect x="188.037" y="153.521" width="56.3889" height="56.3889" rx="9.39815" fill="white" stroke="black" stroke-width="6.26543"/>
<rect x="117.857" y="153.521" width="56.3889" height="56.3889" rx="9.39815" fill="white" stroke="black" stroke-width="6.26543"/>
<rect x="258.205" y="153.521" width="56.3889" height="56.3889" rx="9.39815" fill="white" stroke="black" stroke-width="6.26543"/>
<rect x="328.387" y="153.521" width="56.3889" height="56.3889" rx="9.39815" fill="white" stroke="black" stroke-width="6.26543"/>
<rect x="398.555" y="153.521" width="56.3889" height="56.3889" rx="9.39815" fill="white" stroke="black" stroke-width="6.26543"/>
<rect x="468.723" y="153.521" width="56.3889" height="56.3889" rx="9.39815" fill="white" stroke="black" stroke-width="6.26543"/>
<path fill-rule="evenodd" clip-rule="evenodd" d="M25.7598 354.015C25.7598 348.825 29.9675 344.617 35.1579 344.617H57.0869H100.945H104.078H113.476H308.928H431.923H599.044C604.235 344.617 608.443 348.825 608.443 354.015C608.443 359.206 604.235 363.413 599.044 363.413H431.923H308.928H113.476H104.078H100.945H57.0869H35.1579C29.9675 363.413 25.7598 359.206 25.7598 354.015Z" fill="white"/>
<path fill-rule="evenodd" clip-rule="evenodd" d="M646.039 354.015C646.039 348.825 650.247 344.617 655.437 344.617H724.357C724.375 344.617 724.392 344.617 724.41 344.617H743.153H771.348H812.073C817.263 344.617 821.471 348.825 821.471 354.015C821.471 359.206 817.263 363.414 812.073 363.414H771.348H743.153H677.366V363.413H655.437C650.247 363.413 646.039 359.206 646.039 354.015Z" fill="white"/>
<rect x="263.846" y="6.28399" width="444.846" height="100.247" rx="43.858" fill="white" stroke="black" stroke-width="12.5309"/>
<rect x="100.945" y="6.28399" width="444.846" height="100.247" rx="43.858" fill="black" stroke="black" stroke-width="12.5309"/>
<circle cx="241.159" cy="379.078" r="46.9907" fill="white" stroke="black" stroke-width="12.5309"/>
<circle cx="229.387" cy="379.078" r="46.9907" fill="white" stroke="black" stroke-width="12.5309"/>
<circle cx="541.899" cy="379.078" r="46.9907" fill="white" stroke="black" stroke-width="12.5309"/>
<circle cx="530.13" cy="379.078" r="46.9907" fill="white" stroke="black" stroke-width="12.5309"/>
</svg>
