<svg width="121" height="46" viewBox="0 0 121 46" fill="none" xmlns="http://www.w3.org/2000/svg">
<circle cx="107.46" cy="37.5" r="7.5" fill="white" stroke="black" stroke-width="2"/>
<circle cx="59.3799" cy="37.5" r="7.5" fill="white" stroke="black" stroke-width="2"/>
<circle cx="105.58" cy="37.5" r="7.5" fill="white" stroke="black" stroke-width="2"/>
<circle cx="57.5" cy="37.5" r="7.5" fill="white" stroke="black" stroke-width="2"/>
<mask id="path-5-inside-1_135_286" fill="white">
<path fill-rule="evenodd" clip-rule="evenodd" d="M62.9709 0.337403C49.0857 0.458926 36.7752 0.566667 35.188 0.566667C31.548 0.566667 29 3.1875 29 6.375V14H27V34.9483C27 38.2069 29.632 41 32.264 41H116.3C121 41 121 35.9375 121 35.9375V18C121 15.8165 119.957 14.8249 119.01 14.3746C118 12.7003 116.388 9.97903 114.986 7.40323C114.953 7.34429 114.921 7.28553 114.89 7.22694C112.697 3.1967 110.958 0 104.957 0C101.523 0 80.9297 0.180229 62.9709 0.337403Z"/>
</mask>
<path fill-rule="evenodd" clip-rule="evenodd" d="M62.9709 0.337403C49.0857 0.458926 36.7752 0.566667 35.188 0.566667C31.548 0.566667 29 3.1875 29 6.375V14H27V34.9483C27 38.2069 29.632 41 32.264 41H116.3C121 41 121 35.9375 121 35.9375V18C121 15.8165 119.957 14.8249 119.01 14.3746C118 12.7003 116.388 9.97903 114.986 7.40323C114.953 7.34429 114.921 7.28553 114.89 7.22694C112.697 3.1967 110.958 0 104.957 0C101.523 0 80.9297 0.180229 62.9709 0.337403Z" fill="white"/>
<path d="M62.9709 0.337403L62.9534 -1.66252L62.9709 0.337403ZM29 14V16H31V14H29ZM27 14V12H25V14H27ZM119.01 14.3746L117.297 15.4074L117.608 15.9226L118.151 16.1809L119.01 14.3746ZM114.986 7.40323L116.742 6.4471L116.742 6.44701L114.986 7.40323ZM114.89 7.22694L116.647 6.27132L116.647 6.27124L114.89 7.22694ZM35.188 2.56667C36.7868 2.56667 49.113 2.45876 62.9884 2.33733L62.9534 -1.66252C49.0583 -1.54091 36.7636 -1.43333 35.188 -1.43333V2.56667ZM31 6.375C31 4.35887 32.5846 2.56667 35.188 2.56667V-1.43333C30.5114 -1.43333 27 2.01613 27 6.375H31ZM31 14V6.375H27V14H31ZM27 16H29V12H27V16ZM29 34.9483V14H25V34.9483H29ZM32.264 39C31.6511 39 30.8434 38.6555 30.137 37.8642C29.4463 37.0905 29 36.0418 29 34.9483H25C25 37.1134 25.8697 39.0905 27.153 40.528C28.4206 41.9479 30.2449 43 32.264 43V39ZM116.3 39H32.264V43H116.3V39ZM121 35.9375C119 35.9375 119 35.9366 119 35.9357C119 35.9355 119 35.9346 119 35.9341C119 35.933 119 35.932 119 35.9311C119 35.9293 119 35.9277 119 35.9264C119 35.9239 119 35.9224 119 35.9221C119 35.9214 119 35.9249 119 35.9325C118.999 35.9477 118.998 35.9785 118.995 36.0227C118.989 36.1117 118.977 36.2509 118.95 36.4227C118.895 36.7762 118.79 37.2145 118.598 37.6267C118.409 38.0345 118.163 38.3601 117.851 38.5844C117.558 38.7944 117.093 39 116.3 39V43C117.857 43 119.154 42.5728 120.184 41.8335C121.193 41.1087 121.828 40.1686 122.227 39.3108C122.623 38.4574 122.811 37.63 122.903 37.0343C122.95 36.7315 122.974 36.4752 122.986 36.2874C122.993 36.1931 122.996 36.1152 122.998 36.0562C122.999 36.0267 122.999 36.0018 123 35.982C123 35.972 123 35.9633 123 35.9559C123 35.9522 123 35.9488 123 35.9457C123 35.9442 123 35.9427 123 35.9414C123 35.9407 123 35.9397 123 35.9394C123 35.9384 123 35.9375 121 35.9375ZM119 18V35.9375H123V18H119ZM118.151 16.1809C118.366 16.2828 118.55 16.4244 118.689 16.6355C118.823 16.8397 119 17.2386 119 18H123C123 16.5779 122.656 15.3892 122.032 14.4392C121.412 13.4961 120.601 12.9167 119.868 12.5683L118.151 16.1809ZM113.229 8.35935C114.652 10.9735 116.282 13.7241 117.297 15.4074L120.723 13.3418C119.718 11.6766 118.123 8.98451 116.742 6.4471L113.229 8.35935ZM113.133 8.18256C113.165 8.24117 113.197 8.30019 113.229 8.35945L116.742 6.44701C116.71 6.38839 116.678 6.32988 116.647 6.27132L113.133 8.18256ZM104.957 2C107.553 2 108.987 2.67186 110.019 3.59386C111.171 4.62208 111.996 6.09254 113.133 8.18264L116.647 6.27124C115.591 4.33109 114.45 2.18809 112.684 0.610399C110.798 -1.07351 108.362 -2 104.957 -2V2ZM62.9884 2.33733C80.9563 2.18007 101.534 2 104.957 2V-2C101.511 -2 80.903 -1.81961 62.9534 -1.66252L62.9884 2.33733Z" fill="black" mask="url(#path-5-inside-1_135_286)"/>
<rect x="93" y="16" width="26" height="23" fill="black"/>
<path d="M8.188 1.56667C9.78001 1.56667 22.0938 1.4589 35.9745 1.33741C38.0131 1.31957 40.0855 1.30143 42.1627 1.2833C58.3929 1.14159 74.9179 1 77.9566 1C80.7944 1 82.4884 1.75614 83.7413 2.89828C85.0393 4.08162 85.938 5.73283 87.0596 7.79376L87.1072 7.88129C88.2353 9.95383 89.4962 12.1154 90.4731 13.7556C90.7468 14.2153 90.9986 14.6346 91.2192 15H3V14.9443V12.3828V6.375C3 3.77318 5.06628 1.56667 8.188 1.56667Z" fill="white" stroke="black" stroke-width="2"/>
<path d="M93 37.5623V37.5618V37.5617V37.5611V37.561V37.5601V37.5598L93 37.5596L93 37.5582V37.5564V37.5542V37.5516V37.5488V37.5456V37.542V37.5382V37.534V37.5294V37.5246V37.5194V37.5139V37.5081V37.502V37.4955V37.4887V37.4816V37.4742V37.4665V37.4584V37.45V37.4414V37.4324V37.4231V37.4135V37.4036V37.3933V37.3828V37.372V37.3608V37.3494V37.3376V37.3256V37.3133V37.3006V37.2877V37.2745V37.2609V37.2471V37.233V37.2186V37.2039V37.1889V37.1736V37.1581V37.1422V37.1261V37.1097V37.093V37.0761V37.0588V37.0413V37.0235V37.0054V36.987V36.9684V36.9495V36.9303V36.9109V36.8912V36.8712V36.8509V36.8304V36.8096V36.7886V36.7673V36.7457V36.7239V36.7018V36.6794V36.6568V36.634V36.6109V36.5875V36.5639V36.54V36.5159V36.4915V36.4669V36.4421V36.417V36.3916V36.366V36.3402V36.3141V36.2878V36.2612V36.2345V36.2074V36.1802V36.1527V36.125V36.097V36.0688V36.0404V36.0117V35.9829V35.9538V35.9244V35.8949V35.8651V35.8351V35.8049V35.7745V35.7439V35.713V35.6819V35.6506V35.6191V35.5874V35.5555V35.5233V35.491V35.4584V35.4257V35.3927V35.3596V35.3262V35.2926V35.2588V35.2249V35.1907V35.1563V35.1218V35.087V35.052V35.0169V34.9816V34.946V34.9103V34.8744V34.8383V34.8021V34.7656V34.729V34.6921V34.6551V34.6179V34.5806V34.543V34.5053V34.4674V34.4293V34.3911V34.3527V34.3141V34.2754V34.2364V34.1973V34.1581V34.1187V34.0791V34.0393V33.9994V33.9594V33.9191V33.8787V33.8382V33.7975V33.7567V33.7156V33.6745V33.6332V33.5917V33.5501V33.5084V33.4665V33.4244V33.3822V33.3399V33.2974V33.2548V33.212V33.1691V33.1261V33.0829V33.0396V32.9962V32.9526V32.9089V32.8651V32.8211V32.777V32.7328V32.6884V32.644V32.5994V32.5546V32.5098V32.4648V32.4198V32.3746V32.3293V32.2838V32.2383V32.1926V32.1469V32.101V32.055V32.0089V31.9627V31.9164V31.87V31.8234V31.7768V31.7301V31.6833V31.6363V31.5893V31.5422V31.495V31.4477V31.4002V31.3527V31.3052V31.2575V31.2097V31.1618V31.1139V31.0659V31.0177V30.9695V30.9213V30.8729V30.8244V30.7759V30.7273V30.6786V30.6299V30.5811V30.5322V30.4832V30.4341V30.385V30.3358V30.2866V30.2373V30.1879V30.1384V30.0889V30.0394V29.9897V29.94V29.8903V29.8405V29.7906V29.7407V29.6907V29.6407V29.5906V29.5405V29.4903V29.4401V29.3898V29.3395V29.2892V29.2388V29.1883V29.1378V29.0873V29.0367V28.9861V28.9355V28.8848V28.8341V28.7834V28.7326V28.6818V28.6309V28.5801V28.5292V28.4783V28.4273V28.3764V28.3254V28.2744V28.2233V28.1723V28.1212V28.0701V28.019V27.9679V27.9168V27.8656V27.8145V27.7633V27.7121V27.661V27.6098V27.5586V27.5074V27.4562V27.405V27.3538V27.3026V27.2514V27.2002V27.149V27.0978V27.0466V26.9954V26.9442V26.8931V26.8419V26.7908V26.7396V26.6885V26.6374V26.5864V26.5353V26.4842V26.4332V26.3822V26.3312V26.2803V26.2293V26.1784V26.1275V26.0767V26.0258V25.975V25.9243V25.8735V25.8228V25.7722V25.7215V25.6709V25.6204V25.5699V25.5194V25.469V25.4186V25.3682V25.3179V25.2676V25.2174V25.1673V25.1172V25.0671V25.0171V24.9671V24.9172V24.8674V24.8176V24.7678V24.7181V24.6685V24.619V24.5695V24.52V24.4707V24.4214V24.3721V24.323V24.2739V24.2248V24.1759V24.127V24.0782V24.0294V23.9808V23.9322V23.8837V23.8353V23.7869V23.7387V23.6905V23.6424V23.5944V23.5464V23.4986V23.4508V23.4032V23.3556V23.3081V23.2607V23.2134V23.1662V23.1191V23.0721V23.0252V22.9784V22.9317V22.8851V22.8386V22.7922V22.7459V22.6998V22.6537V22.6077V22.5619V22.5161V22.4705V22.425V22.3796V22.3343V22.2891V22.2441V22.1991V22.1543V22.1096V22.0651V22.0206V21.9763V21.9321V21.888V21.8441V21.8003V21.7566V21.7131V21.6697V21.6264V21.5832V21.5402V21.4974V21.4546V21.4121V21.3696V21.3273V21.2851V21.2431V21.2013V21.1595V21.118V21.0765V21.0352V20.9941V20.9531V20.9123V20.8717V20.8312V20.7908V20.7506V20.7106V20.6707V20.631V20.5914V20.5521V20.5128V20.4738V20.4349V20.3962V20.3576V20.3193V20.2811V20.243V20.2052V20.1675V20.13V20.0927V20.0555V20.0186V19.9818V19.9452V19.9088V19.8725V19.8365V19.8006V19.7649V19.7294V19.6942V19.6591V19.6241V19.5894V19.5549V19.5206V19.4865V19.4525V19.4188V19.3853V19.3519V19.3188V19.2859V19.2532V19.2207V19.1884V19.1563V19.1244V19.0927V19.0613V19.03V18.999V18.9682V18.9376V18.9072V18.877V18.8471V18.8174V18.7879V18.7586V18.7296V18.7007V18.6721V18.6438V18.6156V18.5877V18.5601V18.5326V18.5054V18.4784V18.4517V18.4252V18.3989V18.3729V18.3471V18.3216V18.2963C93 16.4763 92.2893 15.7345 91.7269 15.3893C91.4138 15.1971 91.0933 15.0974 90.8464 15.0468C90.7247 15.0219 90.6262 15.0101 90.563 15.0046C90.5317 15.0018 90.5096 15.0007 90.4984 15.0002L90.4932 15L90.4928 15L90.4958 15L90.4977 15L90.4988 15C90.4994 15 90.5 15 90.5 14L93 37.5623ZM93 37.5623L93 37.5642L92.9993 37.5948C92.9984 37.6244 92.9966 37.6718 92.9927 37.7345C92.985 37.8602 92.9691 38.0453 92.9368 38.2695C92.8714 38.7231 92.7426 39.3107 92.4946 39.8845C92.2466 40.4582 91.896 40.981 91.4065 41.3585C90.9307 41.7255 90.2672 42 89.3 42H89.2716H89.2416H89.21H89.1767H89.1417H89.1052H89.067H89.0272H88.9859H88.9429H88.8983H88.8522H88.8044H88.7551H88.7043H88.6518H88.5979H88.5423H88.4853H88.4267H88.3666H88.3049H88.2418H88.1771H88.111H88.0433H87.9742H87.9036H87.8315H87.758H87.683H87.6065H87.5286H87.4493H87.3685H87.2863H87.2027H87.1177H87.0312H86.9434H86.8541H86.7635H86.6715H86.5781H86.4834H86.3873H86.2898H86.191H86.0909H85.9894H85.8866H85.7825H85.677H85.5703H85.4622H85.3529H85.2423H85.1304H85.0172H84.9027H84.787H84.67H84.5518H84.4323H84.3116H84.1897H84.0666H83.9422H83.8166H83.6898H83.5619H83.4327H83.3023H83.1708H83.0381H82.9043H82.7693H82.6331H82.4958H82.3573H82.2178H82.0771H81.9353H81.7923H81.6483H81.5032H81.357H81.2097H81.0613H80.9118H80.7613H80.6098H80.4571H80.3035H80.1488H79.993H79.8363H79.6785H79.5197H79.3599H79.1991H79.0373H78.8746H78.7108H78.5461H78.3804H78.2138H78.0462H77.8776H77.7081H77.5377H77.3664H77.1941H77.0209H76.8468H76.6719H76.496H76.3192H76.1416H75.9631H75.7837H75.6034H75.4223H75.2404H75.0576H74.874H74.6895H74.5043H74.3182H74.1313H73.9436H73.7551H73.5658H73.3758H73.185H72.9934H72.801H72.6079H72.414H72.2194H72.0241H71.828H71.6312H71.4337H71.2355H71.0366H70.837H70.6367H70.4357H70.234H70.0317H69.8287H69.625H69.4207H69.2158H69.0102H68.804H68.5971H68.3897H68.1816H67.973H67.7637H67.5538H67.3434H67.1324H66.9208H66.7087H66.4959H66.2827H66.0689H65.8545H65.6397H65.4243H65.2084H64.9919H64.775H64.5576H64.3396H64.1212H63.9023H63.683H63.4632H63.2429H63.0221H62.801H62.5793H62.3573H62.1348H61.9119H61.6886H61.4649H61.2407H61.0162H60.7913H60.5661H60.3404H60.1144H59.888H59.6613H59.4342H59.2068H58.979H58.7509H58.5225H58.2938H58.0648H57.8355H57.6058H57.3759H57.1457H56.9153H56.6846H56.4536H56.2223H55.9908H55.7591H55.5271H55.2949H55.0625H54.8298H54.597H54.3639H54.1307H53.8972H53.6636H53.4298H53.1959H52.9617H52.7274H52.493H52.2584H52.0237H51.7889H51.5539H51.3188H51.0836H50.8483H50.6129H50.3774H50.1419H49.9062H49.6705H49.4347H49.1989H48.963H48.7271H48.4911H48.2551H48.0191H47.783H47.5469H47.3109H47.0748H46.8388H46.6027H46.3667H46.1307H45.8948H45.6589H45.423H45.1872H44.9514H44.7157H44.4801H44.2446H44.0092H43.7738H43.5386H43.3034H43.0684H42.8335H42.5987H42.364H42.1295H41.8952H41.661H41.4269H41.193H40.9593H40.7258H40.4924H40.2593H40.0263H39.7936H39.5611H39.3287H39.0966H38.8648H38.6332H38.4018H38.1707H37.9398H37.7092H37.4789H37.2488H37.019H36.7896H36.5604H36.3315H36.1029H35.8747H35.6468H35.4192H35.1919H34.965H34.7385H34.5123H34.2864H34.0609H33.8358H33.6111H33.3868H33.1629H32.9394H32.7163H32.4936H32.2713H32.0495H31.828H31.6071H31.3866H31.1665H30.9469H30.7278H30.5091H30.291H30.0733H29.8561H29.6394H29.4232H29.2076H28.9924H28.7778H28.5637H28.3502H28.1372H27.9248H27.7129H27.5016H27.2908H27.0807H26.8711H26.6621H26.4538H26.246H26.0389H25.8323H25.6264H25.4212H25.2165H25.0125H24.8092H24.6065H24.4045H24.2032H24.0026H23.8026H23.6033H23.4047H23.2069H23.0097H22.8133H22.6176H22.4226H22.2283H22.0348H21.8421H21.6501H21.4589H21.2684H21.0787H20.8899H20.7018H20.5145H20.328H20.1423H19.9574H19.7734H19.5902H19.4078H19.2263H19.0456H18.8658H18.6868H18.5087H18.3315H18.1552H17.9797H17.8052H17.6315H17.4588H17.287H17.1161H16.9461H16.7771H16.609H16.4419H16.2757H16.1105H15.9463H15.783H15.6207H15.4594H15.2991H15.1398H14.9815H14.8242H14.668H14.5127H14.3585H14.2054H14.0533H13.9022H13.7522H13.6033H13.4555H13.3087H13.163H13.0184H12.8749H12.7325H12.5913H12.4511H12.3121H12.1742H12.0375H11.9019H11.7674H11.6341H11.502H11.3711H11.2413H11.1127H10.9853H10.8591H10.7342H10.6104H10.4878H10.3665H10.2464H10.1276H10.0099H9.89358H9.77848H9.66465H9.55208H9.44079H9.33079H9.22208H9.11467H9.00856H8.90376H8.80028H8.69813H8.5973H8.49781H8.39967H8.30288H8.20744H8.11337H8.02067H7.92934H7.8394H7.75085H7.66369H7.57794H7.4936H7.41068H7.32917H7.2491H7.17046H7.09327H7.01752H6.94323H6.87041H6.79905H6.72916H6.66076H6.59385H6.52844H6.46452H6.40211H6.34122H6.28185H6.22401H6.16771H6.11294H6.05972H6.00806H5.95796H5.90943H5.86247H5.81709H5.7733H5.7311H5.6905H5.65151H5.61414H5.57838H5.54425H5.51176H5.4809H5.45169H5.42414H5.39824H5.37401H5.35146H5.33058H5.31139H5.29389H5.27809H5.264C4.32789 42 3.27112 41.4545 2.41404 40.4233C1.56749 39.4048 1 38.0031 1 36.5V36.4793V36.4583V36.4369V36.4151V36.3931V36.3706V36.3478V36.3247V36.3012V36.2774V36.2533V36.2288V36.204V36.1788V36.1533V36.1275V36.1014V36.0749V36.0481V36.0209V35.9935V35.9657V35.9376V35.9092V35.8805V35.8514V35.822V35.7924V35.7624V35.7321V35.7015V35.6705V35.6393V35.6078V35.576V35.5438V35.5114V35.4787V35.4456V35.4123V35.3787V35.3448V35.3106V35.2761V35.2414V35.2063V35.171V35.1354V35.0995V35.0633V35.0268V34.9901V34.9531V34.9158V34.8783V34.8404V34.8023V34.764V34.7254V34.6865V34.6473V34.6079V34.5682V34.5283V34.4881V34.4477V34.407V34.3661V34.3249V34.2834V34.2418V34.1998V34.1576V34.1152V34.0726V34.0297V33.9865V33.9432V33.8996V33.8557V33.8117V33.7674V33.7228V33.6781V33.6331V33.5879V33.5425V33.4968V33.451V33.4049V33.3586V33.3121V33.2653V33.2184V33.1713V33.1239V33.0763V33.0286V32.9806V32.9324V32.8841V32.8355V32.7867V32.7377V32.6886V32.6392V32.5897V32.54V32.49V32.4399V32.3896V32.3392V32.2885V32.2377V32.1866V32.1354V32.0841V32.0325V31.9808V31.9289V31.8769V31.8246V31.7722V31.7197V31.6669V31.6141V31.561V31.5078V31.4545V31.4009V31.3473V31.2934V31.2395V31.1853V31.1311V31.0766V31.0221V30.9674V30.9125V30.8575V30.8024V30.7471V30.6917V30.6362V30.5805V30.5247V30.4688V30.4127V30.3565V30.3002V30.2438V30.1872V30.1306V30.0738V30.0169V29.9598V29.9027V29.8454V29.7881V29.7306V29.673V29.6153V29.5575V29.4996V29.4416V29.3835V29.3253V29.267V29.2086V29.1502V29.0916V29.0329V28.9741V28.9153V28.8564V28.7973V28.7382V28.6791V28.6198V28.5605V28.501V28.4415V28.382V28.3223V28.2626V28.2028V28.143V28.0831V28.0231V27.963V27.9029V27.8428V27.7825V27.7223V27.6619V27.6015V27.5411V27.4806V27.4201V27.3595V27.2988V27.2381V27.1774V27.1166V27.0558V26.995V26.9341V26.8732V26.8122V26.7512V26.6902V26.6292V26.5681V26.507V26.4459V26.3847V26.3236V26.2624V26.2012V26.1399V26.0787V26.0174V25.9562V25.8949V25.8336V25.7723V25.711V25.6497V25.5884V25.5271V25.4658V25.4045V25.3432V25.2819V25.2206V25.1593V25.098V25.0367V24.9755V24.9142V24.853V24.7918V24.7306V24.6694V24.6083V24.5472V24.4861V24.425V24.3639V24.3029V24.2419V24.181V24.12V24.0592V23.9983V23.9375V23.8767V23.816V23.7553V23.6947V23.6341V23.5735V23.513V23.4526V23.3922V23.3319V23.2716V23.2113V23.1512V23.0911V23.031V22.971V22.9111V22.8512V22.7915V22.7317V22.6721V22.6125V22.553V22.4936V22.4343V22.375V22.3158V22.2567V22.1977V22.1387V22.0799V22.0211V21.9624V21.9039V21.8454V21.787V21.7287V21.6705V21.6124V21.5544V21.4964V21.4386V21.381V21.3234V21.2659V21.2085V21.1512V21.0941V21.0371V20.9801V20.9233V20.8667V20.8101V20.7537V20.6973V20.6411V20.5851V20.5291V20.4733V20.4177V20.3621V20.3067V20.2514V20.1963V20.1413V20.0864V20.0317V19.9771V19.9227V19.8684V19.8143V19.7603V19.7065V19.6528V19.5993V19.5459V19.4927V19.4396V19.3867V19.334V19.2814V19.229V19.1768V19.1247V19.0728V19.0211V18.9695V18.9181V18.8669V18.8159V18.7651V18.7144V18.6639V18.6136V18.5635V18.5135V18.4638V18.4142V18.3649V18.3157V18.2667V18.218V18.1694V18.121V18.0728V18.0248V17.977V17.9295V17.8821V17.8349V17.788V17.7413V17.6947V17.6484V17.6023V17.5564V17.5108V17.4654V17.4201V17.3751V17.3304V17.2858V17.2415V17.1974V17.1536V17.11V17.0666V17.0234V16.9805V16.9379V16.8954V16.8532V16.8113V16.7696V16.7281V16.6869V16.646V16.6053V16.5648V16.5246V16.4847V16.445V16.4056V16.3664V16.3275V16.2889V16.2505V16.2124V16.1746V16.137V16.0997V16.0627V16.0259V15.9894V15.9532V15.9173V15.8817V15.8463V15.8113V15.7765V15.742V15.7078V15.6739V15.6402V15.6069V15.5739V15.5411V15.5087V15.4765V15.4447V15.4131V15.3819V15.351V15.3203V15.29V15.26V15.2303V15.2009V15.1718V15.1431V15.1146V15.0865V15.0587V15.0313V15.0041V15L93 37.5623Z" fill="black" stroke="white" stroke-width="2"/>
<rect x="6.5" y="4.5" width="9" height="9" rx="1.5" fill="white" stroke="black"/>
<rect x="42.5" y="4.5" width="9" height="9" rx="1.5" fill="white" stroke="black"/>
<rect x="18.5" y="4.5" width="9" height="9" rx="1.5" fill="white" stroke="black"/>
<rect x="54.5" y="4.5" width="9" height="9" rx="1.5" fill="white" stroke="black"/>
<rect x="66.5" y="4.5" width="9" height="9" rx="1.5" fill="white" stroke="black"/>
<rect x="30.5" y="4.5" width="9" height="9" rx="1.5" fill="white" stroke="black"/>
<path d="M79.4352 4.5H79.4352C79.5898 4.34544 79.6488 4.19088 79.6565 4.05109C79.5029 4.07636 79.3635 4.11057 79.2371 4.15273L79.4352 4.5ZM79.4352 4.5H79.4353H79.4358H79.4379H79.4387H79.4624H79.5067H79.8636H79.4352ZM78.5 6.74247C78.5 6.08704 78.5119 5.54292 78.7304 5.14688C78.8915 4.8549 79.2212 4.55705 80.0797 4.50726C80.7193 4.55135 81.1316 4.79113 81.4416 5.08464C81.7161 5.34458 81.9012 5.62825 82.0971 5.9286C82.1737 6.04591 82.2518 6.16575 82.3377 6.28772C82.8387 6.99979 84.6511 10.2799 85.1705 11.2382C85.2813 11.4426 85.3913 11.7046 85.4521 11.9759C85.5135 12.2499 85.5176 12.5012 85.4544 12.7066C85.3962 12.896 85.2719 13.0784 85.0028 13.2243C84.719 13.3782 84.2561 13.5 83.5205 13.5H83.5022H83.484H83.466H83.448H83.4302H83.4125H83.395H83.3775H83.3602H83.343H83.3259H83.3089H83.2921H83.2754H83.2588H83.2423H83.2259H83.2096H83.1935H83.1775H83.1615H83.1457H83.1301H83.1145H83.099H83.0837H83.0685H83.0533H83.0383H83.0234H83.0087H82.994H82.9794H82.965H82.9506H82.9364H82.9223H82.9082H82.8943H82.8805H82.8668H82.8532H82.8397H82.8264H82.8131H82.7999H82.7868H82.7739H82.761H82.7482H82.7356H82.723H82.7105H82.6982H82.6859H82.6738H82.6617H82.6497H82.6379H82.6261H82.6144H82.6029H82.5914H82.58H82.5687H82.5575H82.5464H82.5354H82.5245H82.5137H82.503H82.4924H82.4818H82.4714H82.461H82.4508H82.4406H82.4305H82.4205H82.4106H82.4008H82.3911H82.3814H82.3719H82.3624H82.353H82.3437H82.3345H82.3254H82.3163H82.3074H82.2985H82.2897H82.281H82.2724H82.2638H82.2553H82.247H82.2386H82.2304H82.2223H82.2142H82.2062H82.1983H82.1905H82.1827H82.175H82.1674H82.1599H82.1524H82.1451H82.1378H82.1305H82.1234H82.1163H82.1093H82.1023H82.0955H82.0887H82.082H82.0753H82.0687H82.0622H82.0557H82.0494H82.0431H82.0368H82.0306H82.0245H82.0185H82.0125H82.0066H82.0007H81.995H81.9892H81.9836H81.978H81.9725H81.967H81.9616H81.9563H81.951H81.9457H81.9406H81.9355H81.9304H81.9255H81.9205H81.9157H81.9108H81.9061H81.9014H81.8967H81.8922H81.8876H81.8831H81.8787H81.8743H81.87H81.8658H81.8615H81.8574H81.8533H81.8492H81.8452H81.8413H81.8373H81.8335H81.8297H81.8259H81.8222H81.8185H81.8149H81.8113H81.8078H81.8043H81.8009H81.7975H81.7941H81.7908H81.7876H81.7844H81.7812H81.778H81.775H81.7719H81.7689H81.7659H81.763H81.7601H81.7572H81.7544H81.7516H81.7489H81.7462H81.7435H81.7409H81.7383H81.7358H81.7332H81.7307H81.7283H81.7259H81.7235H81.7211H81.7188H81.7165H81.7142H81.712H81.7098H81.7076H81.7055H81.7034H81.7013H81.6992H81.6972H81.6952H81.6932H81.6913H81.6893H81.6874H81.6856H81.6837H81.6819H81.6801H81.6783H81.6765H81.6748H81.6731H81.6714H81.6697H81.6681H81.6664H81.6648H81.6632H81.6617H81.6601H81.6586H81.6571H81.6555H81.6541H81.6526H81.6511H81.6497H81.6483H81.6468H81.6454H81.6441H81.6427H81.6413H81.64H81.6386H81.6373H81.636H81.6347H81.6334H81.6321H81.6308H81.6295H81.6283H81.627H81.6258H81.6245H81.6233H81.6221H81.6208H81.6196H81.6184H81.6172H81.616H81.6147H81.6135H81.6123H81.6111H81.6099H81.6087H81.6075H81.6063H81.6051H81.6039H81.6027H81.6015H81.6003H81.5991H81.5979H81.5966H81.5954H81.5942H81.5929H81.5917H81.5905H81.5892H81.5879H81.5867H81.5854H81.5841H81.5828H81.5815H81.5802H81.5789H81.5775H81.5762H81.5748H81.5735H81.5721H81.5707H81.5693H81.5678H81.5664H81.565H81.5635H81.562H81.5605H81.559H81.5575H81.5559H81.5543H81.5528H81.5511H81.5495H81.5479H81.5462H81.5445H81.5428H81.5411H81.5393H81.5376H81.5358H81.534H81.5321H81.5303H81.5284H81.5264H81.5245H81.5225H81.5205H81.5185H81.5165H81.5144H81.5123H81.5102H81.508H81.5058H81.5036H81.5013H81.499H81.4967H81.4944H81.492H81.4896H81.4871H81.4847H81.4822H81.4796H81.477H81.4744H81.4717H81.4691H81.4663H81.4636H81.4608H81.4579H81.455H81.4521H81.4492H81.4462H81.4431H81.4401H81.4369H81.4338H81.4306H81.4273H81.424H81.4207H81.4173H81.4139H81.4104H81.4069H81.4034H81.3998H81.3961H81.3924H81.3887H81.3849H81.381H81.3771H81.3732H81.3692H81.3652H81.3611H81.3569H81.3527H81.3485H81.3442H81.3398H81.3354H81.331H81.3264H81.3219H81.3172H81.3126H81.3078H81.303H81.2982H81.2933H81.2883H81.2833H81.2782H81.2731H81.2679H81.2626H81.2573H81.2519H81.2464H81.2409H81.2354H81.2297H81.224H81.2183H81.2124H81.2065H81.2006H81.1946H81.1885H81.1823H81.1761H81.1698H81.1635H81.157H81.1506H81.144H81.1374H81.1307H81.1239H81.117H81.1101H81.1031H81.0961H81.0889H81.0817H81.0745H81.0671H81.0597H81.0522H81.0446H81.0369H81.0292H81.0214H81.0135H81.0056H80.9975H80.9894H80.9812H80.9729H80.9646H80.9561H80.9476H80.939H80.9303H80.9216H80.9127H80.9038H80.8948H80.8857H80.8765H80.8672H80.8579H80.8484H80.8389H80.8293H80.8196H80.8098H80.7999H80.7899H80.7799H80.7697H80.7595H80.7492H80.7388H80.7283H80.7177H80.707H80.6962H80.6853H80.6744H80.6633H80.6521H80.6409H80.6295H80.6181H80.6065H80.5949H80.5832H80.5713H80.5594H80.5474H80.5353H80.523H80.5107H80.4983H80.4858H80.4731H80.4604H80.4476H80.4346H80.4216H80.4085H80.3952H80.3819H80.3684H80.3548H80.3412C79.3459 13.5 78.926 13.0922 78.7242 12.7474C78.6137 12.5587 78.5564 12.3656 78.5273 12.2168C78.513 12.1433 78.5061 12.0834 78.5028 12.0443C78.5012 12.0248 78.5005 12.0107 78.5002 12.003L78.5 11.9971V11.9969V11.9963V11.9955V11.9945V11.9935V11.9923V11.9911V11.9898V11.9884V11.987V11.9854V11.9838V11.982V11.9783V11.9742V11.9698V11.9651V11.96V11.9573V11.9546V11.9518V11.9489V11.9428V11.9364V11.9297V11.9227V11.9154V11.9077V11.8997V11.8914V11.8829V11.8785V11.874V11.8648V11.8553V11.8455V11.8354V11.8251V11.8144V11.8034V11.7922V11.7865V11.7807V11.7689V11.7629V11.7568V11.7444V11.7318V11.7058V11.6991V11.6923V11.6855V11.6786V11.6505V11.6213V11.6138V11.6063V11.5911V11.5599V11.5278V11.5196V11.5113V11.4947V11.4606V11.4257V11.4169V11.4079V11.3899V11.3532V11.3346V11.3252V11.3157V11.2773V11.2382V11.2283V11.2183V11.1982V11.1575V11.1368V11.1264V11.116V11.0309V10.8524V10.6641V10.5666V10.5419V10.5296V10.5171V10.4672V10.4167V10.4041V10.3914V10.3786V10.3659V10.3146V10.2888V10.2758V10.2629V10.1584V10.132V10.1188V10.1056V10.0791V10.0658V10.0525V9.99904V9.97222V9.95879V9.94534V9.89137V9.83716V6.74247ZM81.0186 4.49996C81.0157 4.49704 80.8719 4.35164 80.8173 4.14045C80.9454 4.18204 81.0646 4.23175 81.1757 4.28807C81.1407 4.35775 81.0898 4.42888 81.0187 4.5L81.0186 4.49996Z" fill="white" stroke="black"/>
<line x1="44" y1="37.5" x2="59" y2="37.5" stroke="black"/>
<line x1="6" y1="37.5" x2="21" y2="37.5" stroke="black"/>
<circle cx="77.46" cy="37.5" r="7.5" fill="white" stroke="black" stroke-width="2"/>
<circle cx="29.3799" cy="37.5" r="7.5" fill="white" stroke="black" stroke-width="2"/>
<circle cx="75.5801" cy="37.5" r="7.5" fill="white" stroke="black" stroke-width="2"/>
<circle cx="27.5" cy="37.5" r="7.5" fill="white" stroke="black" stroke-width="2"/>
<path d="M109.781 6.75725L109.781 6.75743L109.781 6.75747L109.781 6.75763L109.782 6.75778L109.791 6.77437L109.803 6.79061L109.803 6.79068L109.803 6.79108L109.805 6.7928L109.81 6.79999L109.83 6.82883C109.848 6.85432 109.875 6.89211 109.909 6.94086C109.978 7.03836 110.077 7.17963 110.197 7.35396C110.437 7.70282 110.762 8.18303 111.103 8.70912C111.798 9.78348 112.509 10.9793 112.735 11.6581C112.94 12.2721 112.826 12.7275 112.615 13.0219C112.396 13.3292 112.047 13.5 111.71 13.5L95.8107 13.5C94.8267 13.5 94.4367 13.2703 94.2407 13.0793C94.1323 12.9737 94.0535 12.8519 93.9683 12.7003C93.9557 12.678 93.9421 12.653 93.9274 12.6261C93.8567 12.4969 93.7619 12.3236 93.6474 12.1835C93.5704 12.0894 93.3458 11.7478 93.0213 11.2276C92.7068 10.7233 92.3193 10.0856 91.9282 9.43104C91.1411 8.11382 90.3562 6.75619 90.1163 6.27639C89.9422 5.9282 89.9552 5.51159 90.2106 5.18015C90.4678 4.84624 91.0508 4.5 92.2099 4.5H106.71C107.506 4.5 108.259 5.00603 108.856 5.60355C109.146 5.89347 109.38 6.18521 109.541 6.40506C109.621 6.51455 109.683 6.60509 109.724 6.66717C109.744 6.69818 109.759 6.722 109.769 6.73743L109.779 6.75411L109.781 6.75725Z" stroke="black"/>
<rect x="101.5" y="21" width="13" height="18" rx="2" fill="white"/>
<line x1="99.5" y1="24" x2="115.5" y2="24" stroke="black"/>
<line x1="99.5" y1="28" x2="115.5" y2="28" stroke="black"/>
<line x1="99.5" y1="32" x2="115.5" y2="32" stroke="black"/>
<line x1="99.5" y1="36" x2="115.5" y2="36" stroke="black"/>
</svg>
