<svg width="1192" height="380" viewBox="0 0 1192 380" fill="none" xmlns="http://www.w3.org/2000/svg">
<circle cx="1083.68" cy="312" r="60" fill="black" stroke="#F9CE4E" stroke-width="16"/>
<circle cx="699.039" cy="312" r="60" fill="black" stroke="#F9CE4E" stroke-width="16"/>
<circle cx="1068.64" cy="312" r="60" fill="black" stroke="#F9CE4E" stroke-width="16"/>
<circle cx="684" cy="312" r="60" fill="black" stroke="#F9CE4E" stroke-width="16"/>
<mask id="path-5-inside-1_934_6061" fill="white">
<path fill-rule="evenodd" clip-rule="evenodd" d="M727.767 14.6992C616.685 15.6714 518.201 16.5333 505.504 16.5333C476.384 16.5333 456 37.5 456 63V124H440V291.586C440 317.655 461.056 340 482.112 340H1154.4C1192 340 1192 299.5 1192 299.5V156C1192 138.532 1183.66 130.599 1176.08 126.997C1168 113.603 1155.1 91.8322 1143.88 71.2258C1143.63 70.7543 1143.37 70.2842 1143.12 69.8155C1125.58 37.5736 1111.67 12 1063.65 12C1036.18 12 871.437 13.4418 727.767 14.6992Z"/>
</mask>
<path fill-rule="evenodd" clip-rule="evenodd" d="M727.767 14.6992C616.685 15.6714 518.201 16.5333 505.504 16.5333C476.384 16.5333 456 37.5 456 63V124H440V291.586C440 317.655 461.056 340 482.112 340H1154.4C1192 340 1192 299.5 1192 299.5V156C1192 138.532 1183.66 130.599 1176.08 126.997C1168 113.603 1155.1 91.8322 1143.88 71.2258C1143.63 70.7543 1143.37 70.2842 1143.12 69.8155C1125.58 37.5736 1111.67 12 1063.65 12C1036.18 12 871.437 13.4418 727.767 14.6992Z" fill="black"/>
<path d="M727.767 14.6992L727.627 -1.30016L727.767 14.6992ZM456 124V140H472V124H456ZM440 124V108H424V124H440ZM1176.08 126.997L1162.38 135.259L1164.86 139.381L1169.21 141.447L1176.08 126.997ZM1143.88 71.2258L1157.94 63.5768L1157.94 63.576L1143.88 71.2258ZM1143.12 69.8155L1157.17 62.1705L1157.17 62.1699L1143.12 69.8155ZM505.504 32.5333C518.295 32.5333 616.904 31.6701 727.907 30.6986L727.627 -1.30016C616.467 -0.32729 518.108 0.533334 505.504 0.533334V32.5333ZM472 63C472 46.871 484.677 32.5333 505.504 32.5333V0.533334C468.091 0.533334 440 28.1291 440 63H472ZM472 124V63H440V124H472ZM440 140H456V108H440V140ZM456 291.586V124H424V291.586H456ZM482.112 324C477.209 324 470.747 321.244 465.096 314.914C459.57 308.724 456 300.334 456 291.586H424C424 308.907 430.958 324.724 441.224 336.224C451.365 347.583 465.959 356 482.112 356V324ZM1154.4 324H482.112V356H1154.4V324ZM1192 299.5C1176 299.5 1176 299.493 1176 299.486C1176 299.484 1176 299.477 1176 299.473C1176 299.464 1176 299.456 1176 299.449C1176 299.434 1176 299.422 1176 299.411C1176 299.391 1176 299.38 1176 299.377C1176 299.371 1176 299.399 1176 299.46C1175.99 299.581 1175.99 299.828 1175.96 300.182C1175.91 300.894 1175.81 302.007 1175.6 303.382C1175.16 306.21 1174.32 309.716 1172.79 313.013C1171.27 316.276 1169.3 318.881 1166.81 320.676C1164.47 322.355 1160.74 324 1154.4 324V356C1166.86 356 1177.23 352.583 1185.47 346.668C1193.55 340.869 1198.63 333.349 1201.81 326.487C1204.98 319.659 1206.49 313.04 1207.22 308.275C1207.6 305.852 1207.79 303.801 1207.89 302.299C1207.94 301.545 1207.97 300.922 1207.98 300.45C1207.99 300.214 1207.99 300.015 1208 299.856C1208 299.776 1208 299.707 1208 299.647C1208 299.618 1208 299.59 1208 299.566C1208 299.554 1208 299.542 1208 299.531C1208 299.525 1208 299.518 1208 299.515C1208 299.507 1208 299.5 1192 299.5ZM1176 156V299.5H1208V156H1176ZM1169.21 141.447C1170.92 142.263 1172.4 143.395 1173.51 145.084C1174.58 146.718 1176 149.909 1176 156H1208C1208 144.623 1205.25 135.114 1200.25 127.514C1195.3 119.969 1188.81 115.333 1182.95 112.547L1169.21 141.447ZM1129.83 78.8748C1141.21 99.7884 1154.26 121.793 1162.38 135.259L1189.78 118.735C1181.75 105.413 1168.99 83.8761 1157.94 63.5768L1129.83 78.8748ZM1129.06 77.4604C1129.32 77.9293 1129.57 78.4015 1129.83 78.8756L1157.94 63.576C1157.68 63.1071 1157.43 62.6391 1157.17 62.1705L1129.06 77.4604ZM1063.65 28C1084.42 28 1095.9 33.3749 1104.16 40.7509C1113.37 48.9766 1119.97 60.7404 1129.06 77.4611L1157.17 62.1699C1148.73 46.6487 1139.6 29.5047 1125.47 16.8832C1110.39 3.41194 1090.9 -4 1063.65 -4V28ZM727.907 30.6986C871.651 29.4406 1036.27 28 1063.65 28V-4C1036.09 -4 871.224 -2.55691 727.627 -1.30016L727.907 30.6986Z" fill="#F9CE4E" mask="url(#path-5-inside-1_934_6061)"/>
<rect x="968" y="140" width="208" height="184" fill="#F9CE4E"/>
<path d="M289.504 24.5333C302.24 24.5333 400.75 23.6712 511.796 22.6993C528.105 22.5565 544.684 22.4114 561.301 22.2664C691.144 21.1327 823.343 20 847.653 20C870.356 20 883.907 26.0491 893.93 35.1863C904.315 44.6529 911.504 57.8627 920.477 74.3501L920.858 75.0503C929.882 91.6306 939.97 108.923 947.785 122.045C949.975 125.723 951.989 129.076 953.754 132H248V131.555V111.062V63C248 42.1855 264.53 24.5333 289.504 24.5333Z" fill="black" stroke="#F9CE4E" stroke-width="16"/>
<path d="M968 312.499V312.495V312.494V312.488V312.488V312.481V312.478L968 312.477L968 312.466V312.451V312.433V312.413V312.39V312.364V312.336V312.305V312.272V312.236V312.197V312.155V312.111V312.065V312.016V311.964V311.91V311.853V311.794V311.732V311.667V311.6V311.531V311.459V311.385V311.308V311.228V311.147V311.062V310.976V310.887V310.795V310.701V310.605V310.506V310.405V310.301V310.196V310.087V309.977V309.864V309.749V309.631V309.511V309.389V309.265V309.138V309.009V308.878V308.744V308.608V308.47V308.33V308.188V308.043V307.896V307.747V307.596V307.443V307.287V307.129V306.969V306.807V306.643V306.477V306.309V306.138V305.966V305.791V305.614V305.436V305.255V305.072V304.887V304.7V304.511V304.32V304.127V303.932V303.735V303.537V303.336V303.133V302.928V302.721V302.513V302.302V302.09V301.876V301.659V301.441V301.221V301V300.776V300.55V300.323V300.094V299.863V299.63V299.396V299.159V298.921V298.681V298.439V298.196V297.951V297.704V297.455V297.205V296.953V296.699V296.444V296.187V295.928V295.668V295.405V295.142V294.876V294.609V294.341V294.071V293.799V293.526V293.251V292.974V292.696V292.416V292.135V291.853V291.568V291.283V290.995V290.707V290.416V290.125V289.832V289.537V289.241V288.943V288.645V288.344V288.042V287.739V287.435V287.129V286.822V286.513V286.203V285.891V285.579V285.265V284.949V284.633V284.315V283.995V283.675V283.353V283.03V282.706V282.38V282.053V281.725V281.396V281.065V280.734V280.401V280.067V279.732V279.395V279.058V278.719V278.379V278.038V277.696V277.353V277.009V276.663V276.317V275.969V275.621V275.271V274.92V274.569V274.216V273.862V273.507V273.152V272.795V272.437V272.078V271.719V271.358V270.997V270.634V270.271V269.906V269.541V269.175V268.808V268.44V268.071V267.702V267.331V266.96V266.588V266.215V265.841V265.466V265.091V264.714V264.337V263.96V263.581V263.202V262.822V262.441V262.06V261.678V261.295V260.911V260.527V260.142V259.756V259.37V258.983V258.596V258.207V257.819V257.429V257.039V256.648V256.257V255.865V255.473V255.08V254.687V254.293V253.898V253.503V253.108V252.711V252.315V251.918V251.52V251.122V250.724V250.325V249.926V249.526V249.126V248.725V248.324V247.923V247.521V247.119V246.716V246.313V245.91V245.507V245.103V244.698V244.294V243.889V243.484V243.079V242.673V242.267V241.861V241.454V241.048V240.641V240.234V239.826V239.419V239.011V238.603V238.195V237.787V237.378V236.97V236.561V236.152V235.743V235.334V234.925V234.516V234.107V233.697V233.288V232.878V232.469V232.059V231.649V231.24V230.83V230.421V230.011V229.601V229.192V228.782V228.373V227.963V227.554V227.145V226.735V226.326V225.917V225.508V225.1V224.691V224.282V223.874V223.466V223.058V222.65V222.242V221.835V221.427V221.02V220.613V220.207V219.8V219.394V218.988V218.583V218.177V217.772V217.368V216.963V216.559V216.155V215.752V215.348V214.946V214.543V214.141V213.739V213.338V212.937V212.537V212.137V211.737V211.338V210.939V210.541V210.143V209.745V209.348V208.952V208.556V208.16V207.765V207.371V206.977V206.584V206.191V205.799V205.407V205.016V204.625V204.236V203.846V203.458V203.07V202.682V202.295V201.909V201.524V201.139V200.755V200.371V199.989V199.607V199.225V198.845V198.465V198.086V197.708V197.33V196.953V196.577V196.202V195.827V195.454V195.081V194.709V194.338V193.967V193.598V193.229V192.862V192.495V192.129V191.764V191.4V191.037V190.674V190.313V189.952V189.593V189.234V188.877V188.52V188.165V187.81V187.457V187.104V186.753V186.402V186.053V185.705V185.357V185.011V184.666V184.322V183.979V183.637V183.296V182.957V182.618V182.281V181.945V181.61V181.276V180.944V180.612V180.282V179.953V179.625V179.299V178.973V178.649V178.326V178.005V177.685V177.366V177.048V176.732V176.417V176.103V175.79V175.479V175.17V174.861V174.554V174.249V173.944V173.641V173.34V173.04V172.741V172.444V172.148V171.854V171.561V171.27V170.98V170.692V170.405V170.119V169.836V169.553V169.272V168.993V168.715V168.439V168.165V167.892V167.62V167.35V167.082V166.816V166.551V166.287V166.025V165.765V165.507V165.25V164.995V164.742V164.49V164.24V163.992V163.745V163.501V163.258V163.016V162.777V162.539V162.303V162.069V161.836V161.606V161.377V161.15V160.925V160.702V160.48V160.261V160.043V159.827V159.614V159.402V159.191V158.983V158.777V158.573V158.37C968 143.811 962.315 137.876 957.815 135.115C955.31 133.577 952.747 132.779 950.772 132.375C949.798 132.175 949.009 132.081 948.504 132.037C948.253 132.015 948.077 132.005 947.987 132.002L947.945 132L947.942 132L947.966 132L947.982 132L947.991 132C947.995 132 948 132 948 124L968 312.499ZM968 312.499L968 312.513C967.999 312.557 967.998 312.64 967.994 312.758C967.987 312.995 967.973 313.375 967.942 313.876C967.88 314.882 967.753 316.362 967.494 318.156C966.971 321.785 965.94 326.486 963.956 331.076C961.973 335.666 959.168 339.848 955.252 342.868C951.445 345.804 946.138 348 938.4 348H938.173H937.933H937.68H937.413H937.134H936.841H936.536H936.218H935.887H935.543H935.186H934.817H934.435H934.041H933.634H933.215H932.783H932.339H931.882H931.413H930.932H930.439H929.934H929.417H928.888H928.347H927.794H927.229H926.652H926.064H925.464H924.852H924.229H923.594H922.948H922.29H921.621H920.941H920.25H919.547H918.833H918.108H917.372H916.625H915.867H915.098H914.319H913.528H912.727H911.915H911.093H910.26H909.416H908.562H907.698H906.823H905.938H905.043H904.137H903.222H902.296H901.36H900.414H899.459H898.493H897.518H896.532H895.537H894.533H893.519H892.495H891.461H890.419H889.367H888.305H887.234H886.154H885.065H883.966H882.859H881.742H880.617H879.482H878.339H877.187H876.026H874.856H873.677H872.49H871.295H870.091H868.878H867.657H866.428H865.19H863.944H862.69H861.428H860.158H858.879H857.593H856.299H854.997H853.687H852.369H851.043H849.71H848.369H847.021H845.665H844.302H842.931H841.553H840.167H838.775H837.375H835.968H834.554H833.133H831.704H830.269H828.827H827.379H825.923H824.461H822.992H821.516H820.034H818.545H817.05H815.549H814.041H812.527H811.006H809.48H807.947H806.408H804.863H803.312H801.755H800.193H798.624H797.05H795.47H793.884H792.293H790.696H789.093H787.485H785.872H784.253H782.629H781H779.366H777.726H776.082H774.432H772.777H771.118H769.453H767.784H766.11H764.431H762.747H761.059H759.366H757.669H755.968H754.262H752.551H750.836H749.117H747.394H745.667H743.935H742.2H740.461H738.717H736.97H735.219H733.464H731.705H729.943H728.177H726.408H724.635H722.858H721.078H719.295H717.509H715.719H713.926H712.13H710.331H708.528H706.723H704.915H703.104H701.29H699.474H697.654H695.832H694.008H692.18H690.351H688.518H686.684H684.847H683.008H681.166H679.322H677.476H675.628H673.778H671.926H670.073H668.217H666.359H664.5H662.639H660.776H658.911H657.045H655.178H653.309H651.439H649.567H647.694H645.82H643.944H642.067H640.19H638.311H636.431H634.551H632.669H630.787H628.903H627.02H625.135H623.25H621.364H619.478H617.591H615.704H613.816H611.929H610.041H608.152H606.264H604.376H602.487H600.599H598.71H596.822H594.934H593.046H591.158H589.271H587.384H585.497H583.611H581.726H579.841H577.957H576.073H574.19H572.308H570.427H568.547H566.668H564.79H562.912H561.036H559.161H557.288H555.415H553.544H551.675H549.806H547.94H546.074H544.211H542.349H540.488H538.63H536.773H534.918H533.065H531.214H529.365H527.518H525.674H523.831H521.99H520.152H518.316H516.483H514.652H512.824H510.998H509.174H507.353H505.535H503.72H501.908H500.098H498.291H496.488H494.687H492.889H491.095H489.303H487.515H485.73H483.949H482.17H480.396H478.624H476.857H475.093H473.332H471.575H469.822H468.073H466.328H464.586H462.849H461.115H459.386H457.66H455.939H454.222H452.51H450.801H449.098H447.398H445.703H444.013H442.327H440.645H438.969H437.297H435.63H433.968H432.311H430.659H429.011H427.369H425.732H424.1H422.474H420.852H419.236H417.626H416.02H414.421H412.826H411.238H409.655H408.078H406.506H404.94H403.381H401.827H400.279H398.737H397.201H395.671H394.147H392.63H391.119H389.614H388.116H386.624H385.138H383.659H382.187H380.721H379.262H377.81H376.365H374.926H373.494H372.07H370.652H369.241H367.838H366.441H365.052H363.671H362.296H360.929H359.569H358.217H356.872H355.535H354.206H352.884H351.57H350.264H348.966H347.675H346.393H345.118H343.852H342.594H341.344H340.102H338.868H337.643H336.426H335.218H334.018H332.826H331.644H330.469H329.304H328.147H326.999H325.86H324.73H323.609H322.497H321.394H320.3H319.215H318.139H317.073H316.016H314.969H313.93H312.902H311.883H310.873H309.873H308.883H307.903H306.932H305.971H305.02H304.08H303.149H302.228H301.317H300.417H299.526H298.646H297.777H296.917H296.068H295.23H294.402H293.585H292.778H291.983H291.197H290.423H289.66H288.907H288.165H287.435H286.715H286.007H285.31H284.624H283.949H283.285H282.633H281.993H281.364H280.746H280.14H279.546H278.963H278.392H277.833H277.286H276.751H276.227H275.716H275.217H274.73H274.255H273.792H273.342H272.904H272.478H272.064H271.664H271.275H270.9H270.537H270.186H269.849H269.524H269.212H268.913H268.627H268.354H268.094H267.847H267.614H267.393H267.186H266.992H266.812H266.645H266.491H266.351H266.225H266.112C258.623 348 250.169 343.636 243.312 335.386C236.54 327.238 232 316.025 232 304V303.835V303.666V303.495V303.321V303.144V302.965V302.783V302.598V302.41V302.22V302.026V301.83V301.632V301.431V301.227V301.02V300.811V300.599V300.385V300.168V299.948V299.726V299.501V299.274V299.044V298.811V298.576V298.339V298.099V297.856V297.612V297.364V297.114V296.862V296.608V296.351V296.091V295.829V295.565V295.299V295.03V294.758V294.485V294.209V293.931V293.651V293.368V293.083V292.796V292.506V292.215V291.921V291.625V291.326V291.026V290.723V290.419V290.112V289.803V289.492V289.179V288.863V288.546V288.227V287.905V287.582V287.256V286.929V286.599V286.268V285.934V285.599V285.261V284.922V284.581V284.237V283.892V283.545V283.197V282.846V282.493V282.139V281.783V281.425V281.065V280.703V280.34V279.975V279.608V279.239V278.869V278.497V278.123V277.747V277.37V276.991V276.611V276.229V275.845V275.459V275.072V274.684V274.294V273.902V273.509V273.114V272.718V272.32V271.92V271.519V271.117V270.713V270.308V269.901V269.493V269.084V268.673V268.26V267.846V267.431V267.015V266.597V266.178V265.757V265.336V264.913V264.488V264.062V263.636V263.207V262.778V262.347V261.916V261.483V261.048V260.613V260.177V259.739V259.3V258.86V258.419V257.977V257.534V257.089V256.644V256.198V255.75V255.302V254.852V254.402V253.95V253.498V253.044V252.59V252.135V251.679V251.221V250.763V250.305V249.845V249.384V248.923V248.46V247.997V247.533V247.068V246.603V246.136V245.669V245.201V244.733V244.263V243.793V243.322V242.851V242.379V241.906V241.433V240.958V240.484V240.008V239.532V239.056V238.579V238.101V237.623V237.144V236.665V236.185V235.704V235.224V234.742V234.26V233.778V233.295V232.812V232.329V231.845V231.36V230.876V230.391V229.905V229.419V228.933V228.447V227.96V227.473V226.985V226.498V226.01V225.522V225.033V224.545V224.056V223.567V223.078V222.589V222.099V221.609V221.12V220.63V220.14V219.649V219.159V218.669V218.179V217.688V217.198V216.707V216.217V215.726V215.236V214.745V214.255V213.765V213.274V212.784V212.294V211.804V211.314V210.824V210.334V209.845V209.355V208.866V208.377V207.888V207.4V206.911V206.423V205.935V205.448V204.96V204.473V203.986V203.5V203.014V202.528V202.043V201.557V201.073V200.588V200.104V199.621V199.138V198.655V198.173V197.691V197.209V196.728V196.248V195.768V195.289V194.81V194.332V193.854V193.377V192.9V192.424V191.949V191.474V191V190.526V190.054V189.581V189.11V188.639V188.169V187.7V187.231V186.763V186.296V185.829V185.364V184.899V184.435V183.972V183.509V183.048V182.587V182.127V181.668V181.21V180.753V180.297V179.841V179.387V178.933V178.481V178.029V177.579V177.129V176.681V176.233V175.787V175.341V174.897V174.454V174.011V173.57V173.13V172.691V172.254V171.817V171.382V170.947V170.514V170.082V169.652V169.222V168.794V168.367V167.941V167.517V167.094V166.672V166.251V165.832V165.414V164.998V164.583V164.169V163.756V163.345V162.936V162.527V162.121V161.715V161.311V160.909V160.508V160.108V159.71V159.314V158.919V158.526V158.134V157.744V157.355V156.968V156.582V156.199V155.816V155.436V155.057V154.68V154.304V153.93V153.558V153.187V152.819V152.452V152.086V151.723V151.361V151.001V150.643V150.287V149.932V149.58V149.229V148.88V148.533V148.188V147.844V147.503V147.163V146.826V146.49V146.157V145.825V145.495V145.168V144.842V144.519V144.197V143.877V143.56V143.245V142.931V142.62V142.311V142.004V141.699V141.396V141.096V140.798V140.501V140.207V139.916V139.626V139.339V139.054V138.771V138.49V138.212V137.936V137.662V137.391V137.122V136.855V136.591V136.329V136.069V135.812V135.557V135.305V135.055V134.808V134.563V134.32V134.08V133.842V133.607V133.375V133.145V132.917V132.692V132.47V132.25V132.033V132L968 312.499Z" fill="#F9CE4E" stroke="black" stroke-width="16"/>
<rect x="276" y="48" width="72" height="72" rx="12" fill="black" stroke="#F9CE4E" stroke-width="8"/>
<rect x="564" y="48" width="72" height="72" rx="12" fill="black" stroke="#F9CE4E" stroke-width="8"/>
<rect x="372" y="48" width="72" height="72" rx="12" fill="black" stroke="#F9CE4E" stroke-width="8"/>
<rect x="660" y="48" width="72" height="72" rx="12" fill="black" stroke="#F9CE4E" stroke-width="8"/>
<rect x="756" y="48" width="72" height="72" rx="12" fill="black" stroke="#F9CE4E" stroke-width="8"/>
<rect x="468" y="48" width="72" height="72" rx="12" fill="black" stroke="#F9CE4E" stroke-width="8"/>
<path d="M852 65.9397C852 60.6963 852.095 56.3433 853.843 53.175C855.132 50.8392 857.77 48.4564 864.638 48.0581C869.755 48.4108 873.053 50.329 875.533 52.6772C877.729 54.7566 879.209 57.026 880.777 59.4288C881.389 60.3672 882.015 61.326 882.701 62.3018C886.709 67.9983 901.209 94.2393 905.364 101.906C906.25 103.541 907.13 105.637 907.616 107.807C908.108 109.999 908.141 112.01 907.635 113.652C907.169 115.168 906.176 116.627 904.023 117.795C901.752 119.026 898.049 120 892.164 120H892.018H891.872H891.728H891.584H891.442H891.3H891.16H891.02H890.882H890.744H890.607H890.472H890.337H890.203H890.07H889.938H889.807H889.677H889.548H889.42H889.292H889.166H889.041H888.916H888.792H888.67H888.548H888.427H888.307H888.188H888.069H887.952H887.835H887.72H887.605H887.491H887.378H887.266H887.155H887.044H886.935H886.826H886.718H886.611H886.505H886.399H886.295H886.191H886.088H885.986H885.884H885.784H885.684H885.585H885.487H885.39H885.294H885.198H885.103H885.009H884.915H884.823H884.731H884.64H884.55H884.46H884.371H884.283H884.196H884.11H884.024H883.939H883.855H883.771H883.688H883.606H883.525H883.444H883.364H883.285H883.206H883.128H883.051H882.975H882.899H882.824H882.75H882.676H882.603H882.531H882.459H882.388H882.318H882.248H882.179H882.11H882.043H881.976H881.909H881.843H881.778H881.714H881.65H881.586H881.524H881.462H881.4H881.339H881.279H881.22H881.161H881.102H881.044H880.987H880.93H880.874H880.819H880.764H880.709H880.656H880.602H880.55H880.498H880.446H880.395H880.344H880.295H880.245H880.196H880.148H880.1H880.053H880.006H879.96H879.914H879.869H879.824H879.78H879.736H879.693H879.65H879.608H879.566H879.525H879.484H879.444H879.404H879.364H879.325H879.287H879.249H879.211H879.174H879.137H879.101H879.065H879.03H878.995H878.96H878.926H878.892H878.859H878.826H878.794H878.762H878.73H878.699H878.668H878.637H878.607H878.578H878.548H878.519H878.491H878.462H878.435H878.407H878.38H878.353H878.327H878.301H878.275H878.249H878.224H878.2H878.175H878.151H878.127H878.104H878.081H878.058H878.035H878.013H877.991H877.97H877.948H877.927H877.907H877.886H877.866H877.846H877.826H877.807H877.788H877.769H877.75H877.732H877.714H877.696H877.678H877.661H877.644H877.627H877.61H877.594H877.578H877.561H877.546H877.53H877.515H877.499H877.484H877.47H877.455H877.441H877.426H877.412H877.398H877.385H877.371H877.358H877.345H877.332H877.319H877.306H877.293H877.281H877.269H877.256H877.244H877.232H877.221H877.209H877.198H877.186H877.175H877.164H877.152H877.141H877.131H877.12H877.109H877.098H877.088H877.077H877.067H877.057H877.047H877.036H877.026H877.016H877.006H876.996H876.986H876.976H876.967H876.957H876.947H876.937H876.928H876.918H876.908H876.899H876.889H876.879H876.87H876.86H876.851H876.841H876.831H876.822H876.812H876.802H876.793H876.783H876.773H876.763H876.753H876.744H876.734H876.724H876.714H876.703H876.693H876.683H876.673H876.662H876.652H876.642H876.631H876.62H876.609H876.599H876.588H876.577H876.565H876.554H876.543H876.531H876.52H876.508H876.496H876.484H876.472H876.46H876.447H876.435H876.422H876.409H876.396H876.383H876.37H876.356H876.343H876.329H876.315H876.301H876.286H876.272H876.257H876.242H876.227H876.212H876.196H876.18H876.164H876.148H876.132H876.115H876.098H876.081H876.064H876.046H876.029H876.011H875.992H875.974H875.955H875.936H875.917H875.897H875.877H875.857H875.837H875.816H875.795H875.774H875.752H875.731H875.709H875.686H875.663H875.64H875.617H875.593H875.569H875.545H875.52H875.495H875.47H875.445H875.419H875.392H875.366H875.339H875.311H875.283H875.255H875.227H875.198H875.169H875.139H875.109H875.079H875.048H875.017H874.985H874.954H874.921H874.888H874.855H874.822H874.788H874.753H874.719H874.683H874.648H874.611H874.575H874.538H874.5H874.463H874.424H874.385H874.346H874.306H874.266H874.226H874.184H874.143H874.101H874.058H874.015H873.971H873.927H873.883H873.838H873.792H873.746H873.7H873.652H873.605H873.557H873.508H873.459H873.409H873.359H873.308H873.256H873.204H873.152H873.099H873.045H872.991H872.936H872.881H872.825H872.769H872.712H872.654H872.596H872.537H872.477H872.417H872.357H872.296H872.234H872.171H872.108H872.044H871.98H871.915H871.85H871.783H871.716H871.649H871.581H871.512H871.443H871.372H871.302H871.23H871.158H871.085H871.012H870.938H870.863H870.787H870.711H870.634H870.557H870.478H870.399H870.32H870.239H870.158H870.076H869.993H869.91H869.826H869.741H869.656H869.57H869.483H869.395H869.306H869.217H869.127H869.036H868.945H868.852H868.759H868.665H868.571H868.475H868.379H868.282H868.184H868.086H867.986H867.886H867.785H867.683H867.581H867.477H867.373H867.268H867.162H867.055H866.947H866.839H866.729C858.767 120 855.408 116.738 853.793 113.979C852.91 112.47 852.451 110.925 852.219 109.734C852.104 109.146 852.049 108.667 852.023 108.354C852.01 108.198 852.004 108.086 852.002 108.024C852.001 108.001 852 107.985 852 107.977V107.977V107.971V107.964V107.956V107.948V107.939V107.929V107.919V107.908V107.896V107.883V107.87V107.856V107.826V107.794V107.759V107.721V107.68V107.659V107.637V107.614V107.591V107.542V107.491V107.438V107.382V107.323V107.262V107.198V107.132V107.063V107.028V106.992V106.918V106.842V106.764V106.683V106.6V106.515V106.427V106.338V106.292V106.245V106.151V106.103V106.054V105.956V105.855V105.646V105.593V105.539V105.484V105.429V105.204V104.97V104.911V104.85V104.729V104.479V104.222V104.157V104.091V103.957V103.685V103.406V103.335V103.263V103.119V102.826V102.677V102.601V102.526V102.219V101.905V101.826V101.746V101.586V101.26V101.095V101.012V100.928V100.247V98.8192V97.3127V96.533V96.3355V96.2364V96.1371V95.7373V95.3339V95.2325V95.1308V95.029V94.9269V94.5166V94.3102V94.2067V94.103V93.2668V93.056V92.9504V92.8445V92.6324V92.5261V92.4197V91.9923V91.7778V91.6703V91.5627V91.131V90.6973V65.9397Z" fill="black" stroke="#F9CE4E" stroke-width="8"/>
<line x1="576" y1="312" x2="696" y2="312" stroke="#F9CE4E" stroke-width="8"/>
<line x1="272" y1="312" x2="392" y2="312" stroke="#F9CE4E" stroke-width="8"/>
<circle cx="843.68" cy="312" r="60" fill="black" stroke="#F9CE4E" stroke-width="16"/>
<circle cx="459.039" cy="312" r="60" fill="black" stroke="#F9CE4E" stroke-width="16"/>
<circle cx="828.641" cy="312" r="60" fill="black" stroke="#F9CE4E" stroke-width="16"/>
<circle cx="444" cy="312" r="60" fill="black" stroke="#F9CE4E" stroke-width="16"/>
<path d="M1102.25 66.058L1102.25 66.0594L1102.25 66.0597L1102.25 66.061L1102.25 66.0623L1102.33 66.1949L1102.42 66.3249L1102.42 66.3255L1102.43 66.3286L1102.44 66.3424L1102.48 66.3999C1102.51 66.4513 1102.57 66.5287 1102.64 66.6307C1102.79 66.8346 1103 67.1369 1103.27 67.5269C1103.82 68.3069 1104.61 69.437 1105.57 70.8317C1107.5 73.6225 1110.1 77.4642 1112.82 81.6729C1118.38 90.2678 1124.07 99.8347 1125.88 105.265C1127.52 110.177 1126.61 113.82 1124.92 116.175C1123.17 118.634 1120.37 120 1117.68 120L990.485 120C982.613 120 979.494 118.162 977.926 116.635C977.058 115.79 976.428 114.815 975.746 113.603C975.646 113.424 975.536 113.224 975.419 113.009C974.854 111.975 974.096 110.589 973.18 109.468C972.564 108.715 970.767 105.982 968.17 101.82C965.654 97.7866 962.554 92.6848 959.425 87.4483C953.129 76.9106 946.85 66.0495 944.931 62.2111C943.538 59.4256 943.642 56.0927 945.685 53.4412C947.743 50.7699 952.406 48 961.68 48H1077.68C1084.05 48 1090.07 52.0482 1094.85 56.8284C1097.17 59.1477 1099.04 61.4817 1100.33 63.2405C1100.97 64.1164 1101.46 64.8407 1101.79 65.3373C1101.95 65.5854 1102.07 65.776 1102.15 65.8995C1102.17 65.9224 1102.18 65.943 1102.19 65.9612C1102.21 65.992 1102.22 66.016 1102.23 66.0329L1102.25 66.058Z" stroke="#F9CE4E" stroke-width="8"/>
<mask id="path-24-inside-2_934_6061" fill="white">
<path fill-rule="evenodd" clip-rule="evenodd" d="M114.945 295.409C104.003 301.226 91.517 304.522 78.2609 304.522C35.0386 304.522 0 269.483 0 226.261C0 183.039 35.0386 148 78.2609 148C118.596 148 151.805 178.514 156.061 217.718C180.658 219.694 200.004 240.282 200.004 265.389C200.004 291.802 178.591 313.215 152.178 313.215C137.134 313.215 123.712 306.269 114.945 295.409Z"/>
</mask>
<path fill-rule="evenodd" clip-rule="evenodd" d="M114.945 295.409C104.003 301.226 91.517 304.522 78.2609 304.522C35.0386 304.522 0 269.483 0 226.261C0 183.039 35.0386 148 78.2609 148C118.596 148 151.805 178.514 156.061 217.718C180.658 219.694 200.004 240.282 200.004 265.389C200.004 291.802 178.591 313.215 152.178 313.215C137.134 313.215 123.712 306.269 114.945 295.409Z" fill="black"/>
<path d="M114.945 295.409L127.394 285.359L119.097 275.081L107.435 281.281L114.945 295.409ZM156.061 217.718L140.154 219.445L141.583 232.606L154.779 233.666L156.061 217.718ZM107.435 281.281C98.749 285.899 88.8349 288.522 78.2609 288.522V320.522C94.199 320.522 109.258 316.553 122.456 309.537L107.435 281.281ZM78.2609 288.522C43.8751 288.522 16 260.647 16 226.261H-16C-16 278.32 26.202 320.522 78.2609 320.522V288.522ZM16 226.261C16 191.875 43.8751 164 78.2609 164V132C26.202 132 -16 174.202 -16 226.261H16ZM78.2609 164C110.339 164 136.77 188.273 140.154 219.445L171.967 215.991C166.839 168.756 126.853 132 78.2609 132V164ZM154.779 233.666C171.131 234.98 184.004 248.689 184.004 265.389H216.004C216.004 231.875 190.185 204.408 157.342 201.769L154.779 233.666ZM184.004 265.389C184.004 282.966 169.755 297.215 152.178 297.215V329.215C187.428 329.215 216.004 300.639 216.004 265.389H184.004ZM152.178 297.215C142.174 297.215 133.255 292.617 127.394 285.359L102.496 305.46C114.17 319.92 132.094 329.215 152.178 329.215V297.215Z" fill="#F9CE4E" mask="url(#path-24-inside-2_934_6061)"/>
<rect x="1036" y="180" width="104" height="144" rx="16" fill="black"/>
<line x1="1020" y1="204" x2="1148" y2="204" stroke="#F9CE4E" stroke-width="8"/>
<line x1="1020" y1="236" x2="1148" y2="236" stroke="#F9CE4E" stroke-width="8"/>
<line x1="1020" y1="268" x2="1148" y2="268" stroke="#F9CE4E" stroke-width="8"/>
<line x1="1020" y1="300" x2="1148" y2="300" stroke="#F9CE4E" stroke-width="8"/>
<path d="M948.571 4C934.857 4 928 20 928 20H1024C1024 20 1019.43 4 1003.43 4H948.571Z" fill="#F9CE4E" stroke="#F9CE4E" stroke-width="8"/>
<path d="M972.571 4C958.857 4 952 20 952 20H1048C1048 20 1043.43 4 1027.43 4H972.571Z" fill="black" stroke="#F9CE4E" stroke-width="8"/>
</svg>
