<svg width="732" height="289" viewBox="0 0 732 289" fill="none" xmlns="http://www.w3.org/2000/svg">
<circle cx="650.13" cy="236.716" r="45.3524" fill="white" stroke="black" stroke-width="12.094"/>
<circle cx="359.379" cy="236.716" r="45.3524" fill="white" stroke="black" stroke-width="12.094"/>
<circle cx="638.756" cy="236.716" r="45.3524" fill="white" stroke="black" stroke-width="12.094"/>
<circle cx="348.016" cy="236.716" r="45.3524" fill="white" stroke="black" stroke-width="12.094"/>
<mask id="path-5-inside-1_1091_9075" fill="white">
<path fill-rule="evenodd" clip-rule="evenodd" d="M381.1 11.9934C297.136 12.7282 222.694 13.3797 213.097 13.3797C191.086 13.3797 175.678 29.2279 175.678 48.5026V94.6108H163.584V221.285C163.584 240.989 179.5 257.879 195.415 257.879H703.579C732 257.879 732 227.266 732 227.266V118.799C732 105.595 725.694 99.5991 719.966 96.8761C713.861 86.7518 704.109 70.2961 695.631 54.7203C695.437 54.3639 695.244 54.0086 695.051 53.6543C681.794 29.2836 671.279 9.95312 634.986 9.95312C614.221 9.95312 489.696 11.043 381.1 11.9934Z"/>
</mask>
<path fill-rule="evenodd" clip-rule="evenodd" d="M381.1 11.9934C297.136 12.7282 222.694 13.3797 213.097 13.3797C191.086 13.3797 175.678 29.2279 175.678 48.5026V94.6108H163.584V221.285C163.584 240.989 179.5 257.879 195.415 257.879H703.579C732 257.879 732 227.266 732 227.266V118.799C732 105.595 725.694 99.5991 719.966 96.8761C713.861 86.7518 704.109 70.2961 695.631 54.7203C695.437 54.3639 695.244 54.0086 695.051 53.6543C681.794 29.2836 671.279 9.95312 634.986 9.95312C614.221 9.95312 489.696 11.043 381.1 11.9934Z" fill="white"/>
<path d="M381.1 11.9934L381.205 24.0869L381.1 11.9934ZM175.678 94.6108V106.705H187.772V94.6108H175.678ZM163.584 94.6108V82.5169H151.49V94.6108H163.584ZM732 227.266L719.906 227.266L719.906 227.266L732 227.266ZM719.966 96.8761L709.609 103.121L711.488 106.237L714.773 107.799L719.966 96.8761ZM695.631 54.7203L706.253 48.9386L706.253 48.9384L695.631 54.7203ZM695.051 53.6543L705.675 47.8758L705.675 47.8753L695.051 53.6543ZM213.097 25.4737C222.765 25.4737 297.301 24.8212 381.205 24.0869L380.994 -0.100104C296.97 0.635265 222.624 1.28579 213.097 1.28579V25.4737ZM187.772 48.5026C187.772 36.3111 197.354 25.4737 213.097 25.4737V1.28579C184.818 1.28579 163.584 22.1446 163.584 48.5026H187.772ZM187.772 94.6108V48.5026H163.584V94.6108H187.772ZM163.584 106.705H175.678V82.5169H163.584V106.705ZM175.678 221.285V94.6108H151.49V221.285H175.678ZM195.415 245.785C191.709 245.785 186.825 243.702 182.553 238.917C178.377 234.239 175.678 227.897 175.678 221.285H151.49C151.49 234.377 156.749 246.333 164.509 255.025C172.174 263.611 183.206 269.973 195.415 269.973V245.785ZM703.579 245.785H195.415V269.973H703.579V245.785ZM732 227.266C719.906 227.266 719.906 227.261 719.906 227.256C719.906 227.254 719.906 227.249 719.906 227.246C719.906 227.239 719.906 227.233 719.906 227.228C719.906 227.217 719.906 227.207 719.906 227.2C719.906 227.184 719.907 227.175 719.907 227.173C719.907 227.169 719.906 227.19 719.905 227.236C719.902 227.328 719.895 227.514 719.877 227.782C719.841 228.32 719.765 229.162 719.604 230.2C719.274 232.338 718.635 234.989 717.478 237.481C716.333 239.947 714.845 241.916 712.956 243.272C711.188 244.542 708.375 245.785 703.579 245.785V269.973C712.994 269.973 720.839 267.39 727.064 262.92C733.168 258.536 737.01 252.852 739.417 247.665C741.813 242.504 742.95 237.501 743.508 233.899C743.791 232.068 743.937 230.518 744.012 229.382C744.05 228.812 744.07 228.341 744.081 227.984C744.087 227.806 744.09 227.656 744.092 227.535C744.093 227.475 744.093 227.423 744.094 227.378C744.094 227.355 744.094 227.335 744.094 227.316C744.094 227.307 744.094 227.298 744.094 227.29C744.094 227.286 744.094 227.28 744.094 227.278C744.094 227.272 744.094 227.266 732 227.266ZM719.906 118.799V227.266H744.094V118.799H719.906ZM714.773 107.799C716.07 108.415 717.184 109.271 718.023 110.548C718.834 111.783 719.906 114.194 719.906 118.799H744.094C744.094 110.199 742.013 103.011 738.239 97.2668C734.492 91.5636 729.589 88.06 725.158 85.9535L714.773 107.799ZM685.008 60.5019C693.612 76.31 703.471 92.9425 709.609 103.121L730.322 90.6309C724.25 80.5611 714.605 64.2823 706.253 48.9386L685.008 60.5019ZM684.427 59.4329C684.62 59.7875 684.814 60.1442 685.008 60.5022L706.253 48.9384C706.06 48.5837 705.867 48.2297 705.675 47.8758L684.427 59.4329ZM634.986 22.0471C650.686 22.0471 659.358 26.1098 665.601 31.6852C672.563 37.9028 677.552 46.7947 684.427 59.4334L705.675 47.8753C699.293 36.1432 692.395 23.1845 681.713 13.6442C670.311 3.46165 655.578 -2.14084 634.986 -2.14084V22.0471ZM381.205 24.0869C489.857 23.136 614.291 22.0471 634.986 22.0471V-2.14084C614.151 -2.14084 489.534 -1.05005 380.994 -0.100104L381.205 24.0869Z" fill="black" mask="url(#path-5-inside-1_1091_9075)"/>
<rect x="562.685" y="106.705" width="157.221" height="139.081" fill="black"/>
<path d="M49.8279 19.4267C59.4547 19.4267 133.916 18.775 217.852 18.0404C230.18 17.9325 242.711 17.8229 255.272 17.7132C353.416 16.8563 453.342 16.0001 471.717 16.0001C488.878 16.0001 499.121 20.5724 506.697 27.479C514.546 34.6347 519.981 44.6197 526.763 57.0823L527.051 57.6111C533.872 70.1437 541.497 83.2146 547.404 93.1332C549.06 95.9129 550.582 98.448 551.916 100.658H18.4562V100.321V84.8317V48.5026C18.4562 32.7695 30.9509 19.4267 49.8279 19.4267Z" fill="white" stroke="black" stroke-width="12.094"/>
<path d="M562.685 237.089V237.092V237.093L562.684 237.103C562.684 237.137 562.683 237.199 562.68 237.288C562.675 237.468 562.664 237.754 562.641 238.133C562.594 238.893 562.498 240.013 562.302 241.369C561.907 244.112 561.128 247.665 559.628 251.135C558.129 254.604 556.009 257.765 553.049 260.048C550.172 262.267 546.16 263.927 540.311 263.927H540.139H539.958H539.766H539.565H539.354H539.133H538.902H538.661H538.411H538.151H537.882H537.603H537.314H537.016H536.708H536.391H536.065H535.729H535.384H535.03H534.666H534.294H533.912H533.521H533.121H532.712H532.294H531.867H531.431H530.986H530.533H530.07H529.599H529.12H528.631H528.134H527.628H527.114H526.591H526.06H525.521H524.973H524.416H523.852H523.279H522.698H522.108H521.511H520.905H520.292H519.67H519.04H518.403H517.757H517.104H516.443H515.774H515.097H514.413H513.72H513.021H512.313H511.598H510.876H510.146H509.409H508.664H507.912H507.153H506.386H505.612H504.831H504.043H503.248H502.445H501.636H500.819H499.996H499.166H498.329H497.485H496.634H495.776H494.912H494.041H493.164H492.279H491.389H490.491H489.588H488.678H487.761H486.838H485.909H484.974H484.032H483.084H482.13H481.17H480.203H479.231H478.253H477.268H476.278H475.282H474.28H473.272H472.259H471.24H470.215H469.184H468.148H467.107H466.059H465.007H463.949H462.885H461.816H460.742H459.663H458.578H457.488H456.393H455.293H454.187H453.077H451.962H450.841H449.716H448.586H447.451H446.311H445.167H444.017H442.863H441.705H440.542H439.374H438.202H437.025H435.844H434.658H433.468H432.274H431.075H429.872H428.665H427.454H426.239H425.019H423.796H422.568H421.337H420.101H418.862H417.619H416.372H415.121H413.867H412.608H411.347H410.081H408.812H407.54H406.264H404.984H403.701H402.415H401.126H399.833H398.537H397.237H395.935H394.629H393.32H392.009H390.694H389.376H388.055H386.732H385.405H384.076H382.744H381.409H380.072H378.731H377.389H376.043H374.695H373.345H371.992H370.637H369.279H367.919H366.557H365.193H363.826H362.457H361.086H359.713H358.338H356.96H355.581H354.2H352.817H351.432H350.045H348.657H347.267H345.875H344.481H343.086H341.689H340.291H338.891H337.489H336.087H334.683H333.277H331.87H330.462H329.053H327.643H326.231H324.818H323.405H321.99H320.574H319.157H317.74H316.321H314.902H313.482H312.061H310.639H309.217H307.794H306.371H304.947H303.522H302.097H300.672H299.246H297.82H296.394H294.967H293.54H292.113H290.686H289.258H287.831H286.403H284.976H283.549H282.121H280.694H279.267H277.84H276.414H274.987H273.561H272.136H270.711H269.286H267.862H266.438H265.015H263.592H262.17H260.749H259.329H257.909H256.49H255.072H253.655H252.238H250.823H249.409H247.996H246.583H245.172H243.763H242.354H240.946H239.54H238.136H236.732H235.33H233.929H232.53H231.133H229.737H228.342H226.949H225.558H224.169H222.781H221.395H220.011H218.629H217.249H215.871H214.495H213.12H211.748H210.378H209.01H207.645H206.281H204.92H203.561H202.205H200.851H199.499H198.15H196.803H195.459H194.118H192.779H191.443H190.109H188.779H187.451H186.126H184.803H183.484H182.168H180.855H179.544H178.237H176.933H175.632H174.334H173.04H171.748H170.46H169.176H167.895H166.617H165.343H164.072H162.805H161.541H160.281H159.025H157.772H156.523H155.278H154.037H152.799H151.566H150.336H149.111H147.889H146.672H145.458H144.249H143.044H141.843H140.647H139.455H138.267H137.083H135.904H134.73H133.56H132.394H131.233H130.077H128.925H127.778H126.636H125.499H124.366H123.238H122.115H120.998H119.885H118.777H117.674H116.576H115.484H114.396H113.314H112.237H111.166H110.099H109.038H107.983H106.933H105.889H104.85H103.816H102.788H101.766H100.75H99.7393H98.7344H97.7354H96.7422H95.7549H94.7735H93.7981H92.8288H91.8655H90.9082H89.9572H89.0123H88.0736H87.1412H86.2151H85.2953H84.3819H83.4749H82.5743H81.6803H80.7928H79.9118H79.0375H78.1698H77.3089H76.4546H75.6072H74.7665H73.9327H73.1058H72.2859H71.4729H70.6669H69.868H69.0761H68.2914H67.5139H66.7435H65.9805H65.2247H64.4762H63.7352H63.0015H62.2753H61.5566H60.8454H60.1417H59.4457H58.7574H58.0767H57.4037H56.7385H56.0812H55.4316H54.79H54.1563H53.5306H52.9128H52.3031H51.7015H51.1081H50.5228H49.9457H49.3768H48.8162H48.264H47.7201H47.1847H46.6576H46.1391H45.6291H45.1276H44.6348H44.1506H43.6751H43.2083H42.7502H42.301H41.8606H41.4291H41.0066H40.5929H40.1883H39.7928H39.4063H39.0289H38.6607H38.3017H37.9519H37.6114H37.2803H36.9585H36.6461H36.3431H36.0496H35.7656H35.4912H35.2264H34.9713H34.7258H34.49H34.264H34.0478H33.8414H33.6449H33.4583H33.2817H33.1151H32.9585H32.812H32.6756H32.5493H32.4333H32.3275H32.232H32.1467C26.4861 263.927 20.0958 260.628 14.9131 254.393C9.794 248.234 6.36241 239.758 6.36241 230.668V230.543V230.416V230.287V230.155V230.022V229.886V229.748V229.608V229.467V229.323V229.177V229.029V228.878V228.726V228.572V228.416V228.258V228.098V227.936V227.772V227.606V227.438V227.268V227.096V226.922V226.746V226.569V226.389V226.208V226.025V225.84V225.653V225.464V225.273V225.081V224.886V224.69V224.492V224.293V224.091V223.888V223.683V223.476V223.268V223.057V222.846V222.632V222.416V222.199V221.981V221.76V221.538V221.314V221.089V220.862V220.633V220.403V220.171V219.937V219.702V219.465V219.227V218.987V218.746V218.503V218.258V218.012V217.765V217.515V217.265V217.013V216.759V216.504V216.248V215.99V215.73V215.47V215.207V214.944V214.679V214.412V214.144V213.875V213.604V213.332V213.059V212.784V212.508V212.231V211.952V211.672V211.391V211.108V210.825V210.54V210.253V209.966V209.677V209.387V209.095V208.803V208.509V208.214V207.918V207.621V207.322V207.023V206.722V206.42V206.117V205.813V205.508V205.202V204.894V204.586V204.276V203.965V203.654V203.341V203.027V202.712V202.397V202.08V201.762V201.443V201.123V200.802V200.481V200.158V199.834V199.51V199.184V198.858V198.531V198.203V197.873V197.543V197.213V196.881V196.548V196.215V195.881V195.546V195.21V194.873V194.536V194.198V193.859V193.519V193.178V192.837V192.495V192.153V191.809V191.465V191.12V190.775V190.428V190.081V189.734V189.386V189.037V188.687V188.337V187.987V187.635V187.283V186.931V186.578V186.224V185.87V185.515V185.16V184.804V184.447V184.091V183.733V183.375V183.017V182.658V182.299V181.939V181.579V181.218V180.857V180.496V180.134V179.771V179.409V179.046V178.682V178.318V177.954V177.59V177.225V176.86V176.494V176.128V175.762V175.396V175.029V174.662V174.295V173.927V173.56V173.192V172.824V172.455V172.087V171.718V171.349V170.98V170.61V170.241V169.871V169.502V169.132V168.762V168.392V168.021V167.651V167.281V166.91V166.54V166.169V165.798V165.428V165.057V164.686V164.315V163.945V163.574V163.203V162.833V162.462V162.091V161.721V161.35V160.98V160.609V160.239V159.869V159.499V159.129V158.759V158.39V158.02V157.651V157.282V156.913V156.544V156.175V155.807V155.439V155.071V154.703V154.336V153.968V153.602V153.235V152.868V152.502V152.136V151.771V151.406V151.041V150.676V150.312V149.948V149.585V149.222V148.859V148.497V148.135V147.773V147.412V147.051V146.691V146.331V145.972V145.613V145.255V144.897V144.539V144.182V143.826V143.47V143.115V142.76V142.406V142.052V141.699V141.346V140.994V140.643V140.292V139.942V139.593V139.244V138.896V138.548V138.201V137.855V137.509V137.164V136.82V136.477V136.134V135.792V135.451V135.11V134.77V134.431V134.093V133.755V133.419V133.083V132.748V132.414V132.08V131.748V131.416V131.085V130.755V130.426V130.098V129.77V129.444V129.118V128.794V128.47V128.147V127.825V127.505V127.185V126.866V126.548V126.231V125.915V125.6V125.287V124.974V124.662V124.351V124.042V123.733V123.426V123.119V122.814V122.51V122.207V121.905V121.604V121.304V121.006V120.708V120.412V120.117V119.823V119.531V119.24V118.949V118.66V118.373V118.086V117.801V117.517V117.235V116.953V116.673V116.395V116.117V115.841V115.566V115.293V115.021V114.75V114.481V114.213V113.946V113.681V113.417V113.155V112.894V112.635V112.376V112.12V111.865V111.611V111.359V111.108V110.859V110.611V110.365V110.121V109.878V109.636V109.396V109.158V108.921V108.686V108.452V108.22V107.99V107.761V107.534V107.308V107.084V106.862V106.641V106.423V106.205V105.99V105.776V105.564V105.354V105.145V104.938V104.733V104.53V104.328V104.128V103.93V103.734V103.54V103.347V103.156V102.968V102.781V102.595V102.412V102.23V102.051V101.873V101.697V101.524V101.352V101.182V101.013V100.847V100.683V100.658H547.522C547.531 100.659 547.542 100.659 547.558 100.66C547.625 100.662 547.759 100.669 547.948 100.686C548.33 100.719 548.926 100.791 549.662 100.942C551.155 101.247 553.093 101.85 554.986 103.012C558.387 105.1 562.685 109.586 562.685 120.591V120.744V120.898V121.054V121.212V121.37V121.531V121.692V121.855V122.02V122.186V122.353V122.522V122.692V122.864V123.037V123.211V123.387V123.564V123.742V123.922V124.103V124.285V124.469V124.654V124.84V125.028V125.217V125.407V125.598V125.791V125.985V126.181V126.377V126.575V126.774V126.974V127.176V127.379V127.583V127.788V127.994V128.202V128.41V128.62V128.832V129.044V129.257V129.472V129.687V129.904V130.122V130.341V130.562V130.783V131.005V131.229V131.454V131.679V131.906V132.134V132.363V132.593V132.824V133.056V133.289V133.523V133.758V133.994V134.232V134.47V134.709V134.949V135.19V135.432V135.675V135.919V136.164V136.41V136.657V136.905V137.153V137.403V137.653V137.905V138.157V138.41V138.664V138.919V139.175V139.432V139.689V139.948V140.207V140.467V140.728V140.99V141.252V141.515V141.78V142.044V142.31V142.577V142.844V143.112V143.381V143.65V143.92V144.191V144.463V144.735V145.009V145.282V145.557V145.832V146.108V146.385V146.662V146.94V147.219V147.498V147.778V148.058V148.339V148.621V148.904V149.187V149.47V149.755V150.039V150.325V150.611V150.897V151.184V151.472V151.76V152.049V152.338V152.628V152.919V153.209V153.501V153.793V154.085V154.378V154.671V154.965V155.259V155.554V155.849V156.145V156.441V156.737V157.034V157.331V157.629V157.927V158.226V158.525V158.824V159.124V159.424V159.724V160.025V160.326V160.627V160.929V161.231V161.534V161.837V162.14V162.443V162.747V163.05V163.355V163.659V163.964V164.269V164.574V164.88V165.185V165.491V165.797V166.104V166.41V166.717V167.024V167.331V167.639V167.946V168.254V168.562V168.87V169.178V169.486V169.795V170.103V170.412V170.721V171.03V171.339V171.648V171.957V172.266V172.575V172.885V173.194V173.504V173.813V174.123V174.432V174.742V175.052V175.361V175.671V175.981V176.29V176.6V176.909V177.219V177.528V177.838V178.147V178.457V178.766V179.075V179.384V179.693V180.002V180.311V180.62V180.928V181.237V181.545V181.853V182.161V182.469V182.777V183.084V183.392V183.699V184.006V184.313V184.62V184.926V185.232V185.538V185.844V186.149V186.455V186.76V187.065V187.369V187.673V187.977V188.281V188.584V188.888V189.19V189.493V189.795V190.097V190.398V190.7V191V191.301V191.601V191.901V192.2V192.499V192.798V193.096V193.394V193.691V193.988V194.285V194.581V194.877V195.172V195.467V195.761V196.055V196.348V196.641V196.934V197.226V197.517V197.808V198.099V198.389V198.678V198.967V199.255V199.543V199.83V200.117V200.403V200.689V200.974V201.258V201.542V201.825V202.107V202.389V202.671V202.951V203.231V203.511V203.79V204.068V204.345V204.622V204.898V205.173V205.448V205.722V205.995V206.268V206.54V206.811V207.081V207.351V207.62V207.888V208.155V208.422V208.688V208.953V209.217V209.481V209.743V210.005V210.266V210.527V210.786V211.045V211.302V211.559V211.815V212.07V212.325V212.578V212.83V213.082V213.333V213.583V213.831V214.079V214.326V214.573V214.818V215.062V215.305V215.548V215.789V216.029V216.269V216.507V216.744V216.981V217.216V217.45V217.684V217.916V218.147V218.377V218.607V218.835V219.062V219.288V219.512V219.736V219.959V220.18V220.401V220.62V220.839V221.056V221.272V221.486V221.7V221.913V222.124V222.334V222.543V222.751V222.958V223.163V223.367V223.57V223.772V223.973V224.172V224.37V224.567V224.763V224.957V225.15V225.342V225.532V225.721V225.909V226.096V226.281V226.465V226.648V226.829V227.009V227.188V227.365V227.541V227.716V227.889V228.061V228.231V228.4V228.568V228.734V228.899V229.063V229.225V229.385V229.544V229.702V229.858V230.013V230.166V230.318V230.468V230.617V230.765V230.91V231.055V231.198V231.339V231.479V231.617V231.753V231.889V232.022V232.154V232.285V232.413V232.541V232.666V232.79V232.913V233.034V233.153V233.271V233.386V233.501V233.613V233.724V233.834V233.941V234.047V234.152V234.254V234.355V234.455V234.552V234.648V234.742V234.834V234.925V235.014V235.101V235.186V235.27V235.351V235.432V235.51V235.586V235.661V235.734V235.805V235.874V235.941V236.007V236.07V236.132V236.192V236.25V236.306V236.361V236.413V236.464V236.513V236.559V236.604V236.647V236.688V236.727V236.764V236.8V236.833V236.864V236.893V236.921V236.946V236.969V236.991V237.01V237.028V237.043V237.056V237.068V237.076V237.077V237.079V237.084V237.085V237.089V237.089Z" fill="black" stroke="white" stroke-width="12.094"/>
<rect x="39.6211" y="37.1651" width="54.4228" height="54.4228" rx="9.07047" fill="white" stroke="black" stroke-width="6.04698"/>
<rect x="257.313" y="37.1651" width="54.4228" height="54.4228" rx="9.07047" fill="white" stroke="black" stroke-width="6.04698"/>
<rect x="112.185" y="37.1651" width="54.4228" height="54.4228" rx="9.07047" fill="white" stroke="black" stroke-width="6.04698"/>
<rect x="329.876" y="37.1651" width="54.4228" height="54.4228" rx="9.07047" fill="white" stroke="black" stroke-width="6.04698"/>
<rect x="402.44" y="37.1651" width="54.4228" height="54.4228" rx="9.07047" fill="white" stroke="black" stroke-width="6.04698"/>
<rect x="184.748" y="37.1651" width="54.4228" height="54.4228" rx="9.07047" fill="white" stroke="black" stroke-width="6.04698"/>
<path d="M498.209 47.9754C501.239 52.2813 512.199 72.1161 515.339 77.9111C516.009 79.1471 516.674 80.7312 517.042 82.3715C517.413 84.0287 517.438 85.5482 517.056 86.79C516.704 87.9356 515.953 89.0383 514.325 89.9209C512.609 90.8517 509.81 91.5879 505.362 91.5879H486.137C480.118 91.5879 477.579 89.1222 476.359 87.0372C475.691 85.896 475.344 84.7283 475.168 83.8282C475.082 83.3839 475.04 83.0219 475.02 82.7852C475.01 82.6674 475.006 82.5822 475.004 82.5354C475.003 82.5183 475.003 82.5064 475.003 82.4999V82.4998V82.4952V82.49V82.4842V82.478V82.4712V82.4638V82.456V82.4476V82.4386V82.4292V82.4192V82.4087V82.3862V82.3616V82.3486V82.335V82.3063V82.2756V82.2429V82.2083V82.1716V82.133V82.0924V82.05V82.028V82.0056V81.9827V81.9593V81.9111V81.861V81.8091V81.7554V81.6998V81.6713V81.6424V81.5832V81.5223V81.4595V81.395V81.3621V81.3288V81.2609V81.1912V81.1198V81.0468V81.0097V80.9721V80.8958V80.7382V80.657V80.6158V80.5742V80.5322V80.4898V80.4038V80.3163V80.272V80.2273V80.0447V79.9512V79.9039V79.8562V79.6618V79.5625V79.5123V79.4617V79.256V79.2037V79.1511V79.0448V78.8283V78.7733V78.718V78.6064V78.3795V78.322V78.2641V78.1475V78.0297V77.9704V77.9107V77.6691V77.6079V77.5465V77.4227V77.1719V76.657V74.4392V74.3662V74.293V74.1461V73.9984V73.9242V73.8498V73.5506V73.3999V73.3242V73.2484V72.9435V72.8668V72.79V72.6358V72.3257V72.2477V72.1697V72.0131V71.8559V71.7771V71.6982V71.381V71.2217V71.1418V71.0618V70.9817V70.9015V70.8212V70.7407V70.5794V70.4986V70.4177V70.093V69.93V69.8483V69.7666V69.4388V50.7252C475.003 46.7619 475.075 43.4716 476.396 41.0767C477.37 39.3111 479.364 37.5101 484.556 37.209C488.423 37.4756 490.916 38.9255 492.791 40.7004C494.451 42.2722 495.57 43.9876 496.755 45.8038C497.217 46.5132 497.69 47.2379 498.209 47.9754Z" fill="white" stroke="black" stroke-width="6.04698"/>
<line x1="266.383" y1="236.715" x2="357.088" y2="236.715" stroke="black" stroke-width="6.04698"/>
<line x1="36.5977" y1="236.715" x2="127.302" y2="236.715" stroke="black" stroke-width="6.04698"/>
<path d="M664.16 50.8146L664.161 50.8157L664.161 50.816L664.162 50.8169L664.162 50.8179L664.223 50.9181L664.293 51.0164L664.293 51.0168L664.295 51.0192L664.302 51.0296L664.333 51.0731L664.457 51.2475C664.566 51.4016 664.728 51.6301 664.935 51.9249C665.349 52.5145 665.946 53.3688 666.672 54.4229C668.126 56.5325 670.093 59.4363 672.151 62.6175C676.354 69.1142 680.657 76.3455 682.025 80.4501C683.263 84.1629 682.571 86.9166 681.299 88.6967C679.972 90.5554 677.861 91.5879 675.823 91.5879L579.681 91.5879C573.731 91.5879 571.373 90.1988 570.187 89.0441C569.532 88.4055 569.055 87.6687 568.54 86.7523C568.464 86.6171 568.382 86.4661 568.293 86.3035C567.866 85.5224 567.292 84.4741 566.6 83.6273C566.134 83.0577 564.776 80.9921 562.814 77.8465C560.912 74.7974 558.568 70.9411 556.204 66.983C551.444 59.0178 546.698 50.8082 545.247 47.9069C544.195 45.8014 544.273 43.2822 545.817 41.2779C547.373 39.2588 550.898 37.1651 557.907 37.1651H645.589C650.405 37.1651 654.955 40.225 658.568 43.8383C660.321 45.5914 661.734 47.3555 662.709 48.6849C663.194 49.347 663.566 49.8945 663.813 50.2699C663.936 50.4574 664.028 50.6015 664.086 50.6948C664.116 50.7414 664.136 50.7754 664.149 50.7957L664.16 50.8146Z" stroke="black" stroke-width="6.04698"/>
<rect x="614.084" y="136.94" width="78.6107" height="108.846" rx="12.094" fill="white"/>
<line x1="601.99" y1="155.081" x2="698.742" y2="155.081" stroke="black" stroke-width="6.04698"/>
<line x1="601.99" y1="179.269" x2="698.742" y2="179.269" stroke="black" stroke-width="6.04698"/>
<line x1="601.99" y1="203.457" x2="698.742" y2="203.457" stroke="black" stroke-width="6.04698"/>
<line x1="601.99" y1="227.644" x2="698.742" y2="227.644" stroke="black" stroke-width="6.04698"/>
<path d="M547.999 3.90625C537.632 3.90625 532.449 16.0002 532.449 16.0002H605.013C605.013 16.0002 601.558 3.90625 589.464 3.90625H547.999Z" fill="black" stroke="black" stroke-width="6.04698"/>
<path d="M566.14 3.90625C555.774 3.90625 550.591 16.0002 550.591 16.0002H623.155C623.155 16.0002 619.699 3.90625 607.605 3.90625H566.14Z" fill="white" stroke="black" stroke-width="6.04698"/>
<circle cx="468.72" cy="236.716" r="45.3524" fill="white" stroke="black" stroke-width="12.094"/>
<circle cx="177.969" cy="236.716" r="45.3524" fill="white" stroke="black" stroke-width="12.094"/>
<circle cx="457.347" cy="236.716" r="45.3524" fill="white" stroke="black" stroke-width="12.094"/>
<circle cx="166.608" cy="236.716" r="45.3524" fill="white" stroke="black" stroke-width="12.094"/>
</svg>
