<svg width="217" height="68" viewBox="0 0 217 68" fill="none" xmlns="http://www.w3.org/2000/svg">
<line x1="4.37114e-08" y1="66.5" x2="217" y2="66.5" stroke="white" stroke-dasharray="5 5"/>
<line x1="8.74228e-08" y1="66" x2="217" y2="66" stroke="black" stroke-width="2"/>
<rect x="80" y="26" width="84" height="18" rx="2" stroke="black" stroke-width="2"/>
<rect x="72" y="43" width="100" height="18" rx="1" fill="white" stroke="black" stroke-width="2"/>
<path fill-rule="evenodd" clip-rule="evenodd" d="M71.7246 60H114H129.725H172C176.5 60 171 66 169.003 66.1702C167.49 66.2992 136.701 66.2327 121.862 66.193C107.024 66.2327 76.2346 66.2992 74.7216 66.1702C72.7246 66 67.2246 60 71.7246 60Z" fill="black"/>
<path d="M169.003 66.1702L169.088 67.1666L169.003 66.1702ZM121.862 66.193L121.865 65.1929L121.86 65.193L121.862 66.193ZM74.7216 66.1702L74.8066 65.1738L74.7216 66.1702ZM114 59H71.7246V61H114V59ZM114 61H129.725V59H114V61ZM129.725 61H172V59H129.725V61ZM172 61C172.472 61 172.674 61.082 172.734 61.1176C172.756 61.1306 172.748 61.1305 172.734 61.1101C172.721 61.0902 172.721 61.0782 172.722 61.0906C172.729 61.133 172.728 61.2757 172.624 61.5455C172.523 61.8038 172.354 62.1115 172.118 62.4488C171.646 63.1242 170.979 63.8225 170.318 64.3563C169.989 64.6221 169.679 64.8329 169.413 64.9771C169.13 65.1305 168.968 65.1696 168.918 65.1738L169.088 67.1666C169.537 67.1283 169.984 66.9427 170.366 66.7354C170.766 66.5188 171.178 66.233 171.575 65.9123C172.366 65.2732 173.167 64.4397 173.758 63.5937C174.053 63.1704 174.313 62.7201 174.488 62.2693C174.659 61.83 174.779 61.3124 174.7 60.7898C174.613 60.2169 174.295 59.719 173.756 59.3987C173.263 59.1055 172.653 59 172 59V61ZM168.918 65.1738C168.593 65.2015 166.45 65.2224 163.082 65.2338C159.753 65.2451 155.3 65.2476 150.43 65.2449C140.69 65.2394 129.284 65.2128 121.865 65.193L121.86 67.1929C129.279 67.2128 140.687 67.2394 150.429 67.2449C155.3 67.2476 159.756 67.2451 163.089 67.2338C166.383 67.2226 168.656 67.2034 169.088 67.1666L168.918 65.1738ZM74.6367 67.1666C75.0684 67.2034 77.3414 67.2226 80.6356 67.2338C83.9688 67.2451 88.4246 67.2476 93.2956 67.2449C103.038 67.2394 114.446 67.2128 121.865 67.1929L121.86 65.193C114.441 65.2128 103.035 65.2394 93.2945 65.2449C88.4242 65.2476 83.9715 65.2451 80.6424 65.2338C77.2744 65.2224 75.1313 65.2015 74.8066 65.1738L74.6367 67.1666ZM71.7246 59C71.0713 59 70.4612 59.1055 69.9683 59.3987C69.4298 59.719 69.1122 60.2169 69.025 60.7898C68.9455 61.3124 69.066 61.83 69.2366 62.2693C69.4116 62.7201 69.6713 63.1704 69.9668 63.5937C70.5574 64.4397 71.3585 65.2732 72.1498 65.9123C72.5469 66.233 72.9589 66.5188 73.3584 66.7354C73.7409 66.9427 74.1872 67.1283 74.6367 67.1666L74.8066 65.1738C74.7568 65.1696 74.5944 65.1305 74.3115 64.9771C74.0456 64.8329 73.7354 64.6221 73.4064 64.3563C72.7454 63.8225 72.0782 63.1242 71.6067 62.4488C71.3712 62.1115 71.2013 61.8038 71.101 61.5455C70.9963 61.2757 70.9958 61.133 71.0023 61.0906C71.0041 61.0782 71.004 61.0902 70.9907 61.1101C70.9771 61.1305 70.9688 61.1306 70.9907 61.1176C71.0505 61.082 71.2528 61 71.7246 61V59Z" fill="black"/>
<rect x="72.8242" y="24" width="98" height="4" rx="1" fill="black" stroke="black" stroke-width="2"/>
<rect x="43" y="42" width="102" height="20" rx="2" fill="black"/>
<rect x="52" y="26" width="84" height="18" rx="2" stroke="black" stroke-width="2"/>
<path fill-rule="evenodd" clip-rule="evenodd" d="M43.7246 60H86H101.725H144C148.5 60 143 66 141.003 66.1702C139.49 66.2992 108.701 66.2327 93.8624 66.193C79.0242 66.2327 48.2346 66.2992 46.7216 66.1702C44.7246 66 39.2246 60 43.7246 60Z" fill="white"/>
<path d="M141.003 66.1702L141.088 67.1666L141.003 66.1702ZM93.8624 66.193L93.865 65.1929L93.8597 65.193L93.8624 66.193ZM46.7216 66.1702L46.8066 65.1738L46.7216 66.1702ZM86 59H43.7246V61H86V59ZM86 61H101.725V59H86V61ZM101.725 61H144V59H101.725V61ZM144 61C144.472 61 144.674 61.082 144.734 61.1176C144.756 61.1306 144.748 61.1305 144.734 61.1101C144.721 61.0902 144.721 61.0782 144.722 61.0906C144.729 61.133 144.728 61.2757 144.624 61.5455C144.523 61.8038 144.354 62.1115 144.118 62.4488C143.646 63.1242 142.979 63.8225 142.318 64.3563C141.989 64.6221 141.679 64.8329 141.413 64.9771C141.13 65.1305 140.968 65.1696 140.918 65.1738L141.088 67.1666C141.537 67.1283 141.984 66.9427 142.366 66.7354C142.766 66.5188 143.178 66.233 143.575 65.9123C144.366 65.2732 145.167 64.4397 145.758 63.5937C146.053 63.1704 146.313 62.7201 146.488 62.2693C146.659 61.83 146.779 61.3124 146.7 60.7898C146.613 60.2169 146.295 59.719 145.756 59.3987C145.263 59.1055 144.653 59 144 59V61ZM140.918 65.1738C140.593 65.2015 138.45 65.2224 135.082 65.2338C131.753 65.2451 127.3 65.2476 122.43 65.2449C112.69 65.2394 101.284 65.2128 93.865 65.193L93.8597 67.1929C101.279 67.2128 112.687 67.2394 122.429 67.2449C127.3 67.2476 131.756 67.2451 135.089 67.2338C138.383 67.2226 140.656 67.2034 141.088 67.1666L140.918 65.1738ZM46.6367 67.1666C47.0684 67.2034 49.3414 67.2226 52.6356 67.2338C55.9688 67.2451 60.4246 67.2476 65.2956 67.2449C75.038 67.2394 86.4458 67.2128 93.865 67.1929L93.8597 65.193C86.4408 65.2128 75.0347 65.2394 65.2945 65.2449C60.4242 65.2476 55.9715 65.2451 52.6424 65.2338C49.2744 65.2224 47.1313 65.2015 46.8066 65.1738L46.6367 67.1666ZM43.7246 59C43.0713 59 42.4612 59.1055 41.9683 59.3987C41.4298 59.719 41.1122 60.2169 41.025 60.7898C40.9455 61.3124 41.066 61.83 41.2366 62.2693C41.4116 62.7201 41.6713 63.1704 41.9668 63.5937C42.5574 64.4397 43.3585 65.2732 44.1498 65.9123C44.5469 66.233 44.9589 66.5188 45.3584 66.7354C45.7409 66.9427 46.1872 67.1283 46.6367 67.1666L46.8066 65.1738C46.7568 65.1696 46.5944 65.1305 46.3115 64.9771C46.0456 64.8329 45.7354 64.6221 45.4064 64.3563C44.7454 63.8225 44.0782 63.1242 43.6067 62.4488C43.3712 62.1115 43.2013 61.8038 43.101 61.5455C42.9963 61.2757 42.9958 61.133 43.0023 61.0906C43.0041 61.0782 43.004 61.0902 42.9907 61.1101C42.9771 61.1305 42.9688 61.1306 42.9907 61.1176C43.0505 61.082 43.2528 61 43.7246 61V59Z" fill="black"/>
<rect x="44.8242" y="24" width="98" height="4" rx="1" fill="white" stroke="black" stroke-width="2"/>
<line x1="147.7" y1="44" x2="147.7" y2="61" stroke="black"/>
<line x1="151.2" y1="44" x2="151.2" y2="61" stroke="black"/>
<line x1="154.7" y1="44" x2="154.7" y2="61" stroke="black"/>
<line x1="158.2" y1="44" x2="158.2" y2="61" stroke="black"/>
<line x1="161.7" y1="44" x2="161.7" y2="61" stroke="black"/>
<line x1="165.2" y1="44" x2="165.2" y2="61" stroke="black"/>
<line x1="168.7" y1="44" x2="168.7" y2="61" stroke="black"/>
<line x1="136" y1="38.5" x2="164" y2="38.5" stroke="black"/>
<line x1="136" y1="32.5" x2="164" y2="32.5" stroke="black"/>
<path d="M156.058 63.5C156.243 63.0184 156.697 60 157.974 60C159.251 60 159.79 63.1552 159.889 63.5C159.988 63.8448 159.79 65 159.251 65H156.608C156.146 65 155.874 63.9816 156.058 63.5Z" fill="black" stroke="white" stroke-linecap="square"/>
<line x1="0.5" y1="-0.5" x2="29.0157" y2="-0.5" transform="matrix(0.7027 0.711486 -0.7027 0.711486 85 1)" stroke="black" stroke-linecap="round"/>
<line x1="0.5" y1="-0.5" x2="29.0157" y2="-0.5" transform="matrix(0.7027 0.711486 -0.7027 0.711486 92.2593 1)" stroke="black" stroke-linecap="round"/>
<line x1="-4.37114e-08" y1="0.5" x2="217" y2="0.499981" stroke="#000"/>
<path fill-rule="evenodd" clip-rule="evenodd" d="M105.173 19.5C103.799 19.5 101.867 23.7918 101.867 23.7918H105.731H108.436H111.43H115.295H118C118 23.7918 116.068 19.5 114.694 19.5H111.989H111.43H108.436H105.731H105.173Z" fill="black"/>
<path d="M101.867 23.7918L100.955 23.3813L100.32 24.7918H101.867V23.7918ZM118 23.7918V24.7918H119.547L118.912 23.3813L118 23.7918ZM101.867 23.7918C102.779 24.2023 102.779 24.2024 102.778 24.2025C102.778 24.2025 102.778 24.2026 102.778 24.2026C102.778 24.2026 102.778 24.2026 102.778 24.2025C102.779 24.2023 102.779 24.2018 102.779 24.2011C102.78 24.1997 102.781 24.1973 102.782 24.1939C102.785 24.1871 102.79 24.1765 102.797 24.1622C102.81 24.1336 102.83 24.0905 102.856 24.035C102.909 23.924 102.986 23.7638 103.083 23.571C103.278 23.1834 103.549 22.6726 103.858 22.1668C104.172 21.6533 104.501 21.1823 104.809 20.8518C104.962 20.6867 105.086 20.5839 105.173 20.528C105.266 20.4689 105.259 20.5 105.173 20.5V18.5C104.743 18.5 104.375 18.6652 104.099 18.8409C103.818 19.0197 103.565 19.2521 103.345 19.4894C102.903 19.9636 102.492 20.5656 102.151 21.125C101.805 21.6921 101.507 22.2543 101.297 22.6714C101.191 22.881 101.107 23.0561 101.048 23.1797C101.019 23.2416 100.996 23.2908 100.981 23.325C100.973 23.3422 100.967 23.3556 100.962 23.3651C100.96 23.3698 100.958 23.3735 100.957 23.3762C100.957 23.3776 100.956 23.3787 100.956 23.3795C100.955 23.38 100.955 23.3803 100.955 23.3806C100.955 23.3807 100.955 23.3809 100.955 23.381C100.955 23.3811 100.955 23.3813 101.867 23.7918ZM105.731 22.7918H101.867V24.7918H105.731V22.7918ZM108.436 22.7918H105.731V24.7918H108.436V22.7918ZM111.43 22.7918H108.436V24.7918H111.43V22.7918ZM115.295 22.7918H111.43V24.7918H115.295V22.7918ZM118 22.7918H115.295V24.7918H118V22.7918ZM114.694 20.5C114.607 20.5 114.6 20.4689 114.693 20.528C114.781 20.5839 114.904 20.6867 115.058 20.8518C115.365 21.1823 115.695 21.6533 116.008 22.1668C116.317 22.6726 116.588 23.1834 116.783 23.571C116.881 23.7638 116.958 23.924 117.01 24.035C117.037 24.0905 117.057 24.1336 117.07 24.1622C117.076 24.1765 117.081 24.1871 117.084 24.1939C117.086 24.1973 117.087 24.1997 117.088 24.2011C117.088 24.2018 117.088 24.2023 117.088 24.2025C117.088 24.2026 117.088 24.2026 117.088 24.2026C117.088 24.2026 117.088 24.2025 117.088 24.2025C117.088 24.2024 117.088 24.2023 118 23.7918C118.912 23.3813 118.912 23.3811 118.912 23.381C118.912 23.3809 118.912 23.3807 118.911 23.3806C118.911 23.3803 118.911 23.38 118.911 23.3795C118.911 23.3787 118.91 23.3776 118.909 23.3762C118.908 23.3735 118.907 23.3698 118.904 23.3651C118.9 23.3556 118.894 23.3422 118.886 23.325C118.87 23.2908 118.847 23.2416 118.818 23.1797C118.76 23.0561 118.675 22.881 118.57 22.6714C118.36 22.2543 118.062 21.6921 117.716 21.125C117.374 20.5656 116.963 19.9636 116.522 19.4894C116.301 19.2521 116.048 19.0197 115.767 18.8409C115.491 18.6652 115.124 18.5 114.694 18.5V20.5ZM111.989 20.5H114.694V18.5H111.989V20.5ZM111.43 20.5H111.989V18.5H111.43V20.5ZM108.436 20.5H111.43V18.5H108.436V20.5ZM105.731 20.5H108.436V18.5H105.731V20.5ZM105.173 20.5H105.731V18.5H105.173V20.5Z" fill="black"/>
<path fill-rule="evenodd" clip-rule="evenodd" d="M98.3062 19.5C96.9322 19.5 95 23.7918 95 23.7918H98.8647H101.57H104.563H108.428H111.133C111.133 23.7918 109.201 19.5 107.827 19.5H105.122H104.563H101.57H98.8647H98.3062Z" fill="white"/>
<path d="M95 23.7918L94.0882 23.3813L93.4531 24.7918H95V23.7918ZM111.133 23.7918V24.7918H112.68L112.045 23.3813L111.133 23.7918ZM95 23.7918C95.9118 24.2023 95.9118 24.2024 95.9118 24.2025C95.9118 24.2025 95.9117 24.2026 95.9117 24.2026C95.9117 24.2026 95.9117 24.2026 95.9118 24.2025C95.9119 24.2023 95.9121 24.2018 95.9124 24.2011C95.913 24.1997 95.9141 24.1973 95.9157 24.1939C95.9188 24.1871 95.9236 24.1765 95.9302 24.1622C95.9434 24.1336 95.9634 24.0905 95.9897 24.035C96.0422 23.924 96.1194 23.7638 96.2165 23.571C96.4117 23.1834 96.6828 22.6726 96.9915 22.1668C97.3049 21.6533 97.6346 21.1823 97.9421 20.8518C98.0957 20.6867 98.2189 20.5839 98.3067 20.528C98.3994 20.4689 98.3926 20.5 98.3062 20.5V18.5C97.8764 18.5 97.5086 18.6652 97.2326 18.8409C96.9518 19.0197 96.6986 19.2521 96.4779 19.4894C96.0366 19.9636 95.6256 20.5656 95.2843 21.125C94.9381 21.6921 94.6403 22.2543 94.4302 22.6714C94.3247 22.881 94.2403 23.0561 94.1818 23.1797C94.1525 23.2416 94.1296 23.2908 94.1138 23.325C94.106 23.3422 94.0998 23.3556 94.0955 23.3651C94.0933 23.3698 94.0917 23.3735 94.0904 23.3762C94.0898 23.3776 94.0893 23.3787 94.0889 23.3795C94.0887 23.38 94.0886 23.3803 94.0885 23.3806C94.0884 23.3807 94.0883 23.3809 94.0883 23.381C94.0882 23.3811 94.0882 23.3813 95 23.7918ZM98.8647 22.7918H95V24.7918H98.8647V22.7918ZM101.57 22.7918H98.8647V24.7918H101.57V22.7918ZM104.563 22.7918H101.57V24.7918H104.563V22.7918ZM108.428 22.7918H104.563V24.7918H108.428V22.7918ZM111.133 22.7918H108.428V24.7918H111.133V22.7918ZM107.827 20.5C107.741 20.5 107.734 20.4689 107.827 20.528C107.914 20.5839 108.038 20.6867 108.191 20.8518C108.499 21.1823 108.828 21.6533 109.142 22.1668C109.45 22.6726 109.722 23.1834 109.917 23.571C110.014 23.7638 110.091 23.924 110.144 24.035C110.17 24.0905 110.19 24.1336 110.203 24.1622C110.21 24.1765 110.214 24.1871 110.218 24.1939C110.219 24.1973 110.22 24.1997 110.221 24.2011C110.221 24.2018 110.221 24.2023 110.221 24.2025C110.221 24.2026 110.222 24.2026 110.222 24.2026C110.221 24.2026 110.221 24.2025 110.221 24.2025C110.221 24.2024 110.221 24.2023 111.133 23.7918C112.045 23.3813 112.045 23.3811 112.045 23.381C112.045 23.3809 112.045 23.3807 112.045 23.3806C112.045 23.3803 112.044 23.38 112.044 23.3795C112.044 23.3787 112.043 23.3776 112.043 23.3762C112.042 23.3735 112.04 23.3698 112.038 23.3651C112.033 23.3556 112.027 23.3422 112.019 23.325C112.004 23.2908 111.981 23.2416 111.951 23.1797C111.893 23.0561 111.808 22.881 111.703 22.6714C111.493 22.2543 111.195 21.6921 110.849 21.125C110.508 20.5656 110.097 19.9636 109.655 19.4894C109.435 19.2521 109.181 19.0197 108.901 18.8409C108.625 18.6652 108.257 18.5 107.827 18.5V20.5ZM105.122 20.5H107.827V18.5H105.122V20.5ZM104.563 20.5H105.122V18.5H104.563V20.5ZM101.57 20.5H104.563V18.5H101.57V20.5ZM98.8647 20.5H101.57V18.5H98.8647V20.5ZM98.3062 20.5H98.8647V18.5H98.3062V20.5Z" fill="black"/>
</svg>
