<svg width="669" height="213" viewBox="0 0 669 213" fill="none" xmlns="http://www.w3.org/2000/svg">
<path fill-rule="evenodd" clip-rule="evenodd" d="M191.58 101.442L212.913 36.1908C212.913 36.1908 220.743 6 252.372 6H416.005H423.156H592.091C623.721 6 631.551 36.1908 631.551 36.1908L647.581 106.744H416.005V101.442H191.58Z" fill="black"/>
<path d="M212.913 36.1908L217.953 37.8385L218.004 37.6816L218.045 37.5219L212.913 36.1908ZM191.58 101.442L186.54 99.7942L184.268 106.744H191.58V101.442ZM631.551 36.1908L636.721 35.016L636.703 34.9376L636.683 34.8597L631.551 36.1908ZM647.581 106.744V112.047H654.223L652.751 105.569L647.581 106.744ZM416.005 106.744H410.702V112.047H416.005V106.744ZM416.005 101.442H421.307V96.1395H416.005V101.442ZM207.873 34.5431L186.54 99.7942L196.62 103.09L217.953 37.8385L207.873 34.5431ZM252.372 0.697674C234.578 0.697674 223.286 9.29812 216.607 17.8261C213.307 22.0399 211.126 26.2302 209.766 29.3627C209.084 30.9354 208.6 32.2599 208.282 33.213C208.123 33.6901 208.004 34.0758 207.922 34.3549C207.881 34.4945 207.849 34.6076 207.825 34.6923C207.814 34.7347 207.804 34.77 207.796 34.7979C207.793 34.8119 207.79 34.8241 207.787 34.8344C207.785 34.8395 207.784 34.8442 207.783 34.8484C207.783 34.8506 207.782 34.8534 207.782 34.8544C207.781 34.8571 207.78 34.8597 212.913 36.1908C218.045 37.5219 218.045 37.5242 218.044 37.5265C218.044 37.5271 218.043 37.5292 218.043 37.5304C218.042 37.5328 218.042 37.5347 218.041 37.5362C218.041 37.5392 218.04 37.5404 218.041 37.5399C218.041 37.5388 218.043 37.5308 218.047 37.516C218.055 37.4865 218.071 37.4301 218.095 37.3486C218.143 37.1854 218.223 36.9225 218.34 36.5741C218.573 35.8762 218.949 34.842 219.494 33.5843C220.592 31.0559 222.345 27.6986 224.956 24.3647C230.099 17.7973 238.537 11.3023 252.372 11.3023V0.697674ZM416.005 0.697674H252.372V11.3023H416.005V0.697674ZM416.005 11.3023H423.156V0.697674H416.005V11.3023ZM423.156 11.3023H592.091V0.697674H423.156V11.3023ZM592.091 11.3023C605.926 11.3023 614.364 17.7973 619.507 24.3647C622.119 27.6986 623.872 31.056 624.969 33.5843C625.515 34.842 625.89 35.8762 626.123 36.5741C626.24 36.9225 626.32 37.1854 626.368 37.3486C626.392 37.4301 626.408 37.4865 626.416 37.516C626.42 37.5308 626.422 37.5388 626.423 37.5399C626.423 37.5404 626.423 37.5392 626.422 37.5362C626.421 37.5347 626.421 37.5328 626.42 37.5304C626.42 37.5292 626.419 37.5271 626.419 37.5265C626.419 37.5242 626.418 37.5219 631.551 36.1908C636.683 34.8597 636.682 34.8571 636.682 34.8544C636.681 34.8534 636.681 34.8506 636.68 34.8484C636.679 34.8442 636.678 34.8395 636.676 34.8344C636.674 34.8241 636.671 34.8119 636.667 34.7979C636.659 34.77 636.65 34.7347 636.638 34.6923C636.615 34.6076 636.583 34.4945 636.542 34.3549C636.459 34.0758 636.341 33.6901 636.181 33.213C635.863 32.2599 635.379 30.9354 634.697 29.3627C633.338 26.2302 631.157 22.0399 627.856 17.8261C621.178 9.29811 609.886 0.697674 592.091 0.697674V11.3023ZM626.38 37.3656L642.41 107.919L652.751 105.569L636.721 35.016L626.38 37.3656ZM647.581 101.442H416.005V112.047H647.581V101.442ZM421.307 106.744V101.442H410.702V106.744H421.307ZM191.58 106.744H416.005V96.1395H191.58V106.744Z" fill="#F1E29E"/>
<path fill-rule="evenodd" clip-rule="evenodd" d="M415.988 196.866H374.287H352.181H296.879H268.374H182.276C182.276 196.866 170.369 196.866 170.369 177.627C170.369 158.387 170.369 150.146 178.323 128.436C186.276 106.727 193.17 106.744 193.17 106.744H423.17V106.765H645.987C645.987 106.765 650.23 110.401 655.532 128.457C660.835 146.514 663.486 158.408 663.486 177.648C663.486 196.887 651.578 196.887 651.578 196.887H570.783H542.278H486.976H464.87H415.988V196.866Z" fill="#F1E29E"/>
<path d="M415.988 196.866H421.29V191.564H415.988V196.866ZM182.276 196.866L182.276 191.564L182.276 191.564L182.276 196.866ZM178.323 128.436L183.301 130.26L183.301 130.26L178.323 128.436ZM193.17 106.744L193.157 112.046H193.17V106.744ZM423.17 106.744H428.472V101.442H423.17V106.744ZM423.17 106.765H417.867V112.067H423.17V106.765ZM645.987 106.765L649.438 102.739L647.948 101.463H645.987V106.765ZM655.532 128.457L650.445 129.951L650.445 129.951L655.532 128.457ZM415.988 196.887H410.685V202.19H415.988V196.887ZM374.287 202.169H415.988V191.564H374.287V202.169ZM352.181 202.169H374.287V191.564H352.181V202.169ZM296.879 202.169H352.181V191.564H296.879V202.169ZM268.374 202.169H296.879V191.564H268.374V202.169ZM182.276 202.169H268.374V191.564H182.276V202.169ZM165.067 177.627C165.067 188.399 168.456 194.922 172.991 198.586C175.161 200.339 177.353 201.232 179.037 201.686C179.879 201.913 180.605 202.033 181.157 202.096C181.434 202.128 181.67 202.146 181.858 202.156C181.952 202.161 182.034 202.165 182.104 202.166C182.139 202.167 182.171 202.168 182.2 202.168C182.214 202.168 182.228 202.169 182.241 202.169C182.247 202.169 182.253 202.169 182.259 202.169C182.262 202.169 182.266 202.169 182.268 202.169C182.272 202.169 182.276 202.169 182.276 196.866C182.276 191.564 182.281 191.564 182.285 191.564C182.286 191.564 182.29 191.564 182.293 191.564C182.298 191.564 182.303 191.564 182.308 191.564C182.318 191.564 182.327 191.564 182.336 191.564C182.353 191.565 182.368 191.565 182.38 191.565C182.405 191.566 182.421 191.567 182.428 191.567C182.442 191.568 182.422 191.567 182.373 191.562C182.274 191.55 182.069 191.52 181.795 191.446C181.246 191.298 180.462 190.989 179.655 190.337C178.236 189.191 175.671 186.094 175.671 177.627H165.067ZM173.344 126.612C169.292 137.674 167.175 145.548 166.111 153.231C165.058 160.838 165.067 168.088 165.067 177.627H175.671C175.671 167.926 175.681 161.436 176.616 154.685C177.54 148.01 179.4 140.909 183.301 130.26L173.344 126.612ZM193.17 106.744C193.183 101.442 193.175 101.442 193.167 101.442C193.164 101.442 193.156 101.442 193.15 101.442C193.139 101.442 193.128 101.442 193.116 101.442C193.094 101.442 193.07 101.443 193.047 101.443C192.999 101.444 192.95 101.446 192.899 101.448C192.796 101.453 192.687 101.461 192.57 101.473C192.336 101.496 192.076 101.533 191.791 101.592C191.219 101.71 190.563 101.907 189.841 102.224C188.389 102.86 186.745 103.94 184.985 105.694C181.514 109.155 177.464 115.366 173.344 126.612L183.301 130.26C187.135 119.797 190.508 115.162 192.472 113.204C193.43 112.249 194.006 111.977 194.096 111.937C194.144 111.916 194.089 111.946 193.925 111.98C193.845 111.996 193.74 112.013 193.611 112.026C193.547 112.032 193.477 112.038 193.401 112.041C193.363 112.043 193.324 112.044 193.283 112.045C193.263 112.046 193.242 112.046 193.221 112.046C193.21 112.046 193.2 112.046 193.189 112.046C193.184 112.046 193.176 112.046 193.173 112.046C193.165 112.046 193.157 112.046 193.17 106.744ZM423.17 101.442H193.17V112.046H423.17V101.442ZM428.472 106.765V106.744H417.867V106.765H428.472ZM423.17 112.067H645.987V101.463H423.17V112.067ZM645.987 106.765C642.537 110.791 642.534 110.788 642.53 110.785C642.529 110.784 642.525 110.781 642.523 110.779C642.518 110.775 642.514 110.771 642.509 110.767C642.5 110.759 642.492 110.752 642.483 110.744C642.467 110.73 642.451 110.716 642.437 110.703C642.409 110.677 642.385 110.655 642.367 110.638C642.33 110.602 642.312 110.583 642.313 110.585C642.316 110.587 642.392 110.669 642.535 110.854C642.822 111.226 643.368 112.004 644.114 113.375C645.613 116.128 647.87 121.181 650.445 129.951L660.62 126.963C657.893 117.677 655.377 111.884 653.429 108.305C652.452 106.51 651.606 105.251 650.931 104.376C650.594 103.939 650.297 103.595 650.047 103.328C649.922 103.195 649.808 103.081 649.706 102.983C649.655 102.934 649.607 102.89 649.563 102.849C649.54 102.829 649.519 102.809 649.498 102.791C649.487 102.782 649.477 102.773 649.467 102.764C649.462 102.76 649.457 102.756 649.452 102.751C649.45 102.749 649.446 102.746 649.445 102.745C649.441 102.742 649.438 102.739 645.987 106.765ZM650.445 129.951C655.669 147.742 658.183 159.101 658.183 177.648H668.788C668.788 157.716 666 145.286 660.62 126.963L650.445 129.951ZM658.183 177.648C658.183 186.115 655.619 189.212 654.2 190.358C653.393 191.01 652.609 191.319 652.06 191.467C651.786 191.541 651.581 191.571 651.482 191.582C651.433 191.588 651.413 191.589 651.427 191.588C651.434 191.588 651.45 191.587 651.474 191.586C651.487 191.586 651.502 191.586 651.519 191.585C651.528 191.585 651.537 191.585 651.547 191.585C651.552 191.585 651.557 191.585 651.562 191.585C651.565 191.585 651.569 191.585 651.57 191.585C651.574 191.585 651.578 191.585 651.578 196.887C651.578 202.19 651.583 202.19 651.587 202.19C651.588 202.19 651.593 202.19 651.596 202.19C651.602 202.19 651.608 202.19 651.614 202.19C651.627 202.189 651.641 202.189 651.655 202.189C651.684 202.189 651.716 202.188 651.751 202.187C651.821 202.185 651.903 202.182 651.997 202.177C652.185 202.167 652.421 202.149 652.698 202.117C653.25 202.053 653.976 201.933 654.818 201.707C656.502 201.253 658.694 200.36 660.864 198.607C665.399 194.943 668.788 188.42 668.788 177.648H658.183ZM651.578 191.585H570.783V202.19H651.578V191.585ZM570.783 191.585H542.278V202.19H570.783V191.585ZM542.278 191.585H486.976V202.19H542.278V191.585ZM486.976 191.585H464.87V202.19H486.976V191.585ZM464.87 191.585H415.988V202.19H464.87V191.585ZM421.29 196.887V196.866H410.685V196.887H421.29Z" fill="#F1E29E"/>
<path fill-rule="evenodd" clip-rule="evenodd" d="M32.5117 101.442L48.542 36.1908C48.542 36.1908 56.3719 6 88.0012 6H256.934H264.088H433.021C464.65 6 472.48 36.1908 472.48 36.1908L488.511 101.442H264.088H256.934H32.5117Z" fill="black"/>
<path d="M48.542 36.1908L43.4095 34.8597L43.4009 34.8927L43.3928 34.9258L48.542 36.1908ZM32.5117 101.442L27.3625 100.177L25.7491 106.744H32.5117V101.442ZM472.48 36.1908L477.629 34.9258L477.621 34.8927L477.613 34.8597L472.48 36.1908ZM488.511 101.442V106.744H495.273L493.66 100.177L488.511 101.442ZM43.3928 34.9258L27.3625 100.177L37.6609 102.707L53.6912 37.4558L43.3928 34.9258ZM88.0012 0.697674C70.2069 0.697674 58.915 9.29812 52.2361 17.8261C48.936 22.0399 46.7549 26.2302 45.3956 29.3627C44.7131 30.9354 44.2298 32.2599 43.9113 33.213C43.7518 33.6901 43.6331 34.0758 43.551 34.3549C43.5099 34.4945 43.4779 34.6076 43.4545 34.6923C43.4428 34.7347 43.4333 34.77 43.4258 34.7979C43.422 34.8119 43.4188 34.8241 43.4161 34.8344C43.4147 34.8395 43.4135 34.8442 43.4124 34.8484C43.4119 34.8506 43.4111 34.8534 43.4109 34.8544C43.4102 34.8571 43.4095 34.8597 48.542 36.1908C53.6745 37.5219 53.6739 37.5242 53.6733 37.5265C53.6732 37.5271 53.6726 37.5292 53.6723 37.5304C53.6717 37.5328 53.6712 37.5347 53.6708 37.5362C53.67 37.5392 53.6697 37.5404 53.6698 37.5399C53.6701 37.5388 53.6723 37.5308 53.6763 37.516C53.6845 37.4865 53.7003 37.4301 53.7243 37.3486C53.7723 37.1854 53.8527 36.9225 53.9692 36.5741C54.2024 35.8762 54.5779 34.842 55.1237 33.5843C56.2209 31.0559 57.974 27.6986 60.5851 24.3647C65.7285 17.7973 74.1662 11.3023 88.0012 11.3023V0.697674ZM256.934 0.697674H88.0012V11.3023H256.934V0.697674ZM256.934 11.3023H264.088V0.697674H256.934V11.3023ZM264.088 11.3023H433.021V0.697674H264.088V11.3023ZM433.021 11.3023C446.856 11.3023 455.294 17.7973 460.437 24.3647C463.048 27.6986 464.801 31.056 465.899 33.5843C466.444 34.842 466.82 35.8762 467.053 36.5741C467.17 36.9225 467.25 37.1854 467.298 37.3486C467.322 37.4301 467.338 37.4865 467.346 37.516C467.35 37.5308 467.352 37.5388 467.352 37.5399C467.353 37.5404 467.352 37.5392 467.351 37.5362C467.351 37.5347 467.351 37.5328 467.35 37.5304C467.35 37.5292 467.349 37.5271 467.349 37.5265C467.348 37.5242 467.348 37.5219 472.48 36.1908C477.613 34.8597 477.612 34.8571 477.611 34.8544C477.611 34.8534 477.61 34.8506 477.61 34.8484C477.609 34.8442 477.608 34.8395 477.606 34.8344C477.603 34.8241 477.6 34.8119 477.596 34.7979C477.589 34.77 477.579 34.7347 477.568 34.6923C477.544 34.6076 477.512 34.4945 477.471 34.3549C477.389 34.0758 477.27 33.6901 477.111 33.213C476.792 32.2599 476.309 30.9354 475.627 29.3627C474.267 26.2302 472.086 22.0399 468.786 17.8261C462.107 9.29811 450.815 0.697674 433.021 0.697674V11.3023ZM467.331 37.4558L483.361 102.707L493.66 100.177L477.629 34.9258L467.331 37.4558ZM488.511 96.1395H264.088V106.744H488.511V96.1395ZM264.088 96.1395H256.934V106.744H264.088V96.1395ZM32.5117 106.744H256.934V96.1395H32.5117V106.744Z" fill="#F1E29E"/>
<path fill-rule="evenodd" clip-rule="evenodd" d="M251.513 207.467H208.921H186.342H129.857H100.743H18.162C18.162 207.467 6 207.467 6 183.701C6 159.934 9.39135 138.558 14.1236 122.936C18.8559 107.314 23.0899 96.1396 23.0899 96.1396H258.849V96.1606H486.432C486.432 96.1606 493.474 96.1393 501.597 122.957C509.721 149.775 509.721 159.955 509.721 183.722C509.721 207.488 497.559 207.488 497.559 207.488H409.62H380.505H324.02H301.441H251.513V207.467Z" fill="#F1E29E"/>
<path d="M251.513 207.467H256.815V202.165H251.513V207.467ZM14.1236 122.936L9.049 121.399L14.1236 122.936ZM23.0899 96.1396V90.8373H19.4288L18.1316 94.2609L23.0899 96.1396ZM258.849 96.1396H264.151V90.8373H258.849V96.1396ZM258.849 96.1606H253.547V101.463H258.849V96.1606ZM486.432 96.1606V101.463H486.44L486.448 101.463L486.432 96.1606ZM501.597 122.957L496.523 124.494L496.523 124.494L501.597 122.957ZM497.559 207.488L497.559 202.186H497.559V207.488ZM251.513 207.488H246.211V212.79H251.513V207.488ZM208.921 212.77H251.513V202.165H208.921V212.77ZM186.342 212.77H208.921V202.165H186.342V212.77ZM129.857 212.77H186.342V202.165H129.857V212.77ZM100.743 212.77H129.857V202.165H100.743V212.77ZM18.162 212.77H100.743V202.165H18.162V212.77ZM0.697674 183.701C0.697674 196.433 3.96326 203.978 8.37543 208.289C10.5494 210.413 12.805 211.546 14.6197 212.138C15.5188 212.43 16.3015 212.588 16.9065 212.672C17.2095 212.714 17.4699 212.739 17.6808 212.753C17.7863 212.759 17.8797 212.764 17.9601 212.766C18.0003 212.767 18.0373 212.768 18.071 212.769C18.0878 212.769 18.1039 212.769 18.119 212.769C18.1266 212.769 18.134 212.769 18.1412 212.769C18.1448 212.77 18.15 212.77 18.1518 212.77C18.1569 212.77 18.162 212.77 18.162 207.467C18.162 202.165 18.1671 202.165 18.172 202.165C18.1736 202.165 18.1786 202.165 18.1818 202.165C18.1882 202.165 18.1945 202.165 18.2006 202.165C18.2129 202.165 18.2245 202.165 18.2355 202.165C18.2574 202.166 18.277 202.166 18.2942 202.167C18.3286 202.168 18.3537 202.169 18.3701 202.17C18.4028 202.172 18.402 202.174 18.3725 202.169C18.3123 202.161 18.1448 202.133 17.9038 202.054C17.4381 201.903 16.6532 201.551 15.7866 200.704C14.1178 199.073 11.3023 194.735 11.3023 183.701H0.697674ZM9.049 121.399C4.15004 137.571 0.697674 159.47 0.697674 183.701H11.3023C11.3023 160.398 14.6327 139.545 19.1982 124.473L9.049 121.399ZM23.0899 96.1396C18.1316 94.2609 18.1315 94.2612 18.1314 94.2615C18.1313 94.2616 18.1312 94.262 18.1311 94.2623C18.1308 94.2629 18.1305 94.2638 18.1301 94.2647C18.1294 94.2667 18.1284 94.2693 18.1271 94.2727C18.1246 94.2793 18.1211 94.2887 18.1165 94.3007C18.1075 94.3248 18.0944 94.3596 18.0773 94.4049C18.0433 94.4956 17.9936 94.6283 17.9291 94.8016C17.8003 95.148 17.6124 95.6565 17.3728 96.3137C16.8936 97.628 16.2075 99.538 15.3731 101.938C13.7047 106.738 11.4399 113.506 9.049 121.399L19.1982 124.473C21.5396 116.744 23.758 110.114 25.3897 105.421C26.2052 103.075 26.8734 101.215 27.336 99.9458C27.5673 99.3113 27.7472 98.8247 27.8683 98.499C27.9289 98.3362 27.9748 98.2137 28.0051 98.133C28.0202 98.0927 28.0315 98.0628 28.0387 98.0437C28.0423 98.0341 28.0449 98.0272 28.0465 98.0229C28.0473 98.0208 28.0479 98.0194 28.0481 98.0186C28.0483 98.0183 28.0484 98.0181 28.0484 98.018C28.0484 98.018 28.0483 98.0181 28.0484 98.0181C28.0483 98.0182 28.0482 98.0184 23.0899 96.1396ZM258.849 90.8373H23.0899V101.442H258.849V90.8373ZM264.151 96.1606V96.1396H253.547V96.1606H264.151ZM258.849 101.463H486.432V90.8582H258.849V101.463ZM486.432 96.1606C486.448 101.463 486.439 101.463 486.429 101.463C486.426 101.463 486.416 101.463 486.409 101.463C486.396 101.463 486.383 101.463 486.371 101.463C486.345 101.462 486.32 101.462 486.295 101.461C486.245 101.46 486.196 101.458 486.149 101.455C486.055 101.45 485.967 101.442 485.885 101.432C485.721 101.412 485.583 101.385 485.472 101.358C485.247 101.302 485.15 101.247 485.177 101.262C485.232 101.291 485.847 101.633 486.887 102.887C489.02 105.459 492.555 111.398 496.523 124.494L506.672 121.42C502.515 107.699 498.468 100.239 495.05 96.1173C493.314 94.0245 491.661 92.6958 490.142 91.891C489.382 91.4881 488.672 91.2258 488.03 91.0663C487.71 90.9869 487.414 90.9343 487.142 90.9019C487.006 90.8857 486.878 90.8746 486.756 90.8677C486.696 90.8642 486.637 90.8618 486.58 90.8603C486.552 90.8595 486.524 90.859 486.497 90.8586C486.483 90.8585 486.47 90.8584 486.456 90.8583C486.45 90.8583 486.44 90.8582 486.436 90.8582C486.426 90.8582 486.416 90.8583 486.432 96.1606ZM496.523 124.494C504.434 150.613 504.419 160.213 504.419 183.722H515.023C515.023 159.697 515.007 148.937 506.672 121.42L496.523 124.494ZM504.419 183.722C504.419 194.756 501.603 199.094 499.934 200.725C499.068 201.571 498.283 201.923 497.817 202.075C497.576 202.154 497.409 202.182 497.348 202.19C497.319 202.194 497.318 202.193 497.351 202.191C497.367 202.19 497.392 202.189 497.427 202.188C497.444 202.187 497.463 202.187 497.485 202.186C497.496 202.186 497.508 202.186 497.52 202.186C497.526 202.186 497.533 202.186 497.539 202.186C497.542 202.186 497.547 202.186 497.549 202.186C497.554 202.186 497.559 202.186 497.559 207.488C497.559 212.79 497.564 212.79 497.569 212.79C497.571 212.79 497.576 212.79 497.58 212.79C497.587 212.79 497.594 212.79 497.602 212.79C497.617 212.79 497.633 212.79 497.65 212.79C497.684 212.789 497.721 212.788 497.761 212.787C497.841 212.785 497.935 212.78 498.04 212.773C498.251 212.76 498.511 212.735 498.814 212.693C499.419 212.609 500.202 212.451 501.101 212.158C502.916 211.567 505.171 210.434 507.345 208.31C511.758 203.999 515.023 196.454 515.023 183.722H504.419ZM497.559 202.186H409.62V212.79H497.559V202.186ZM409.62 202.186H380.505V212.79H409.62V202.186ZM380.505 202.186H324.02V212.79H380.505V202.186ZM324.02 202.186H301.441V212.79H324.02V202.186ZM301.441 202.186H251.513V212.79H301.441V202.186ZM256.815 207.488V207.467H246.211V207.488H256.815Z" fill="black"/>
<path d="M505.384 79.4286L505.359 79.3376L505.213 78.8168C505.086 78.3647 504.902 77.7105 504.673 76.9007C504.215 75.2813 503.576 73.0389 502.855 70.5469C501.415 65.5769 499.631 59.5657 498.287 55.5333C497.13 52.0615 497.23 48.2853 498.939 45.4944C500.559 42.8496 504.015 40.4646 510.977 40.4646H593.691C602.761 40.4646 607.584 42.1992 610.676 44.8297C613.867 47.5449 615.655 51.5437 617.905 57.3322C620.018 62.7674 621.649 70.9079 620.695 77.5067C620.221 80.7818 619.147 83.4298 617.438 85.2346C615.796 86.9694 613.323 88.1856 609.445 88.1856H525.391C516.332 88.1856 511.317 85.6911 508.619 83.4828C507.251 82.3629 506.417 81.2672 505.937 80.4926C505.696 80.1043 505.544 79.7957 505.459 79.6046C505.422 79.5235 505.398 79.4639 505.384 79.4286Z" stroke="#F1E29E" stroke-width="5.30233"/>
<rect x="141.208" y="40.4646" width="47.7209" height="47.7209" rx="7.95349" stroke="#F1E29E" stroke-width="5.30233"/>
<rect x="268.464" y="40.4646" width="47.7209" height="47.7209" rx="7.95349" stroke="#F1E29E" stroke-width="5.30233"/>
<rect x="332.093" y="40.4646" width="47.7209" height="47.7209" rx="7.95349" stroke="#F1E29E" stroke-width="5.30233"/>
<rect x="204.837" y="40.4646" width="47.7209" height="47.7209" rx="7.95349" fill="black" stroke="#F1E29E" stroke-width="5.30233"/>
<path d="M75.7039 49.0414C75.699 49.0582 75.6958 49.0697 75.6942 49.0756L75.6829 49.1209L75.6652 49.1799L67.7117 75.6916L67.7001 75.73L67.6896 75.7616L67.6894 75.7621L67.6893 75.7625L67.6887 75.7644L67.6881 75.7661L67.6847 75.777C67.6792 75.7944 67.6693 75.8257 67.656 75.8702C67.6293 75.9592 67.5886 76.1 67.5402 76.285C67.443 76.6562 67.3163 77.1979 67.2075 77.8511C66.9854 79.1833 66.8589 80.8536 67.1246 82.4474C67.3867 84.0202 68.0001 85.366 69.1344 86.3384C70.2642 87.3068 72.2383 88.1856 75.7765 88.1856H75.8697H75.9629H76.056H76.1491H76.2422H76.3352H76.4282H76.5212H76.6142H76.7071H76.8H76.8928H76.9857H77.0785H77.1712H77.264H77.3567H77.4494H77.542H77.6346H77.7272H77.8198H77.9123H78.0048H78.0973H78.1897H78.2821H78.3745H78.4669H78.5592H78.6514H78.7437H78.8359H78.9281H79.0203H79.1124H79.2045H79.2965H79.3886H79.4806H79.5725H79.6645H79.7564H79.8482H79.9401H80.0319H80.1236H80.2154H80.3071H80.3988H80.4904H80.582H80.6736H80.7652H80.8567H80.9482H81.0396H81.131H81.2224H81.3137H81.4051H81.4963H81.5876H81.6788H81.77H81.8611H81.9523H82.0433H82.1344H82.2254H82.3164H82.4073H82.4982H82.5891H82.68H82.7708H82.8615H82.9523H83.043H83.1337H83.2243H83.3149H83.4055H83.496H83.5865H83.677H83.7674H83.8578H83.9482H84.0385H84.1288H84.219H84.3093H84.3994H84.4896H84.5797H84.6698H84.7598H84.8498H84.9398H85.0297H85.1196H85.2095H85.2993H85.3891H85.4789H85.5686H85.6583H85.7479H85.8375H85.9271H86.0167H86.1062H86.1956H86.285H86.3744H86.4638H86.5531H86.6424H86.7316H86.8208H86.91H86.9991H87.0882H87.1773H87.2663H87.3553H87.4442H87.5331H87.622H87.7108H87.7996H87.8884H87.9771H88.0658H88.1544H88.243H88.3316H88.4201H88.5086H88.5971H88.6855H88.7738H88.8622H88.9505H89.0387H89.1269H89.2151H89.3033H89.3914H89.4794H89.5675H89.6554H89.7434H89.8313H89.9192H90.007H90.0948H90.1825H90.2702H90.3579H90.4455H90.5331H90.6207H90.7082H90.7956H90.8831H90.9704H91.0578H91.1451H91.2324H91.3196H91.4068H91.4939H91.581H91.6681H91.7551H91.8421H91.929H92.0159H92.1028H92.1896H92.2764H92.3631H92.4498H92.5365H92.6231H92.7097H92.7962H92.8827H92.9691H93.0555H93.1419H93.2282H93.3145H93.4007H93.4869H93.5731H93.6592H93.7452H93.8313H93.9172H94.0032H94.0891H94.1749H94.2607H94.3465H94.4322H94.5179H94.6036H94.6891H94.7747H94.8602H94.9457H95.0311H95.1165H95.2018H95.2871H95.3724H95.4576H95.5427H95.6279H95.7129H95.798H95.8829H95.9679H96.0528H96.1376H96.2225H96.3072H96.3919H96.4766H96.5613H96.6458H96.7304H96.8149H96.8993H96.9837H97.0681H97.1524H97.2367H97.3209H97.4051H97.4893H97.5734H97.6574H97.7414H97.8254H97.9093H97.9931H98.077H98.1607H98.2445H98.3282H98.4118H98.4954H98.5789H98.6624H98.7459H98.8293H98.9127H98.996H99.0792H99.1625H99.2456H99.3288H99.4118H99.4949H99.5779H99.6608H99.7437H99.8265H99.9093H99.9921H100.075H100.157H100.24H100.323H100.405H100.488H100.57H100.652H100.735H100.817H100.899H100.981H101.064H101.146H101.228H101.31H101.392H101.473H101.555H101.637H101.719H101.801H101.882H101.964H102.045H102.127H102.208H102.29H102.371H102.452H102.534H102.615H102.696H102.777H102.858H102.939H103.02H103.101H103.182H103.263H103.344H103.424H103.505H103.585H103.666H103.747H103.827H103.907H103.988H104.068H104.148H104.229H104.309H104.389H104.469H104.549H104.629H104.709H104.789H104.868H104.948H105.028H105.107H105.187H105.267H105.346H105.426H105.505H105.584H105.664H105.743H105.822H105.901H105.98H106.059H106.138H106.217H106.296H106.375H106.454H106.532H106.611H106.69H106.768H106.847H106.925H107.003H107.082H107.16H107.238H107.316H107.395H107.473H107.551H107.629H107.707H107.784H107.862H107.94H108.018H108.095H108.173H108.251H108.328H108.405H108.483H108.56H108.637H108.715H108.792H108.869H108.946H109.023H109.1H109.177H109.254H109.33H109.407H109.484H109.56H109.637H109.713H109.79H109.866H109.943H110.019H110.095H110.171H110.247H110.323H110.399H110.475H110.551H110.627H110.703H110.779H110.854H110.93H111.005H111.081H111.156H111.232H111.307H111.382H111.458H111.533H111.608H111.683H111.758H111.833H111.908H111.982H112.057H112.132H112.207H112.281H112.356H112.43H112.505H112.579H112.653H112.727H112.802H112.876H112.95H113.024H113.098H113.172H113.245H113.319H113.393H113.467H113.54H113.614H113.687H113.761H113.834H113.907H113.981H114.054H114.127H114.2H114.273H114.346H114.419H114.492H114.564H114.637H114.71H114.782H114.855H114.927H115H115.072H115.144H115.217H115.289H115.361H115.433H115.505H115.577H115.649H115.721H115.792H115.864H115.936H116.007H116.079H116.15H116.221H116.293H116.364H116.435H116.506H116.577H116.648H116.719H116.79H116.861H116.932H117.003H117.073H117.144H117.214H117.285H117.355H117.426H117.496H117.566H117.636H117.706H117.776H117.846H117.916H117.986H118.056H118.125H118.195C120.759 88.1856 122.504 87.6178 123.708 86.9014C124.915 86.1833 125.723 85.2289 126.278 84.2387C126.842 83.2329 127.135 82.2009 127.284 81.4024C127.358 81.0087 127.393 80.6873 127.41 80.4763C127.419 80.3712 127.422 80.2949 127.424 80.2522C127.425 80.2354 127.425 80.2239 127.425 80.2181V80.2166V80.2125V80.208V80.203V80.1975V80.1915V80.1851V80.1782V80.1708V80.163V80.1547V80.146V80.1368V80.117V80.0955V80.084V80.0721V80.047V80.02V79.9914V79.961V79.9288V79.895V79.8594V79.8222V79.7832V79.7632V79.7426V79.7217V79.7004V79.6565V79.611V79.5639V79.5151V79.4648V79.4129V79.3864V79.3595V79.3044V79.2479V79.1898V79.1302V79.0692V79.0381V79.0066V78.9426V78.8771V78.8101V78.6719V78.6365V78.6007V78.5281V78.4541V78.4166V78.3788V78.302V78.2632V78.224V78.0639V77.8985V77.8564V77.814V77.7281V77.5526V77.508V77.4631V77.3723V77.1871V77.0927V77.0451V76.9972V76.8027V76.7038V76.6539V76.6037V76.4003V76.297V76.2449V76.1926V75.9807V75.0933V73.1486V73.0205V72.9561V72.8916V72.6319V72.501V72.4353V72.3694V72.1045V71.9711V71.9042V71.8371V71.5674V71.4316V71.3636V71.2954V71.0213V70.8834V70.8144V70.7451V70.4671V70.3273V70.1872V70.1169V70.0466V69.9056V69.6223V69.5513V69.4802V69.4089V69.3376V68.764V52.3549C127.425 49.1201 127.086 46.1095 125.824 43.9522C124.727 42.0757 122.707 40.4646 118.196 40.4646H104.608H89.0323C83.2221 40.4646 79.9558 42.7447 78.1035 44.8616C77.1471 45.9547 76.5309 47.0505 76.1572 47.8658C75.9714 48.2713 75.8488 48.6002 75.7762 48.8143C75.74 48.921 75.7165 48.9984 75.7039 49.0414Z" stroke="#F1E29E" stroke-width="5.30233"/>
<path d="M447.441 49.0414C447.446 49.0582 447.449 49.0697 447.45 49.0756L447.462 49.1209L447.479 49.1799L455.433 75.6916L455.444 75.73L455.455 75.7616L455.455 75.7621L455.455 75.7625L455.456 75.7644L455.456 75.7661L455.46 75.777C455.465 75.7944 455.475 75.8257 455.489 75.8702C455.515 75.9592 455.556 76.1 455.604 76.285C455.702 76.6562 455.828 77.1979 455.937 77.8511C456.159 79.1833 456.286 80.8536 456.02 82.4474C455.758 84.0202 455.144 85.366 454.01 86.3384C452.88 87.3068 450.906 88.1856 447.368 88.1856H447.275H447.182H447.089H446.995H446.902H446.809H446.716H446.623H446.53H446.437H446.345H446.252H446.159H446.066H445.973H445.881H445.788H445.695H445.603H445.51H445.417H445.325H445.232H445.14H445.047H444.955H444.862H444.77H444.678H444.585H444.493H444.401H444.309H444.216H444.124H444.032H443.94H443.848H443.756H443.664H443.572H443.48H443.388H443.296H443.204H443.113H443.021H442.929H442.837H442.746H442.654H442.562H442.471H442.379H442.288H442.196H442.105H442.014H441.922H441.831H441.739H441.648H441.557H441.466H441.375H441.283H441.192H441.101H441.01H440.919H440.828H440.737H440.646H440.555H440.465H440.374H440.283H440.192H440.102H440.011H439.92H439.83H439.739H439.649H439.558H439.468H439.377H439.287H439.196H439.106H439.016H438.925H438.835H438.745H438.655H438.565H438.475H438.385H438.295H438.205H438.115H438.025H437.935H437.845H437.755H437.666H437.576H437.486H437.397H437.307H437.217H437.128H437.038H436.949H436.859H436.77H436.681H436.591H436.502H436.413H436.324H436.235H436.145H436.056H435.967H435.878H435.789H435.7H435.611H435.523H435.434H435.345H435.256H435.167H435.079H434.99H434.902H434.813H434.724H434.636H434.547H434.459H434.371H434.282H434.194H434.106H434.018H433.929H433.841H433.753H433.665H433.577H433.489H433.401H433.313H433.225H433.138H433.05H432.962H432.874H432.787H432.699H432.611H432.524H432.436H432.349H432.261H432.174H432.087H431.999H431.912H431.825H431.738H431.651H431.564H431.476H431.389H431.302H431.215H431.129H431.042H430.955H430.868H430.781H430.695H430.608H430.521H430.435H430.348H430.262H430.175H430.089H430.003H429.916H429.83H429.744H429.658H429.571H429.485H429.399H429.313H429.227H429.141H429.055H428.97H428.884H428.798H428.712H428.627H428.541H428.455H428.37H428.284H428.199H428.113H428.028H427.943H427.857H427.772H427.687H427.602H427.517H427.432H427.347H427.262H427.177H427.092H427.007H426.922H426.837H426.753H426.668H426.583H426.499H426.414H426.33H426.245H426.161H426.076H425.992H425.908H425.824H425.739H425.655H425.571H425.487H425.403H425.319H425.235H425.151H425.068H424.984H424.9H424.816H424.733H424.649H424.566H424.482H424.399H424.315H424.232H424.149H424.065H423.982H423.899H423.816H423.733H423.65H423.567H423.484H423.401H423.318H423.235H423.152H423.07H422.987H422.904H422.822H422.739H422.657H422.574H422.492H422.41H422.328H422.245H422.163H422.081H421.999H421.917H421.835H421.753H421.671H421.589H421.507H421.426H421.344H421.262H421.181H421.099H421.018H420.936H420.855H420.773H420.692H420.611H420.53H420.449H420.367H420.286H420.205H420.124H420.043H419.963H419.882H419.801H419.72H419.64H419.559H419.478H419.398H419.318H419.237H419.157H419.076H418.996H418.916H418.836H418.756H418.676H418.596H418.516H418.436H418.356H418.276H418.196H418.117H418.037H417.957H417.878H417.798H417.719H417.64H417.56H417.481H417.402H417.323H417.243H417.164H417.085H417.006H416.927H416.849H416.77H416.691H416.612H416.534H416.455H416.376H416.298H416.219H416.141H416.063H415.984H415.906H415.828H415.75H415.672H415.594H415.516H415.438H415.36H415.282H415.205H415.127H415.049H414.972H414.894H414.817H414.739H414.662H414.584H414.507H414.43H414.353H414.276H414.199H414.122H414.045H413.968H413.891H413.814H413.737H413.661H413.584H413.508H413.431H413.355H413.278H413.202H413.126H413.049H412.973H412.897H412.821H412.745H412.669H412.593H412.517H412.442H412.366H412.29H412.215H412.139H412.064H411.988H411.913H411.837H411.762H411.687H411.612H411.537H411.462H411.387H411.312H411.237H411.162H411.087H411.013H410.938H410.863H410.789H410.714H410.64H410.566H410.491H410.417H410.343H410.269H410.195H410.121H410.047H409.973H409.899H409.825H409.752H409.678H409.604H409.531H409.457H409.384H409.311H409.237H409.164H409.091H409.018H408.945H408.872H408.799H408.726H408.653H408.58H408.507H408.435H408.362H408.29H408.217H408.145H408.072H408H407.928H407.856H407.784H407.712H407.64H407.568H407.496H407.424H407.352H407.281H407.209H407.137H407.066H406.994H406.923H406.852H406.78H406.709H406.638H406.567H406.496H406.425H406.354H406.283H406.213H406.142H406.071H406.001H405.93H405.86H405.789H405.719H405.649H405.578H405.508H405.438H405.368H405.298H405.228H405.159H405.089H405.019H404.949C402.386 88.1856 400.64 87.6178 399.436 86.9014C398.23 86.1833 397.421 85.2289 396.866 84.2387C396.303 83.2329 396.009 82.2009 395.86 81.4024C395.787 81.0087 395.751 80.6873 395.734 80.4763C395.726 80.3712 395.722 80.2949 395.721 80.2522C395.72 80.2354 395.72 80.2239 395.72 80.2181V80.2166V80.2125V80.208V80.203V80.1975V80.1915V80.1851V80.1782V80.1708V80.163V80.1547V80.146V80.1368V80.117V80.0955V80.084V80.0721V80.047V80.02V79.9914V79.961V79.9288V79.895V79.8594V79.8222V79.7832V79.7632V79.7426V79.7217V79.7004V79.6565V79.611V79.5639V79.5151V79.4648V79.4129V79.3864V79.3595V79.3044V79.2479V79.1898V79.1302V79.0692V79.0381V79.0066V78.9426V78.8771V78.8101V78.6719V78.6365V78.6007V78.5281V78.4541V78.4166V78.3788V78.302V78.2632V78.224V78.0639V77.8985V77.8564V77.814V77.7281V77.5526V77.508V77.4631V77.3723V77.1871V77.0927V77.0451V76.9972V76.8027V76.7038V76.6539V76.6037V76.4003V76.297V76.2449V76.1926V75.9807V75.0933V73.1486V73.0205V72.9561V72.8916V72.6319V72.501V72.4353V72.3694V72.1045V71.9711V71.9042V71.8371V71.5674V71.4316V71.3636V71.2954V71.0213V70.8834V70.8144V70.7451V70.4671V70.3273V70.1872V70.1169V70.0466V69.9056V69.6223V69.5513V69.4802V69.4089V69.3376V68.764V52.3549C395.72 49.1201 396.059 46.1095 397.321 43.9522C398.418 42.0757 400.438 40.4646 404.949 40.4646H418.536H434.112C439.922 40.4646 443.189 42.7447 445.041 44.8616C445.997 45.9547 446.614 47.0505 446.987 47.8658C447.173 48.2713 447.296 48.6002 447.368 48.8143C447.405 48.921 447.428 48.9984 447.441 49.0414Z" stroke="#F1E29E" stroke-width="5.30233"/>
<path d="M553.629 139.873C552.837 133.544 557.773 127.953 564.151 127.953H611.707C617.055 127.953 621.567 131.936 622.23 137.242L624.881 158.452C625.672 164.781 620.737 170.372 614.358 170.372H566.803C561.454 170.372 556.943 166.389 556.28 161.082L553.629 139.873Z" fill="black"/>
<line x1="552.139" y1="141.209" x2="626.371" y2="141.209" stroke="#F1E29E" stroke-width="5.30233"/>
<line x1="565.379" y1="127.66" x2="570.681" y2="175.381" stroke="#F1E29E" stroke-width="5.30233"/>
<line x1="586.588" y1="127.66" x2="591.89" y2="175.381" stroke="#F1E29E" stroke-width="5.30233"/>
<line x1="607.797" y1="127.66" x2="613.099" y2="175.381" stroke="#F1E29E" stroke-width="5.30233"/>
<line x1="552.139" y1="157.116" x2="626.371" y2="157.116" stroke="#F1E29E" stroke-width="5.30233"/>
</svg>
