<svg width="1184" height="304" viewBox="0 0 1184 304" fill="none" xmlns="http://www.w3.org/2000/svg">
<path d="M240 44V164H1176L1152 128H1040L988 8H280C240 8 240 44 240 44Z" fill="black"/>
<circle cx="1088" cy="248" r="48" fill="black" stroke="#F1E29E" stroke-width="16"/>
<circle cx="1072" cy="248" r="48" fill="#F1E29E" stroke="black" stroke-width="16"/>
<path d="M496 8C536 8 856 8 920 8C984 8 992 16 996 24C1000 32 1032 124 1044 124C1056 124 1072 124 1124 124C1176 124 1176 160 1176 160V164" stroke="#F1E29E" stroke-width="16"/>
<path d="M456 128V243.504H1176V162.582" stroke="#F1E29E" stroke-width="16"/>
<circle cx="648" cy="248" r="48" fill="black" stroke="#F1E29E" stroke-width="16"/>
<circle cx="632" cy="248" r="48" fill="#F1E29E" stroke="black" stroke-width="16"/>
<mask id="path-8-inside-1_926_5396" fill="white">
<path fill-rule="evenodd" clip-rule="evenodd" d="M114.945 231.409C104.003 237.226 91.517 240.522 78.2609 240.522C35.0386 240.522 0 205.483 0 162.261C0 119.039 35.0386 84 78.2609 84C118.596 84 151.805 114.514 156.061 153.718C180.658 155.694 200.004 176.282 200.004 201.389C200.004 227.802 178.591 249.215 152.178 249.215C137.134 249.215 123.712 242.269 114.945 231.409Z"/>
</mask>
<path fill-rule="evenodd" clip-rule="evenodd" d="M114.945 231.409C104.003 237.226 91.517 240.522 78.2609 240.522C35.0386 240.522 0 205.483 0 162.261C0 119.039 35.0386 84 78.2609 84C118.596 84 151.805 114.514 156.061 153.718C180.658 155.694 200.004 176.282 200.004 201.389C200.004 227.802 178.591 249.215 152.178 249.215C137.134 249.215 123.712 242.269 114.945 231.409Z" fill="black"/>
<path d="M114.945 231.409L127.394 221.359L119.097 211.081L107.435 217.281L114.945 231.409ZM156.061 153.718L140.154 155.445L141.583 168.606L154.779 169.666L156.061 153.718ZM107.435 217.281C98.749 221.899 88.8349 224.522 78.2609 224.522V256.522C94.199 256.522 109.258 252.553 122.456 245.537L107.435 217.281ZM78.2609 224.522C43.8751 224.522 16 196.647 16 162.261H-16C-16 214.32 26.202 256.522 78.2609 256.522V224.522ZM16 162.261C16 127.875 43.8751 100 78.2609 100V68C26.202 68 -16 110.202 -16 162.261H16ZM78.2609 100C110.339 100 136.77 124.273 140.154 155.445L171.967 151.991C166.839 104.756 126.853 68 78.2609 68V100ZM154.779 169.666C171.131 170.98 184.004 184.689 184.004 201.389H216.004C216.004 167.875 190.185 140.408 157.342 137.769L154.779 169.666ZM184.004 201.389C184.004 218.966 169.755 233.215 152.178 233.215V265.215C187.428 265.215 216.004 236.639 216.004 201.389H184.004ZM152.178 233.215C142.174 233.215 133.255 228.617 127.394 221.359L102.496 241.46C114.17 255.92 132.094 265.215 152.178 265.215V233.215Z" fill="#F1E29E" mask="url(#path-8-inside-1_926_5396)"/>
<path d="M224 260V108H720.607C737.822 108 788 153.509 824 153.509H952V260H224Z" fill="#F1E29E" stroke="black" stroke-width="16"/>
<circle cx="432" cy="244" r="48" fill="black" stroke="#F1E29E" stroke-width="16"/>
<circle cx="872" cy="244" r="48" fill="black" stroke="#F1E29E" stroke-width="16"/>
<circle cx="416" cy="244" r="48" fill="#F1E29E" stroke="black" stroke-width="16"/>
<circle cx="856" cy="244" r="48" fill="#F1E29E" stroke="black" stroke-width="16"/>
<rect x="952" y="140" width="224" height="112" fill="#F1E29E"/>
<path d="M975.193 41.6051L978.857 40C975.193 41.6051 975.193 41.6052 975.193 41.6054L975.193 41.6066L975.196 41.6113L975.204 41.6305L975.238 41.7073L975.37 42.0095C975.486 42.2751 975.657 42.6666 975.876 43.1694C976.315 44.1749 976.946 45.6255 977.717 47.4039C979.26 50.9611 981.36 55.8279 983.593 61.0677C988.081 71.6022 993.029 83.4766 995.1 89.3336C996.813 94.1762 995.863 97.747 994.092 100.084C992.223 102.551 989.177 104 986.141 104L851.631 104C843.598 104 839.185 101.367 836.8 99.1006C835.568 97.9288 834.792 96.7728 834.335 95.9443C834.107 95.5308 833.962 95.2036 833.88 95.0046C833.84 94.9054 833.816 94.839 833.806 94.8109C833.806 94.8101 833.805 94.8093 833.805 94.8085L833.74 94.5907L833.628 94.3457L829.986 96C833.628 94.3457 833.628 94.3456 833.628 94.3453L833.628 94.344L833.625 94.3386L833.615 94.317L833.576 94.2314L833.424 93.896C833.291 93.6016 833.094 93.1686 832.843 92.6144C832.341 91.5062 831.62 89.9138 830.745 87.9778C828.995 84.1056 826.631 78.8602 824.172 73.3659C819.221 62.3047 813.979 50.4406 812.506 46.5756C810.526 41.3799 814.418 32 825.743 32H957.639C965.072 32 969.404 34.5866 971.869 36.9107C973.139 38.1076 973.975 39.2949 974.482 40.156C974.735 40.5851 974.903 40.9273 975 41.1399C975.048 41.246 975.078 41.3189 975.092 41.3533C975.094 41.3581 975.095 41.3621 975.097 41.3653L975.134 41.4713L975.193 41.6051Z" stroke="#F1E29E" stroke-width="8"/>
<path d="M240 164V44C240 44 240 8 280 8C320 8 636 8 700 8C764 8 772 16 776 24C780 32 812 124 824 124C836 124 852 124 904 124C956 124 956 160 956 160" stroke="#F1E29E" stroke-width="8"/>
<path d="M240 164V44C240 44 240 8 280 8C302.827 8 415.535 8 520 8" stroke="#F1E29E" stroke-width="16"/>
<rect x="452" y="32" width="72" height="72" rx="12" fill="black" stroke="#F1E29E" stroke-width="8"/>
<rect x="268" y="32" width="72" height="72" rx="12" fill="black" stroke="#F1E29E" stroke-width="8"/>
<rect x="544" y="32" width="72" height="72" rx="12" fill="black" stroke="#F1E29E" stroke-width="8"/>
<rect x="636" y="32" width="72" height="72" rx="12" fill="black" stroke="#F1E29E" stroke-width="8"/>
<rect x="360" y="32" width="72" height="72" rx="12" fill="black" stroke="#F1E29E" stroke-width="8"/>
<path d="M728 49.9397C728 44.6963 728.095 40.3433 729.843 37.175C731.139 34.8264 733.799 32.4303 740.751 32.0517C745.912 32.3529 748.659 33.9326 750.521 35.814C752.522 37.8349 753.769 40.3838 755.408 43.7311C755.728 44.3858 756.063 45.071 756.422 45.7889C760.435 53.8136 768.285 69.5321 773.055 85.1671C775.164 92.0821 773.694 96.5878 771.27 99.3758C768.696 102.338 764.492 104 760.164 104H760.103H760.042H759.982H759.922H759.863H759.804H759.746H759.688H759.631H759.574H759.518H759.462H759.407H759.352H759.297H759.244H759.19H759.137H759.085H759.033H758.981H758.93H758.879H758.829H758.78H758.73H758.682H758.633H758.585H758.538H758.491H758.444H758.398H758.352H758.307H758.262H758.217H758.173H758.13H758.087H758.044H758.001H757.96H757.918H757.877H757.836H757.796H757.756H757.716H757.677H757.638H757.6H757.562H757.524H757.487H757.45H757.414H757.378H757.342H757.307H757.272H757.237H757.203H757.169H757.136H757.102H757.07H757.037H757.005H756.973H756.942H756.911H756.88H756.85H756.82H756.79H756.761H756.732H756.703H756.674H756.646H756.619H756.591H756.564H756.537H756.511H756.484H756.458H756.433H756.408H756.383H756.358H756.333H756.309H756.285H756.262H756.239H756.216H756.193H756.17H756.148H756.126H756.105H756.083H756.062H756.042H756.021H756.001H755.981H755.961H755.941H755.922H755.903H755.884H755.866H755.847H755.829H755.811H755.794H755.776H755.759H755.742H755.725H755.709H755.693H755.677H755.661H755.645H755.63H755.614H755.599H755.584H755.57H755.555H755.541H755.527H755.513H755.5H755.486H755.473H755.46H755.447H755.434H755.421H755.409H755.397H755.384H755.373H755.361H755.349H755.338H755.326H755.315H755.304H755.293H755.283H755.272H755.262H755.251H755.241H755.231H755.221H755.211H755.202H755.192H755.183H755.174H755.164H755.155H755.146H755.137H755.129H755.12H755.112H755.103H755.095H755.087H755.078H755.07H755.062H755.055H755.047H755.039H755.031H755.024H755.016H755.009H755.002H754.994H754.987H754.98H754.973H754.966H754.959H754.952H754.945H754.938H754.931H754.925H754.918H754.911H754.905H754.898H754.891H754.885H754.878H754.872H754.865H754.859H754.852H754.846H754.84H754.833H754.827H754.82H754.814H754.808H754.801H754.795H754.788H754.782H754.776H754.769H754.763H754.756H754.75H754.743H754.737H754.73H754.724H754.717H754.71H754.704H754.697H754.69H754.683H754.676H754.669H754.662H754.655H754.648H754.641H754.634H754.627H754.619H754.612H754.605H754.597H754.589H754.582H754.574H754.566H754.558H754.55H754.542H754.534H754.525H754.517H754.508H754.5H754.491H754.482H754.473H754.464H754.455H754.446H754.437H754.427H754.417H754.408H754.398H754.388H754.378H754.367H754.357H754.346H754.336H754.325H754.314H754.303H754.291H754.28H754.268H754.257H754.245H754.233H754.22H754.208H754.195H754.183H754.17H754.157H754.143H754.13H754.116H754.103H754.088H754.074H754.06H754.045H754.03H754.015H754H753.985H753.969H753.953H753.937H753.921H753.905H753.888H753.871H753.854H753.837H753.819H753.801H753.783H753.765H753.746H753.728H753.709H753.689H753.67H753.65H753.63H753.61H753.589H753.569H753.548H753.526H753.505H753.483H753.461H753.438H753.416H753.393H753.37H753.346H753.322H753.298H753.274H753.249H753.224H753.199H753.173H753.148H753.121H753.095H753.068H753.041H753.014H752.986H752.958H752.93H752.901H752.872H752.843H752.813H752.783H752.753H752.722H752.691H752.66H752.628H752.596H752.564H752.531H752.498H752.464H752.431H752.396H752.362H752.327H752.292H752.256H752.22H752.184H752.147H752.11H752.072H752.034H751.996H751.957H751.918H751.879H751.839H751.799H751.758H751.717H751.676H751.634H751.591H751.549H751.506H751.462H751.418H751.374H751.329H751.284H751.238H751.192H751.145H751.098H751.051H751.003H750.955H750.906H750.857H750.807H750.757H750.707H750.656H750.604H750.552H750.5H750.447H750.394H750.34H750.286H750.231H750.176H750.12H750.064H750.007H749.95H749.892H749.834H749.776H749.716H749.657H749.597H749.536H749.475H749.413H749.351H749.288H749.225H749.161H749.097H749.032H748.967H748.901H748.835H748.768H748.701H748.633H748.564H748.495H748.425H748.355H748.285H748.213H748.142H748.069H747.996H747.923H747.849H747.774H747.699H747.623H747.547H747.47H747.393H747.314H747.236H747.157H747.077H746.996H746.915H746.834H746.752H746.669H746.585H746.501H746.417H746.332H746.246H746.159H746.072H745.985H745.896H745.808H745.718H745.628H745.537H745.446H745.354H745.261H745.168H745.074H744.979H744.884H744.788H744.691H744.594H744.496H744.398H744.298H744.198H744.098H743.997H743.895H743.792H743.689H743.585H743.481H743.375H743.269H743.163H743.056H742.948H742.839H742.729C734.767 104 731.408 100.738 729.793 97.9795C728.91 96.4697 728.451 94.9249 728.219 93.734C728.104 93.1463 728.049 92.6674 728.023 92.3542C728.01 92.1983 728.004 92.0857 728.002 92.0237C728.001 92.0011 728 91.9853 728 91.9768V91.9767V91.9705V91.9636V91.9561V91.9478V91.9388V91.9291V91.9187V91.9076V91.8958V91.8833V91.8701V91.8562V91.8264V91.7939V91.7586V91.7207V91.6801V91.6588V91.6368V91.6142V91.591V91.5425V91.4914V91.4377V91.3815V91.3228V91.2616V91.1978V91.1316V91.0629V91.0277V90.9918V90.9183V90.8424V90.7641V90.6834V90.6004V90.5151V90.4275V90.3376V90.2918V90.2454V90.151V90.103V90.0544V89.9556V89.8546V89.6461V89.5926V89.5386V89.4841V89.4291V89.2038V88.9702V88.9106V88.8504V88.7287V88.4792V88.2221V88.1566V88.0906V87.9573V87.6852V87.4058V87.3348V87.2634V87.1193V86.8259V86.6766V86.6013V86.5256V86.2187V85.9054V85.826V85.7463V85.5857V85.2598V85.0947V85.0115V84.928V84.2468V82.8192V81.3127V80.533V80.3355V80.2364V80.1371V79.7373V79.3339V79.2325V79.1308V79.029V78.9269V78.5166V78.3102V78.2067V78.103V77.2668V77.056V76.9504V76.8445V76.6324V76.5261V76.4197V75.9923V75.7778V75.6703V75.5627V75.131V74.6973V49.9397Z" fill="black" stroke="#F1E29E" stroke-width="8"/>
<rect x="232" y="140" width="712" height="40" rx="20" fill="#F1E29E"/>
</svg>
