<svg width="1112" height="448" viewBox="0 0 1112 448" fill="none" xmlns="http://www.w3.org/2000/svg">
<circle cx="995.031" cy="380" r="60" fill="#006FFF" stroke="#8AE0FF" stroke-width="16"/>
<circle cx="980" cy="380" r="60" fill="#8AE0FF" stroke="#006FFF" stroke-width="16"/>
<circle cx="419.031" cy="380" r="60" fill="#006FFF" stroke="#8AE0FF" stroke-width="16"/>
<circle cx="404" cy="380" r="60" fill="#8AE0FF" stroke="#006FFF" stroke-width="16"/>
<path fill-rule="evenodd" clip-rule="evenodd" d="M224 224V88C224 64 256 8 286.129 8H568.194C598.665 8 625.616 25.8877 650.087 42.1294C670.433 55.6337 689.065 68 706.581 68H1044C1104 68 1104 124 1104 124V224V376H224V224Z" fill="#006FFF"/>
<path d="M650.087 42.1294L654.511 35.4639L654.511 35.4639L650.087 42.1294ZM1104 376V384H1112V376H1104ZM224 376H216V384H224V376ZM216 88V224H232V88H216ZM286.129 0C276.136 0 266.786 4.60239 258.801 10.8086C250.741 17.0737 243.383 25.4966 237.188 34.4471C230.973 43.4263 225.746 53.2005 222.049 62.3885C218.415 71.4195 216 80.5201 216 88H232C232 83.4799 233.585 76.5805 236.892 68.3615C240.137 60.2995 244.793 51.5737 250.344 43.5529C255.915 35.5034 262.207 28.4263 268.62 23.4414C275.109 18.3976 281.058 16 286.129 16V0ZM568.194 0H286.129V16H568.194V0ZM654.511 35.4639C630.5 19.528 601.504 0 568.194 0V16C595.825 16 620.731 32.2474 645.663 48.7949L654.511 35.4639ZM706.581 60C699.647 60 691.932 57.533 683.024 52.9992C674.124 48.4694 664.782 42.2813 654.511 35.4639L645.663 48.7949C655.738 55.4817 665.885 62.229 675.767 67.2585C685.64 72.2838 695.999 76 706.581 76V60ZM1044 60H706.581V76H1044V60ZM1104 124C1112 124 1112 123.996 1112 123.991C1112 123.989 1112 123.984 1112 123.981C1112 123.973 1112 123.965 1112 123.956C1112 123.938 1112 123.916 1112 123.891C1112 123.841 1112 123.778 1112 123.701C1111.99 123.548 1111.99 123.341 1111.98 123.086C1111.96 122.574 1111.93 121.864 1111.86 120.983C1111.72 119.224 1111.46 116.768 1110.94 113.844C1109.9 108.03 1107.81 100.17 1103.55 92.2222C1099.27 84.2329 1092.76 76.0822 1082.91 69.9575C1073.05 63.8178 1060.29 60 1044 60V76C1057.71 76 1067.45 79.1822 1074.46 83.5425C1081.49 87.9178 1086.23 93.7671 1089.45 99.7778C1092.69 105.83 1094.35 111.97 1095.19 116.656C1095.6 118.982 1095.81 120.901 1095.91 122.204C1095.96 122.855 1095.98 123.348 1095.99 123.657C1096 123.811 1096 123.919 1096 123.978C1096 124.007 1096 124.024 1096 124.027C1096 124.029 1096 124.028 1096 124.024C1096 124.021 1096 124.018 1096 124.014C1096 124.012 1096 124.009 1096 124.008C1096 124.004 1096 124 1104 124ZM1112 224V124H1096V224H1112ZM1096 224V376H1112V224H1096ZM1104 368H224V384H1104V368ZM232 376V224H216V376H232Z" fill="#8AE0FF"/>
<path d="M8 88V224H888V124C888 124 888 68 828 68H490.581C452 68 408 8 352.194 8H70.129C40 8 8 64 8 88Z" fill="#8AE0FF" stroke="#8AE0FF" stroke-width="16" stroke-linecap="square"/>
<rect x="8" y="224" width="880" height="152" fill="#8AE0FF"/>
<rect x="8" y="224" width="880" height="152" stroke="#8AE0FF" stroke-width="16"/>
<rect x="8" y="224" width="880" height="152" stroke="#8AE0FF" stroke-width="16"/>
<rect x="208" y="128" width="152" height="120" rx="16" fill="#006FFF" stroke="#8AE0FF" stroke-width="8"/>
<rect x="40" y="128" width="152" height="120" rx="16" fill="#006FFF" stroke="#8AE0FF" stroke-width="8"/>
<rect x="376" y="128" width="152" height="120" rx="16" fill="#006FFF" stroke="#8AE0FF" stroke-width="8"/>
<rect x="544" y="128" width="152" height="120" rx="16" fill="#006FFF" stroke="#8AE0FF" stroke-width="8"/>
<rect x="712" y="128" width="152" height="120" rx="16" fill="#006FFF" stroke="#8AE0FF" stroke-width="8"/>
<rect x="924" y="132" width="144" height="112" rx="12" fill="#006FFF" stroke="#8AE0FF" stroke-width="8"/>
<rect x="924" y="92" width="144" height="16" rx="8" fill="#8AE0FF" stroke="#8AE0FF" stroke-width="8"/>
<path d="M920 284.994C920 274.43 930.057 266.766 940.243 269.567L981.917 281.027C983.3 281.407 984.726 281.6 986.16 281.6H1013.54C1015.17 281.6 1016.79 281.352 1018.34 280.864L1051.2 270.536C1061.51 267.297 1072 274.995 1072 285.8V336C1072 344.837 1064.84 352 1056 352H936C927.163 352 920 344.837 920 336V284.994Z" fill="#8AE0FF" stroke="#8AE0FF" stroke-width="8"/>
<circle cx="779.031" cy="380" r="60" fill="#006FFF" stroke="#8AE0FF" stroke-width="16"/>
<circle cx="203.031" cy="380" r="60" fill="#006FFF" stroke="#8AE0FF" stroke-width="16"/>
<circle cx="764" cy="380" r="60" fill="#8AE0FF" stroke="#006FFF" stroke-width="16"/>
<circle cx="188" cy="380" r="60" fill="#8AE0FF" stroke="#006FFF" stroke-width="16"/>
</svg>
