<svg width="1007" height="416" viewBox="0 0 1007 416" fill="none" xmlns="http://www.w3.org/2000/svg">
<path d="M880.372 408.441C909.672 408.441 933.425 384.689 933.425 355.388C933.425 326.088 909.672 302.336 880.372 302.336C851.072 302.336 827.319 326.088 827.319 355.388C827.319 384.689 851.072 408.441 880.372 408.441Z" fill="white" stroke="black" stroke-width="14.8772"/>
<path d="M431.253 408.441C460.553 408.441 484.305 384.689 484.305 355.388C484.305 326.088 460.553 302.336 431.253 302.336C401.953 302.336 378.2 326.088 378.2 355.388C378.2 384.689 401.953 408.441 431.253 408.441Z" fill="white" stroke="black" stroke-width="14.8772"/>
<path d="M867.196 408.441C896.496 408.441 920.249 384.689 920.249 355.388C920.249 326.088 896.496 302.336 867.196 302.336C837.896 302.336 814.143 326.088 814.143 355.388C814.143 384.689 837.896 408.441 867.196 408.441Z" fill="black" stroke="white" stroke-width="14.8772"/>
<path d="M418.075 408.441C447.375 408.441 471.128 384.689 471.128 355.388C471.128 326.088 447.375 302.336 418.075 302.336C388.775 302.336 365.022 326.088 365.022 355.388C365.022 384.689 388.775 408.441 418.075 408.441Z" fill="black" stroke="white" stroke-width="14.8772"/>
<rect x="435.619" y="1" width="217.544" height="35.0877" fill="black"/>
<path fill-rule="evenodd" clip-rule="evenodd" d="M427.563 8.0166C416.33 8.0166 400.533 43.1043 400.533 43.1043H432.124H454.236H478.72H510.311H532.423C532.423 43.1043 516.626 8.0166 505.393 8.0166H483.28H478.72H454.236H432.124H427.563Z" fill="black"/>
<path d="M400.533 43.1043L393.75 40.0506L389.027 50.5429H400.533V43.1043ZM532.423 43.1043V50.5429H543.93L539.206 40.0506L532.423 43.1043ZM400.533 43.1043C407.316 46.158 407.316 46.1588 407.315 46.1594C407.315 46.1594 407.315 46.1599 407.315 46.16C407.315 46.1601 407.315 46.1597 407.316 46.1588C407.317 46.1569 407.318 46.1529 407.321 46.1469C407.327 46.1349 407.336 46.1146 407.349 46.0864C407.374 46.03 407.415 45.9418 407.469 45.8238C407.578 45.5879 407.742 45.2335 407.958 44.7777C408.39 43.8653 409.024 42.5502 409.821 40.9675C411.422 37.7883 413.648 33.593 416.185 29.4355C418.758 25.2199 421.484 21.321 424.047 18.5661C425.327 17.1899 426.383 16.3015 427.172 15.7991C427.997 15.2736 428.079 15.4552 427.563 15.4552V0.578005C424.239 0.578005 421.37 1.85614 419.182 3.24942C416.957 4.66591 414.935 6.51871 413.155 8.432C409.597 12.2561 406.267 17.1291 403.486 21.6854C400.67 26.2998 398.245 30.8765 396.533 34.2763C395.674 35.983 394.986 37.4091 394.51 38.4156C394.272 38.9192 394.086 39.3186 393.958 39.5967C393.894 39.7358 393.844 39.8446 393.809 39.9209C393.792 39.9591 393.778 39.9891 393.768 40.0108C393.763 40.0217 393.759 40.0305 393.756 40.0371C393.755 40.0404 393.754 40.0432 393.753 40.0454C393.752 40.0466 393.752 40.0479 393.751 40.0484C393.751 40.0496 393.75 40.0506 400.533 43.1043ZM432.124 35.6657H400.533V50.5429H432.124V35.6657ZM454.236 35.6657H432.124V50.5429H454.236V35.6657ZM478.72 35.6657H454.236V50.5429H478.72V35.6657ZM510.311 35.6657H478.72V50.5429H510.311V35.6657ZM532.423 35.6657H510.311V50.5429H532.423V35.6657ZM505.393 15.4552C504.877 15.4552 504.959 15.2736 505.785 15.7991C506.574 16.3015 507.629 17.1899 508.909 18.5661C511.473 21.321 514.198 25.2199 516.771 29.4355C519.308 33.593 521.535 37.7883 523.135 40.9675C523.932 42.5502 524.567 43.8653 524.998 44.7777C525.214 45.2335 525.379 45.5879 525.487 45.8238C525.542 45.9418 525.582 46.03 525.608 46.0864C525.62 46.1146 525.63 46.1349 525.635 46.1469C525.638 46.1529 525.64 46.1569 525.64 46.1588C525.641 46.1597 525.641 46.1601 525.641 46.16C525.641 46.1599 525.641 46.1594 525.641 46.1594C525.64 46.1588 525.64 46.158 532.423 43.1043C539.206 40.0506 539.205 40.0496 539.205 40.0484C539.205 40.0479 539.204 40.0466 539.204 40.0454C539.203 40.0432 539.201 40.0404 539.2 40.0371C539.197 40.0305 539.193 40.0217 539.188 40.0108C539.178 39.9891 539.164 39.9591 539.147 39.9209C539.112 39.8446 539.063 39.7358 538.998 39.5967C538.87 39.3186 538.685 38.9192 538.446 38.4156C537.97 37.4091 537.282 35.983 536.423 34.2763C534.711 30.8765 532.286 26.2998 529.47 21.6854C526.689 17.1291 523.359 12.2561 519.801 8.432C518.021 6.51871 515.999 4.66591 513.774 3.24942C511.586 1.85614 508.717 0.578005 505.393 0.578005V15.4552ZM483.28 15.4552H505.393V0.578005H483.28V15.4552ZM478.72 15.4552H483.28V0.578005H478.72V15.4552ZM454.236 15.4552H478.72V0.578005H454.236V15.4552ZM432.124 15.4552H454.236V0.578005H432.124V15.4552ZM427.563 15.4552H432.124V0.578005H427.563V15.4552Z" fill="black"/>
<path d="M211.051 71.1737C211.051 71.1737 211.051 43.1035 239.121 43.1035C267.191 43.1035 968.282 43.1035 989.998 43.1035C1014.56 43.1035 982.981 71.1737 982.981 85.2088C982.981 96.2968 982.981 302.753 982.981 330.823C982.981 358.893 954.91 358.893 954.91 358.893C954.91 358.893 281.226 358.893 246.139 358.893C211.051 358.893 211.051 323.805 211.051 323.805V71.1737Z" fill="white" stroke="black" stroke-width="14.8772"/>
<path d="M7.55078 71.1737C7.55078 71.1737 7.55078 43.1035 35.621 43.1035C63.6911 43.1035 764.782 43.1035 786.498 43.1035C811.06 43.1035 779.481 71.1737 779.481 85.2088C779.481 96.2968 779.481 302.753 779.481 330.823C779.481 358.893 751.41 358.893 751.41 358.893C751.41 358.893 77.7262 358.893 42.6385 358.893C7.55078 358.893 7.55078 323.805 7.55078 323.805V71.1737Z" fill="white" stroke="black" stroke-width="14.8772"/>
<path d="M122.792 251.173H765.446V319.282C765.446 344.857 738.396 344.857 738.396 344.857H52.0166C21.5859 344.857 21.5859 312.888 21.5859 312.888V83.9023C21.5859 57.1377 48.8134 57.1377 48.8134 57.1377H76.3009V180.857H108.264L122.792 251.173Z" fill="black" stroke="white" stroke-width="14.8772"/>
<path fill-rule="evenodd" clip-rule="evenodd" d="M609.677 8.0166C598.443 8.0166 582.646 43.1043 582.646 43.1043H614.237H636.35H660.833H692.424H714.536C714.536 43.1043 698.739 8.0166 687.506 8.0166H665.394H660.833H636.35H614.237H609.677Z" fill="white"/>
<path d="M582.646 43.1043L575.864 40.0506L571.14 50.5429H582.646V43.1043ZM714.536 43.1043V50.5429H726.043L721.319 40.0506L714.536 43.1043ZM582.646 43.1043C589.429 46.158 589.429 46.1588 589.429 46.1594C589.429 46.1594 589.429 46.1599 589.428 46.16C589.428 46.1601 589.429 46.1597 589.429 46.1588C589.43 46.1569 589.432 46.1529 589.434 46.1469C589.44 46.1349 589.449 46.1146 589.462 46.0864C589.488 46.03 589.528 45.9418 589.582 45.8238C589.691 45.5879 589.856 45.2335 590.071 44.7777C590.503 43.8653 591.137 42.5502 591.934 40.9675C593.535 37.7883 595.761 33.593 598.299 29.4355C600.871 25.2199 603.597 21.321 606.16 18.5661C607.441 17.1899 608.496 16.3015 609.285 15.7991C610.11 15.2736 610.192 15.4552 609.677 15.4552V0.578005C606.353 0.578005 603.484 1.85614 601.295 3.24942C599.07 4.66591 597.048 6.51871 595.268 8.432C591.71 12.2561 588.38 17.1291 585.6 21.6854C582.783 26.2998 580.359 30.8765 578.647 34.2763C577.787 35.983 577.099 37.4091 576.623 38.4156C576.385 38.9192 576.199 39.3186 576.071 39.5967C576.007 39.7358 575.957 39.8446 575.922 39.9209C575.905 39.9591 575.891 39.9891 575.882 40.0108C575.877 40.0217 575.873 40.0305 575.87 40.0371C575.868 40.0404 575.867 40.0432 575.866 40.0454C575.865 40.0466 575.865 40.0479 575.865 40.0484C575.864 40.0496 575.864 40.0506 582.646 43.1043ZM614.237 35.6657H582.646V50.5429H614.237V35.6657ZM636.35 35.6657H614.237V50.5429H636.35V35.6657ZM660.833 35.6657H636.35V50.5429H660.833V35.6657ZM692.424 35.6657H660.833V50.5429H692.424V35.6657ZM714.536 35.6657H692.424V50.5429H714.536V35.6657ZM687.506 15.4552C686.99 15.4552 687.072 15.2736 687.898 15.7991C688.687 16.3015 689.742 17.1899 691.023 18.5661C693.586 21.321 696.311 25.2199 698.884 29.4355C701.421 33.593 703.648 37.7883 705.249 40.9675C706.046 42.5502 706.68 43.8653 707.111 44.7777C707.327 45.2335 707.492 45.5879 707.601 45.8238C707.655 45.9418 707.695 46.03 707.721 46.0864C707.734 46.1146 707.743 46.1349 707.748 46.1469C707.751 46.1529 707.753 46.1569 707.754 46.1588C707.754 46.1597 707.754 46.1601 707.754 46.16C707.754 46.1599 707.754 46.1594 707.754 46.1594C707.754 46.1588 707.753 46.158 714.536 43.1043C721.319 40.0506 721.319 40.0496 721.318 40.0484C721.318 40.0479 721.317 40.0466 721.317 40.0454C721.316 40.0432 721.315 40.0404 721.313 40.0371C721.31 40.0305 721.306 40.0217 721.301 40.0108C721.291 39.9891 721.278 39.9591 721.26 39.9209C721.226 39.8446 721.176 39.7358 721.112 39.5967C720.984 39.3186 720.798 38.9192 720.56 38.4156C720.084 37.4091 719.396 35.983 718.536 34.2763C716.824 30.8765 714.399 26.2998 711.583 21.6854C708.803 17.1291 705.473 12.2561 701.914 8.432C700.134 6.51871 698.112 4.66591 695.888 3.24942C693.699 1.85614 690.83 0.578005 687.506 0.578005V15.4552ZM665.394 15.4552H687.506V0.578005H665.394V15.4552ZM660.833 15.4552H665.394V0.578005H660.833V15.4552ZM636.35 15.4552H660.833V0.578005H636.35V15.4552ZM614.237 15.4552H636.35V0.578005H614.237V15.4552ZM609.677 15.4552H614.237V0.578005H609.677V15.4552Z" fill="black"/>
<rect x="804.251" y="81.9097" width="153.965" height="132.912" rx="18.5965" stroke="black" stroke-width="7.4386"/>
<rect x="779.48" y="274.681" width="196.491" height="77.193" fill="black"/>
<rect x="186.702" y="81.9097" width="125.895" height="132.912" rx="11.1579" fill="white" stroke="black" stroke-width="7.4386"/>
<rect x="39.3384" y="81.9097" width="125.895" height="132.912" rx="11.1579" fill="white" stroke="black" stroke-width="7.4386"/>
<rect x="334.065" y="81.9097" width="125.895" height="132.912" rx="11.1579" fill="white" stroke="black" stroke-width="7.4386"/>
<rect x="481.442" y="81.9097" width="125.895" height="132.912" rx="11.1579" fill="white" stroke="black" stroke-width="7.4386"/>
<rect x="628.805" y="81.9097" width="125.895" height="132.912" rx="11.1579" fill="white" stroke="black" stroke-width="7.4386"/>
<path d="M648.803 408.441C678.104 408.441 701.856 384.689 701.856 355.388C701.856 326.088 678.104 302.336 648.803 302.336C619.503 302.336 595.751 326.088 595.751 355.388C595.751 384.689 619.503 408.441 648.803 408.441Z" fill="white" stroke="black" stroke-width="14.8772"/>
<path d="M199.671 408.441C228.971 408.441 252.723 384.689 252.723 355.388C252.723 326.088 228.971 302.336 199.671 302.336C170.371 302.336 146.618 326.088 146.618 355.388C146.618 384.689 170.371 408.441 199.671 408.441Z" fill="white" stroke="black" stroke-width="14.8772"/>
<path d="M635.612 408.441C664.912 408.441 688.665 384.689 688.665 355.388C688.665 326.088 664.912 302.336 635.612 302.336C606.312 302.336 582.559 326.088 582.559 355.388C582.559 384.689 606.312 408.441 635.612 408.441Z" fill="black" stroke="white" stroke-width="14.8772"/>
<path d="M186.491 408.441C215.791 408.441 239.544 384.689 239.544 355.388C239.544 326.088 215.791 302.336 186.491 302.336C157.191 302.336 133.438 326.088 133.438 355.388C133.438 384.689 157.191 408.441 186.491 408.441Z" fill="black" stroke="white" stroke-width="14.8772"/>
</svg>
