<svg width="1327" height="452" viewBox="0 0 1327 452" fill="none" xmlns="http://www.w3.org/2000/svg">
<rect x="703.93" width="237.123" height="38.2456" fill="#FFC4E1"/>
<path fill-rule="evenodd" clip-rule="evenodd" d="M695.147 7.65039C682.902 7.65039 665.684 45.896 665.684 45.896H700.127H724.225H750.907H785.351H809.448C809.448 45.896 792.23 7.65039 779.985 7.65039H755.888H750.907H724.225H700.127H695.147Z" fill="#FFC4E1"/>
<path d="M665.684 45.896L658.709 42.7559L653.851 53.5451H665.684V45.896ZM809.448 45.896V53.5451H821.281L816.423 42.7559L809.448 45.896ZM665.684 45.896C672.658 49.0362 672.658 49.0369 672.658 49.0375C672.658 49.0376 672.658 49.038 672.658 49.0381C672.658 49.0381 672.658 49.0376 672.658 49.0365C672.659 49.0343 672.661 49.0299 672.664 49.0232C672.67 49.0097 672.681 48.9874 672.695 48.9563C672.723 48.8942 672.767 48.7974 672.827 48.6682C672.946 48.4097 673.126 48.0221 673.362 47.5237C673.834 46.5263 674.526 45.0894 675.397 43.3604C677.146 39.8883 679.578 35.3037 682.353 30.7579C685.163 26.1524 688.153 21.8725 690.977 18.8367C692.389 17.3201 693.569 16.322 694.473 15.7462C695.415 15.1466 695.59 15.2995 695.147 15.2995V0.00126791C691.642 0.00126791 688.601 1.3494 686.257 2.84131C683.876 4.35709 681.702 6.34689 679.777 8.41581C675.93 12.5511 672.319 17.8326 669.294 22.7885C666.233 27.8041 663.596 32.7809 661.734 36.4798C660.799 38.3363 660.051 39.8874 659.533 40.9816C659.274 41.529 659.072 41.963 658.933 42.2648C658.864 42.4157 658.81 42.5337 658.772 42.6163C658.753 42.6576 658.738 42.6901 658.728 42.7134C658.723 42.7251 658.718 42.7345 658.715 42.7416C658.714 42.7451 658.712 42.7481 658.711 42.7505C658.711 42.7517 658.71 42.753 658.71 42.7536C658.709 42.7548 658.709 42.7559 665.684 45.896ZM700.127 38.2469H665.684V53.5451H700.127V38.2469ZM724.225 38.2469H700.127V53.5451H724.225V38.2469ZM750.907 38.2469H724.225V53.5451H750.907V38.2469ZM785.351 38.2469H750.907V53.5451H785.351V38.2469ZM809.448 38.2469H785.351V53.5451H809.448V38.2469ZM779.985 15.2995C779.542 15.2995 779.717 15.1466 780.659 15.7462C781.563 16.322 782.743 17.3201 784.154 18.8367C786.979 21.8725 789.968 26.1524 792.779 30.7579C795.553 35.3037 797.986 39.8883 799.735 43.3604C800.605 45.0894 801.298 46.5263 801.77 47.5237C802.006 48.0221 802.186 48.4097 802.305 48.6682C802.365 48.7974 802.409 48.8942 802.437 48.9563C802.451 48.9874 802.461 49.0097 802.468 49.0232C802.471 49.0299 802.473 49.0343 802.474 49.0365C802.474 49.0376 802.474 49.0381 802.474 49.0381C802.474 49.038 802.474 49.0376 802.474 49.0375C802.474 49.0369 802.473 49.0362 809.448 45.896C816.423 42.7559 816.423 42.7548 816.422 42.7536C816.422 42.753 816.421 42.7517 816.421 42.7505C816.42 42.7481 816.418 42.7451 816.417 42.7416C816.413 42.7345 816.409 42.7251 816.404 42.7134C816.393 42.6901 816.379 42.6576 816.36 42.6163C816.322 42.5337 816.268 42.4157 816.199 42.2648C816.06 41.963 815.858 41.529 815.599 40.9816C815.081 39.8874 814.333 38.3363 813.398 36.4798C811.536 32.7809 808.899 27.8041 805.838 22.7885C802.813 17.8326 799.202 12.5511 795.354 8.41581C793.429 6.34689 791.256 4.35709 788.875 2.84131C786.531 1.3494 783.49 0.00126791 779.985 0.00126791V15.2995ZM755.888 15.2995H779.985V0.00126791H755.888V15.2995ZM750.907 15.2995H755.888V0.00126791H750.907V15.2995ZM724.225 15.2995H750.907V0.00126791H724.225V15.2995ZM700.127 15.2995H724.225V0.00126791H700.127V15.2995ZM695.147 15.2995H700.127V0.00126791H695.147V15.2995Z" fill="#FFC4E1"/>
<circle cx="1188.74" cy="386.282" r="57.3684" fill="black" stroke="#FFC4E1" stroke-width="15.2982"/>
<circle cx="699.194" cy="386.282" r="57.3684" fill="black" stroke="#FFC4E1" stroke-width="15.2982"/>
<circle cx="1174.35" cy="386.282" r="57.3684" fill="#FFC4E1" stroke="black" stroke-width="15.2982"/>
<circle cx="684.807" cy="386.282" r="57.3684" fill="#FFC4E1" stroke="black" stroke-width="15.2982"/>
<path d="M459.158 76.491C459.158 76.491 459.158 45.8945 489.755 45.8945C520.351 45.8945 1284.54 45.8945 1308.21 45.8945C1334.98 45.8945 1300.56 76.491 1300.56 91.7893C1300.56 103.875 1300.56 328.912 1300.56 359.509C1300.56 390.105 1269.97 390.105 1269.97 390.105C1269.97 390.105 535.649 390.105 497.404 390.105C459.158 390.105 459.158 351.859 459.158 351.859V76.491Z" fill="black" stroke="#FFC4E1" stroke-width="15.2982"/>
<path d="M237.334 76.491C237.334 76.491 237.334 45.8945 267.93 45.8945C298.527 45.8945 1062.72 45.8945 1086.39 45.8945C1113.16 45.8945 1078.74 76.491 1078.74 91.7893C1078.74 103.875 1078.74 328.912 1078.74 359.509C1078.74 390.105 1048.14 390.105 1048.14 390.105C1048.14 390.105 313.825 390.105 275.58 390.105C237.334 390.105 237.334 351.859 237.334 351.859V76.491Z" fill="black" stroke="#FFC4E1" stroke-width="15.2982"/>
<path d="M362.948 272.692H1063.44V346.931C1063.44 374.807 1033.96 374.807 1033.96 374.807H285.802C252.633 374.807 252.633 339.961 252.633 339.961V90.3668C252.633 61.1934 282.311 61.1934 282.311 61.1934H312.272V196.047H347.111L362.948 272.692Z" fill="#FFC4E1" stroke="black" stroke-width="15.2982"/>
<path fill-rule="evenodd" clip-rule="evenodd" d="M893.652 7.65039C881.408 7.65039 864.189 45.896 864.189 45.896H898.633H922.731H949.413H983.856H1007.95C1007.95 45.896 990.736 7.65039 978.491 7.65039H954.393H949.413H922.731H898.633H893.652Z" fill="black"/>
<path d="M864.189 45.896L857.215 42.7559L852.357 53.5451H864.189V45.896ZM1007.95 45.896V53.5451H1019.79L1014.93 42.7559L1007.95 45.896ZM864.189 45.896C871.164 49.0362 871.164 49.0369 871.164 49.0375C871.164 49.0376 871.163 49.038 871.163 49.0381C871.163 49.0381 871.164 49.0376 871.164 49.0365C871.165 49.0343 871.167 49.0299 871.17 49.0232C871.176 49.0097 871.186 48.9874 871.201 48.9563C871.229 48.8942 871.273 48.7974 871.333 48.6682C871.452 48.4097 871.632 48.0221 871.868 47.5237C872.339 46.5263 873.032 45.0894 873.903 43.3604C875.651 39.8883 878.084 35.3037 880.859 30.7579C883.669 26.1524 886.659 21.8725 889.483 18.8367C890.894 17.3201 892.074 16.322 892.979 15.7462C893.921 15.1466 894.096 15.2995 893.652 15.2995V0.00126791C890.148 0.00126791 887.106 1.3494 884.763 2.84131C882.382 4.35709 880.208 6.34689 878.283 8.41581C874.436 12.5511 870.825 17.8326 867.8 22.7885C864.739 27.8041 862.102 32.7809 860.239 36.4798C859.304 38.3363 858.556 39.8874 858.039 40.9816C857.78 41.529 857.578 41.963 857.439 42.2648C857.369 42.4157 857.316 42.5337 857.278 42.6163C857.259 42.6576 857.244 42.6901 857.234 42.7134C857.228 42.7251 857.224 42.7345 857.221 42.7416C857.219 42.7451 857.218 42.7481 857.217 42.7505C857.216 42.7517 857.216 42.753 857.216 42.7536C857.215 42.7548 857.215 42.7559 864.189 45.896ZM898.633 38.2469H864.189V53.5451H898.633V38.2469ZM922.731 38.2469H898.633V53.5451H922.731V38.2469ZM949.413 38.2469H922.731V53.5451H949.413V38.2469ZM983.856 38.2469H949.413V53.5451H983.856V38.2469ZM1007.95 38.2469H983.856V53.5451H1007.95V38.2469ZM978.491 15.2995C978.048 15.2995 978.223 15.1466 979.165 15.7462C980.069 16.322 981.249 17.3201 982.66 18.8367C985.485 21.8725 988.474 26.1524 991.285 30.7579C994.059 35.3037 996.492 39.8883 998.241 43.3604C999.111 45.0894 999.804 46.5263 1000.28 47.5237C1000.51 48.0221 1000.69 48.4097 1000.81 48.6682C1000.87 48.7974 1000.91 48.8942 1000.94 48.9563C1000.96 48.9874 1000.97 49.0097 1000.97 49.0232C1000.98 49.0299 1000.98 49.0343 1000.98 49.0365C1000.98 49.0376 1000.98 49.0381 1000.98 49.0381C1000.98 49.038 1000.98 49.0376 1000.98 49.0375C1000.98 49.0369 1000.98 49.0362 1007.95 45.896C1014.93 42.7559 1014.93 42.7548 1014.93 42.7536C1014.93 42.753 1014.93 42.7517 1014.93 42.7505C1014.93 42.7481 1014.92 42.7451 1014.92 42.7416C1014.92 42.7345 1014.92 42.7251 1014.91 42.7134C1014.9 42.6901 1014.88 42.6576 1014.87 42.6163C1014.83 42.5337 1014.77 42.4157 1014.7 42.2648C1014.57 41.963 1014.36 41.529 1014.1 40.9816C1013.59 39.8874 1012.84 38.3363 1011.9 36.4798C1010.04 32.7809 1007.4 27.8041 1004.34 22.7885C1001.32 17.8326 997.708 12.5511 993.86 8.41581C991.935 6.34689 989.761 4.35709 987.381 2.84131C985.037 1.3494 981.996 0.00126791 978.491 0.00126791V15.2995ZM954.393 15.2995H978.491V0.00126791H954.393V15.2995ZM949.413 15.2995H954.393V0.00126791H949.413V15.2995ZM922.731 15.2995H949.413V0.00126791H922.731V15.2995ZM898.633 15.2995H922.731V0.00126791H898.633V15.2995ZM893.652 15.2995H898.633V0.00126791H893.652V15.2995Z" fill="#FFC4E1"/>
<rect x="1105.51" y="87.9652" width="168.281" height="145.333" rx="19.1228" stroke="#FFC4E1" stroke-width="7.64912"/>
<rect x="1078.74" y="298.316" width="214.175" height="84.1404" fill="#FFC4E1"/>
<rect x="432.387" y="87.9652" width="137.684" height="145.333" rx="11.4737" fill="black" stroke="#FFC4E1" stroke-width="7.64912"/>
<rect x="271.754" y="87.9652" width="137.684" height="145.333" rx="11.4737" fill="black" stroke="#FFC4E1" stroke-width="7.64912"/>
<rect x="593.018" y="87.9652" width="137.684" height="145.333" rx="11.4737" fill="black" stroke="#FFC4E1" stroke-width="7.64912"/>
<rect x="753.649" y="87.9652" width="137.684" height="145.333" rx="11.4737" fill="black" stroke="#FFC4E1" stroke-width="7.64912"/>
<rect x="914.282" y="87.9652" width="137.684" height="145.333" rx="11.4737" fill="black" stroke="#FFC4E1" stroke-width="7.64912"/>
<circle cx="936.317" cy="386.282" r="57.3684" fill="black" stroke="#FFC4E1" stroke-width="15.2982"/>
<circle cx="446.772" cy="386.282" r="57.3684" fill="black" stroke="#FFC4E1" stroke-width="15.2982"/>
<circle cx="921.93" cy="386.282" r="57.3684" fill="#FFC4E1" stroke="black" stroke-width="15.2982"/>
<circle cx="432.385" cy="386.282" r="57.3684" fill="#FFC4E1" stroke="black" stroke-width="15.2982"/>
<mask id="path-24-inside-1_948_6314" fill="white">
<path fill-rule="evenodd" clip-rule="evenodd" d="M110.109 378.069C99.6488 383.63 87.7119 386.78 75.0393 386.78C33.7127 386.78 0.210938 353.278 0.210938 311.951C0.210938 270.625 33.7127 237.123 75.0393 237.123C113.606 237.123 145.358 266.299 149.427 303.783C172.942 305.677 191.435 325.36 191.435 349.363C191.435 374.618 170.962 395.091 145.707 395.091C131.324 395.091 118.492 388.451 110.109 378.069Z"/>
</mask>
<path fill-rule="evenodd" clip-rule="evenodd" d="M110.109 378.069C99.6488 383.63 87.7119 386.78 75.0393 386.78C33.7127 386.78 0.210938 353.278 0.210938 311.951C0.210938 270.625 33.7127 237.123 75.0393 237.123C113.606 237.123 145.358 266.299 149.427 303.783C172.942 305.677 191.435 325.36 191.435 349.363C191.435 374.618 170.962 395.091 145.707 395.091C131.324 395.091 118.492 388.451 110.109 378.069Z" fill="black"/>
<path d="M110.109 378.069L122.012 368.459L114.079 358.634L102.929 364.561L110.109 378.069ZM149.427 303.783L134.218 305.435L135.584 318.017L148.199 319.032L149.427 303.783ZM102.929 364.561C94.6257 368.974 85.1479 371.482 75.0393 371.482V402.078C90.2759 402.078 104.672 398.285 117.29 391.578L102.929 364.561ZM75.0393 371.482C42.1617 371.482 15.5092 344.829 15.5092 311.951H-15.0873C-15.0873 361.727 25.2638 402.078 75.0393 402.078V371.482ZM15.5092 311.951C15.5092 279.074 42.1617 252.421 75.0393 252.421V221.825C25.2638 221.825 -15.0873 262.176 -15.0873 311.951H15.5092ZM75.0393 252.421C105.711 252.421 130.983 275.63 134.218 305.435L164.636 302.132C159.733 256.969 121.501 221.825 75.0393 221.825V252.421ZM148.199 319.032C163.832 320.291 176.137 333.398 176.137 349.363H206.733C206.733 317.323 182.053 291.063 150.655 288.535L148.199 319.032ZM176.137 349.363C176.137 366.169 162.513 379.793 145.707 379.793V410.389C179.411 410.389 206.733 383.067 206.733 349.363H176.137ZM145.707 379.793C136.142 379.793 127.615 375.398 122.012 368.459L98.2069 387.68C109.369 401.504 126.506 410.389 145.707 410.389V379.793Z" fill="#FFC4E1" mask="url(#path-24-inside-1_948_6314)"/>
</svg>
