<svg width="284" height="55" viewBox="0 0 284 55" fill="none" xmlns="http://www.w3.org/2000/svg">
<path fill-rule="evenodd" clip-rule="evenodd" d="M41.1954 16.3766L49.2441 14.7792V3.5974L42.8051 2L41.1954 16.3766ZM15.4393 30.7532L17.049 16.3766H23.4881L25.0978 27.5584L15.4393 30.7532ZM2 53H61.0817L63.732 43.5325L47.6344 19.5714L29.9271 30.7532L13.8295 38.7403L2.56122 43.5325L2 53Z" fill="#9AFF6B"/>
<path d="M49.2441 14.7792L49.5362 16.2505C50.2383 16.1112 50.7441 15.4951 50.7441 14.7792H49.2441ZM41.1954 16.3766L39.7047 16.2097C39.6514 16.6851 39.8282 17.1574 40.1804 17.4811C40.5326 17.8048 41.0181 17.9411 41.4874 17.8479L41.1954 16.3766ZM49.2441 3.5974H50.7441C50.7441 2.90809 50.2744 2.30751 49.6053 2.14153L49.2441 3.5974ZM42.8051 2L43.1663 0.544131C42.7469 0.440075 42.3029 0.521981 41.9482 0.768862C41.5935 1.01574 41.3625 1.40361 41.3144 1.83309L42.8051 2ZM17.049 16.3766V14.8766C16.2852 14.8766 15.6433 15.4506 15.5583 16.2097L17.049 16.3766ZM15.4393 30.7532L13.9486 30.5863C13.8917 31.0943 14.0974 31.5963 14.4944 31.9183C14.8914 32.2402 15.425 32.3379 15.9103 32.1774L15.4393 30.7532ZM23.4881 16.3766L24.9727 16.1629C24.8665 15.4246 24.2339 14.8766 23.4881 14.8766V16.3766ZM25.0978 27.5584L25.5689 28.9826C26.2589 28.7543 26.6861 28.0641 26.5825 27.3447L25.0978 27.5584ZM2 53L0.502629 52.9112C0.478175 53.3237 0.624984 53.7281 0.908409 54.0288C1.19183 54.3295 1.58676 54.5 2 54.5V53ZM61.0817 53V54.5C61.7544 54.5 62.3449 54.0521 62.5262 53.4043L61.0817 53ZM63.732 43.5325L65.1764 43.9368C65.2948 43.514 65.2219 43.0605 64.9771 42.696L63.732 43.5325ZM47.6344 19.5714L48.8795 18.7349C48.4267 18.061 47.52 17.8696 46.8335 18.3031L47.6344 19.5714ZM29.9271 30.7532L30.5938 32.0969C30.6398 32.0741 30.6846 32.049 30.728 32.0215L29.9271 30.7532ZM13.8295 38.7403L14.4166 40.1206C14.4435 40.1092 14.47 40.0969 14.4962 40.084L13.8295 38.7403ZM2.56122 43.5325L1.97418 42.1521C1.45018 42.375 1.09754 42.8753 1.06385 43.4437L2.56122 43.5325ZM48.9521 13.3079L40.9034 14.9053L41.4874 17.8479L49.5362 16.2505L48.9521 13.3079ZM47.7441 3.5974V14.7792H50.7441V3.5974H47.7441ZM42.4439 3.45587L48.883 5.05327L49.6053 2.14153L43.1663 0.544131L42.4439 3.45587ZM42.6861 16.5435L44.2958 2.16691L41.3144 1.83309L39.7047 16.2097L42.6861 16.5435ZM15.5583 16.2097L13.9486 30.5863L16.93 30.9202L18.5397 16.5435L15.5583 16.2097ZM23.4881 14.8766H17.049V17.8766H23.4881V14.8766ZM26.5825 27.3447L24.9727 16.1629L22.0034 16.5904L23.6131 27.7722L26.5825 27.3447ZM15.9103 32.1774L25.5689 28.9826L24.6267 26.1343L14.9682 29.3291L15.9103 32.1774ZM2 54.5H61.0817V51.5H2V54.5ZM62.2875 43.1281L59.6373 52.5957L62.5262 53.4043L65.1764 43.9368L62.2875 43.1281ZM46.3893 20.4079L62.4868 44.369L64.9771 42.696L48.8795 18.7349L46.3893 20.4079ZM30.728 32.0215L48.4353 20.8397L46.8335 18.3031L29.1262 29.485L30.728 32.0215ZM14.4962 40.084L30.5938 32.0969L29.2604 29.4095L13.1628 37.3966L14.4962 40.084ZM3.14826 44.9128L14.4166 40.1206L13.2425 37.3599L1.97418 42.1521L3.14826 44.9128ZM3.49737 53.0888L4.05859 43.6212L1.06385 43.4437L0.502629 52.9112L3.49737 53.0888Z" fill="black"/>
<path fill-rule="evenodd" clip-rule="evenodd" d="M195.483 2V12.656L202.574 15.024V5.552L195.483 2ZM207.708 53L206.12 25.68L184.847 15.024L168 53H207.708Z" fill="#9AFF6B"/>
<path d="M195.483 12.656H193.983C193.983 13.3013 194.396 13.8743 195.008 14.0788L195.483 12.656ZM195.483 2L196.155 0.658855C195.69 0.425932 195.138 0.450483 194.695 0.723733C194.253 0.996983 193.983 1.47994 193.983 2L195.483 2ZM202.574 15.024L202.099 16.4468C202.557 16.5995 203.06 16.523 203.451 16.2411C203.842 15.9592 204.074 15.5063 204.074 15.024H202.574ZM202.574 5.552H204.074C204.074 4.98424 203.754 4.46514 203.246 4.21085L202.574 5.552ZM206.12 25.68L207.617 25.5929C207.586 25.0573 207.271 24.5791 206.792 24.3389L206.12 25.68ZM207.708 53V54.5C208.121 54.5 208.516 54.3298 208.799 54.0294C209.083 53.7291 209.23 53.3252 209.206 52.9129L207.708 53ZM184.847 15.024L185.519 13.6829C185.152 13.4992 184.727 13.4737 184.341 13.6121C183.955 13.7505 183.642 14.0409 183.476 14.4157L184.847 15.024ZM168 53L166.629 52.3917C166.423 52.8557 166.466 53.3923 166.743 53.8178C167.019 54.2433 167.492 54.5 168 54.5V53ZM196.983 12.656V2H193.983V12.656H196.983ZM203.05 13.6012L195.959 11.2332L195.008 14.0788L202.099 16.4468L203.05 13.6012ZM201.074 5.552V15.024H204.074V5.552H201.074ZM194.812 3.34115L201.903 6.89315L203.246 4.21085L196.155 0.658855L194.812 3.34115ZM204.622 25.7671L206.211 53.0871L209.206 52.9129L207.617 25.5929L204.622 25.7671ZM184.175 16.3651L205.448 27.0211L206.792 24.3389L185.519 13.6829L184.175 16.3651ZM169.371 53.6083L186.218 15.6323L183.476 14.4157L166.629 52.3917L169.371 53.6083ZM168 54.5H207.708V51.5H168V54.5Z" fill="black"/>
<path fill-rule="evenodd" clip-rule="evenodd" d="M261.363 16.3438H270.696L268.999 2.84375L262.211 2L261.363 16.3438ZM245.755 53H282.25L273.242 24.7812H258.817L245.755 53Z" fill="#9AFF6B"/>
<path d="M270.696 16.3438V17.8438C271.127 17.8438 271.536 17.6588 271.821 17.3361C272.106 17.0133 272.238 16.5837 272.184 16.1567L270.696 16.3438ZM261.363 16.3438L259.865 16.2552C259.841 16.6677 259.988 17.0719 260.271 17.3726C260.555 17.6733 260.95 17.8438 261.363 17.8438V16.3438ZM268.999 2.84375L270.487 2.65667C270.402 1.97581 269.865 1.43985 269.184 1.35521L268.999 2.84375ZM262.211 2L262.396 0.511456C261.985 0.460309 261.571 0.581765 261.252 0.84698C260.933 1.1122 260.738 1.49751 260.714 1.91142L262.211 2ZM245.755 53L244.394 52.3699C244.179 52.8344 244.215 53.3764 244.491 53.8077C244.767 54.239 245.243 54.5 245.755 54.5V53ZM282.25 53V54.5C282.729 54.5 283.179 54.2714 283.461 53.8848C283.744 53.4982 283.825 52.9999 283.679 52.5438L282.25 53ZM273.242 24.7812L274.671 24.3251C274.472 23.7033 273.894 23.2812 273.242 23.2812V24.7812ZM258.817 24.7812V23.2812C258.233 23.2812 257.702 23.6207 257.456 24.1511L258.817 24.7812ZM270.696 14.8438H261.363V17.8438H270.696V14.8438ZM267.511 3.03083L269.208 16.5308L272.184 16.1567L270.487 2.65667L267.511 3.03083ZM262.026 3.48854L268.814 4.33229L269.184 1.35521L262.396 0.511456L262.026 3.48854ZM262.86 16.4323L263.709 2.08858L260.714 1.91142L259.865 16.2552L262.86 16.4323ZM245.755 54.5H282.25V51.5H245.755V54.5ZM271.813 25.2374L280.821 53.4562L283.679 52.5438L274.671 24.3251L271.813 25.2374ZM258.817 26.2812H273.242V23.2812H258.817V26.2812ZM247.116 53.6301L260.179 25.4114L257.456 24.1511L244.394 52.3699L247.116 53.6301Z" fill="black"/>
</svg>
